Cafeteria-Light.ufo
<glyph name="exclam" format="1">
  <advance width="137"/>
  <unicode hex="0021"/>
  <outline>
    <contour>
      <point x="92" y="699" type="curve"/>
      <point x="88" y="609"/>
      <point x="91" y="216"/>
      <point x="86" y="153" type="curve"/>
      <point x="75" y="157"/>
      <point x="61" y="161"/>
      <point x="48" y="162" type="curve"/>
      <point x="48" y="252"/>
      <point x="41" y="547"/>
      <point x="31" y="677" type="curve"/>
      <point x="43" y="682"/>
      <point x="79" y="691"/>
    </contour>
    <contour>
      <point x="109" y="35" type="curve" smooth="yes"/>
      <point x="109" y="14"/>
      <point x="96" y="-6"/>
      <point x="73" y="-6" type="curve" smooth="yes"/>
      <point x="51" y="-6"/>
      <point x="31" y="11"/>
      <point x="31" y="36" type="curve" smooth="yes"/>
      <point x="31" y="61"/>
      <point x="49" y="76"/>
      <point x="72" y="76" type="curve" smooth="yes"/>
      <point x="93" y="76"/>
      <point x="109" y="59"/>
    </contour>
  </outline>
</glyph>
<glyph name="quotedbl" format="1">
  <advance width="270"/>
  <unicode hex="0022"/>
  <outline>
    <contour>
      <point x="233" y="580" type="curve" smooth="yes"/>
      <point x="232" y="525"/>
      <point x="227" y="471"/>
      <point x="223" y="429" type="curve"/>
      <point x="217" y="430"/>
      <point x="200" y="433"/>
      <point x="194" y="434" type="curve"/>
      <point x="188" y="478"/>
      <point x="184" y="502"/>
      <point x="173" y="544" type="curve"/>
      <point x="178" y="587"/>
      <point x="174" y="643"/>
      <point x="173" y="672" type="curve"/>
      <point x="190" y="675"/>
      <point x="217" y="681"/>
      <point x="232" y="687" type="curve"/>
      <point x="232" y="670"/>
      <point x="234" y="619"/>
    </contour>
    <contour>
      <point x="109" y="687" type="curve"/>
      <point x="109" y="667"/>
      <point x="109" y="640"/>
      <point x="108" y="602" type="curve" smooth="yes"/>
      <point x="107" y="524"/>
      <point x="104" y="475"/>
      <point x="99" y="428" type="curve"/>
      <point x="92" y="430"/>
      <point x="74" y="433"/>
      <point x="69" y="434" type="curve"/>
      <point x="64" y="480"/>
      <point x="58" y="511"/>
      <point x="49" y="565" type="curve"/>
      <point x="53" y="602"/>
      <point x="50" y="644"/>
      <point x="49" y="669" type="curve"/>
      <point x="64" y="673"/>
      <point x="95" y="680"/>
    </contour>
  </outline>
</glyph>
<glyph name="numbersign" format="1">
  <advance width="431"/>
  <unicode hex="0023"/>
  <outline>
    <contour>
      <point x="412" y="423" type="curve"/>
      <point x="410" y="416"/>
      <point x="400" y="382"/>
      <point x="397" y="375" type="curve"/>
      <point x="388" y="377"/>
      <point x="351" y="384"/>
      <point x="310" y="391" type="curve"/>
      <point x="302" y="341"/>
      <point x="295" y="295"/>
      <point x="287" y="246" type="curve"/>
      <point x="333" y="236"/>
      <point x="372" y="225"/>
      <point x="376" y="225" type="curve"/>
      <point x="373" y="218"/>
      <point x="362" y="179"/>
      <point x="360" y="171" type="curve"/>
      <point x="352" y="173"/>
      <point x="322" y="181"/>
      <point x="280" y="192" type="curve"/>
      <point x="267" y="106"/>
      <point x="255" y="26"/>
      <point x="252" y="-5" type="curve"/>
      <point x="242" y="-5"/>
      <point x="215" y="-3"/>
      <point x="204" y="-3" type="curve"/>
      <point x="212" y="38"/>
      <point x="225" y="122"/>
      <point x="237" y="205" type="curve"/>
      <point x="203" y="217"/>
      <point x="171" y="225"/>
      <point x="137" y="234" type="curve"/>
      <point x="127" y="141"/>
      <point x="118" y="55"/>
      <point x="116" y="28" type="curve"/>
      <point x="106" y="30"/>
      <point x="88" y="32"/>
      <point x="78" y="32" type="curve"/>
      <point x="80" y="56"/>
      <point x="87" y="148"/>
      <point x="94" y="247" type="curve"/>
      <point x="55" y="258"/>
      <point x="31" y="266"/>
      <point x="23" y="268" type="curve"/>
      <point x="25" y="276"/>
      <point x="28" y="309"/>
      <point x="27" y="315" type="curve"/>
      <point x="34" y="312"/>
      <point x="60" y="306"/>
      <point x="98" y="296" type="curve"/>
      <point x="102" y="341"/>
      <point x="104" y="381"/>
      <point x="107" y="426" type="curve"/>
      <point x="74" y="433"/>
      <point x="45" y="439"/>
      <point x="36" y="441" type="curve"/>
      <point x="37" y="447"/>
      <point x="39" y="466"/>
      <point x="39" y="474" type="curve"/>
      <point x="46" y="472"/>
      <point x="74" y="469"/>
      <point x="109" y="464" type="curve"/>
      <point x="117" y="564"/>
      <point x="123" y="656"/>
      <point x="124" y="684" type="curve"/>
      <point x="138" y="680"/>
      <point x="173" y="678"/>
      <point x="183" y="677" type="curve"/>
      <point x="179" y="652"/>
      <point x="169" y="558"/>
      <point x="158" y="457" type="curve"/>
      <point x="197" y="452"/>
      <point x="232" y="447"/>
      <point x="270" y="442" type="curve"/>
      <point x="280" y="519"/>
      <point x="290" y="590"/>
      <point x="293" y="619" type="curve"/>
      <point x="301" y="618"/>
      <point x="338" y="616"/>
      <point x="343" y="616" type="curve"/>
      <point x="338" y="593"/>
      <point x="327" y="517"/>
      <point x="313" y="436" type="curve"/>
      <point x="361" y="431"/>
      <point x="403" y="425"/>
    </contour>
    <contour>
      <point x="264" y="396" type="curve"/>
      <point x="228" y="405"/>
      <point x="194" y="412"/>
      <point x="155" y="417" type="curve"/>
      <point x="152" y="371"/>
      <point x="147" y="330"/>
      <point x="142" y="285" type="curve"/>
      <point x="178" y="276"/>
      <point x="208" y="267"/>
      <point x="243" y="259" type="curve"/>
      <point x="251" y="307"/>
      <point x="258" y="350"/>
    </contour>
  </outline>
</glyph>
<glyph name="dollar" format="1">
  <advance width="304"/>
  <unicode hex="0024"/>
  <outline>
    <contour>
      <point x="249" y="160" type="curve" smooth="yes"/>
      <point x="249" y="77"/>
      <point x="221" y="37"/>
      <point x="161" y="8" type="curve"/>
      <point x="167" y="-99" type="line"/>
      <point x="116" y="-105" type="line"/>
      <point x="111" y="-10" type="line"/>
      <point x="92" y="-15"/>
      <point x="71" y="-18"/>
      <point x="52" y="-21" type="curve"/>
      <point x="53" y="-6"/>
      <point x="52" y="15"/>
      <point x="51" y="32" type="curve"/>
      <point x="129" y="39"/>
      <point x="198" y="74"/>
      <point x="198" y="145" type="curve" smooth="yes"/>
      <point x="198" y="207"/>
      <point x="160" y="266"/>
      <point x="119" y="327" type="curve" smooth="yes"/>
      <point x="79" y="386"/>
      <point x="36" y="448"/>
      <point x="36" y="516" type="curve" smooth="yes"/>
      <point x="36" y="576"/>
      <point x="62" y="623"/>
      <point x="129" y="650" type="curve"/>
      <point x="124" y="757" type="line"/>
      <point x="182" y="758" type="line"/>
      <point x="183" y="667" type="line"/>
      <point x="205" y="673"/>
      <point x="225" y="674"/>
      <point x="243" y="673" type="curve"/>
      <point x="243" y="665"/>
      <point x="240" y="631"/>
      <point x="240" y="622" type="curve"/>
      <point x="155" y="620"/>
      <point x="92" y="588"/>
      <point x="92" y="528" type="curve" smooth="yes"/>
      <point x="92" y="475"/>
      <point x="125" y="418"/>
      <point x="165" y="358" type="curve" smooth="yes"/>
      <point x="206" y="296"/>
      <point x="249" y="230"/>
    </contour>
  </outline>
</glyph>
<glyph name="percent" format="1">
  <advance width="658"/>
  <unicode hex="0025"/>
  <outline>
    <contour>
      <point x="626" y="205" type="curve" smooth="yes"/>
      <point x="626" y="52"/>
      <point x="555" y="-6"/>
      <point x="498" y="-6" type="curve" smooth="yes"/>
      <point x="426" y="-6"/>
      <point x="374" y="55"/>
      <point x="374" y="181" type="curve" smooth="yes"/>
      <point x="374" y="277"/>
      <point x="424" y="405"/>
      <point x="509" y="405" type="curve" smooth="yes"/>
      <point x="584" y="405"/>
      <point x="626" y="342"/>
    </contour>
    <contour>
      <point x="448" y="636" type="curve"/>
      <point x="420" y="566"/>
      <point x="238" y="37"/>
      <point x="221" y="-18" type="curve"/>
      <point x="215" y="-15"/>
      <point x="183" y="-3"/>
      <point x="171" y="0" type="curve"/>
      <point x="203" y="80"/>
      <point x="346" y="496"/>
      <point x="379" y="596" type="curve"/>
      <point x="350" y="590"/>
      <point x="306" y="582"/>
      <point x="267" y="572" type="curve"/>
      <point x="271" y="555"/>
      <point x="272" y="536"/>
      <point x="272" y="516" type="curve" smooth="yes"/>
      <point x="272" y="361"/>
      <point x="202" y="272"/>
      <point x="144" y="272" type="curve" smooth="yes"/>
      <point x="65" y="272"/>
      <point x="20" y="328"/>
      <point x="20" y="490" type="curve" smooth="yes"/>
      <point x="20" y="564"/>
      <point x="51" y="683"/>
      <point x="150" y="683" type="curve" smooth="yes"/>
      <point x="203" y="683"/>
      <point x="237" y="656"/>
      <point x="255" y="614" type="curve"/>
      <point x="307" y="628"/>
      <point x="371" y="646"/>
      <point x="421" y="662" type="curve"/>
      <point x="427" y="656"/>
      <point x="441" y="643"/>
    </contour>
    <contour>
      <point x="566" y="201" type="curve" smooth="yes"/>
      <point x="566" y="321"/>
      <point x="540" y="352"/>
      <point x="507" y="352" type="curve" smooth="yes"/>
      <point x="459" y="352"/>
      <point x="433" y="267"/>
      <point x="433" y="185" type="curve" smooth="yes"/>
      <point x="433" y="99"/>
      <point x="450" y="46"/>
      <point x="490" y="46" type="curve" smooth="yes"/>
      <point x="541" y="46"/>
      <point x="566" y="88"/>
    </contour>
    <contour>
      <point x="217" y="499" type="curve" smooth="yes"/>
      <point x="217" y="597"/>
      <point x="197" y="626"/>
      <point x="142" y="626" type="curve" smooth="yes"/>
      <point x="105" y="626"/>
      <point x="77" y="586"/>
      <point x="77" y="494" type="curve" smooth="yes"/>
      <point x="77" y="356"/>
      <point x="101" y="326"/>
      <point x="135" y="326" type="curve" smooth="yes"/>
      <point x="183" y="326"/>
      <point x="217" y="408"/>
    </contour>
  </outline>
</glyph>
<glyph name="ampersand" format="1">
  <advance width="405"/>
  <unicode hex="0026"/>
  <outline>
    <contour>
      <point x="387" y="308" type="curve"/>
      <point x="368" y="242"/>
      <point x="346" y="161"/>
      <point x="312" y="103" type="curve"/>
      <point x="333" y="65"/>
      <point x="350" y="30"/>
      <point x="366" y="-3" type="curve"/>
      <point x="357" y="-10"/>
      <point x="329" y="-30"/>
      <point x="322" y="-38" type="curve"/>
      <point x="312" y="-19"/>
      <point x="294" y="15"/>
      <point x="275" y="50" type="curve"/>
      <point x="238" y="3"/>
      <point x="194" y="-12"/>
      <point x="133" y="-12" type="curve" smooth="yes"/>
      <point x="65" y="-12"/>
      <point x="22" y="101"/>
      <point x="22" y="192" type="curve" smooth="yes"/>
      <point x="22" y="266"/>
      <point x="64" y="315"/>
      <point x="115" y="366" type="curve"/>
      <point x="92" y="425"/>
      <point x="88" y="485"/>
      <point x="88" y="546" type="curve" smooth="yes"/>
      <point x="88" y="623"/>
      <point x="149" y="689"/>
      <point x="221" y="689" type="curve" smooth="yes"/>
      <point x="273" y="689"/>
      <point x="299" y="627"/>
      <point x="299" y="572" type="curve" smooth="yes"/>
      <point x="299" y="475"/>
      <point x="242" y="407"/>
      <point x="184" y="351" type="curve"/>
      <point x="211" y="287"/>
      <point x="241" y="224"/>
      <point x="281" y="157" type="curve"/>
      <point x="307" y="208"/>
      <point x="326" y="275"/>
      <point x="340" y="327" type="curve"/>
      <point x="347" y="324"/>
      <point x="377" y="312"/>
    </contour>
    <contour>
      <point x="245" y="566" type="curve" smooth="yes"/>
      <point x="245" y="599"/>
      <point x="236" y="635"/>
      <point x="201" y="635" type="curve" smooth="yes"/>
      <point x="173" y="635"/>
      <point x="145" y="591"/>
      <point x="145" y="563" type="curve" smooth="yes"/>
      <point x="145" y="510"/>
      <point x="148" y="452"/>
      <point x="165" y="409" type="curve"/>
      <point x="205" y="448"/>
      <point x="245" y="503"/>
    </contour>
    <contour>
      <point x="248" y="100" type="curve"/>
      <point x="209" y="166"/>
      <point x="169" y="238"/>
      <point x="136" y="310" type="curve"/>
      <point x="103" y="276"/>
      <point x="79" y="237"/>
      <point x="79" y="209" type="curve" smooth="yes"/>
      <point x="79" y="138"/>
      <point x="96" y="39"/>
      <point x="165" y="39" type="curve" smooth="yes"/>
      <point x="197" y="39"/>
      <point x="222" y="65"/>
    </contour>
  </outline>
</glyph>
<glyph name="quotesingle" format="1">
  <advance width="158"/>
  <unicode hex="0027"/>
  <outline>
    <contour>
      <point x="110" y="677" type="curve"/>
      <point x="110" y="660"/>
      <point x="110" y="640"/>
      <point x="109" y="602" type="curve" smooth="yes"/>
      <point x="107" y="534"/>
      <point x="99" y="472"/>
      <point x="98" y="429" type="curve"/>
      <point x="94" y="431"/>
      <point x="73" y="434"/>
      <point x="66" y="435" type="curve"/>
      <point x="61" y="476"/>
      <point x="57" y="513"/>
      <point x="49" y="566" type="curve"/>
      <point x="49" y="614"/>
      <point x="52" y="639"/>
      <point x="51" y="668" type="curve"/>
      <point x="69" y="668"/>
      <point x="91" y="672"/>
    </contour>
  </outline>
</glyph>
<glyph name="parenleft" format="1">
  <advance width="252"/>
  <unicode hex="0028"/>
  <outline>
    <contour>
      <point x="246" y="-142" type="curve"/>
      <point x="240" y="-147"/>
      <point x="212" y="-169"/>
      <point x="212" y="-169" type="curve"/>
      <point x="110" y="6"/>
      <point x="39" y="208"/>
      <point x="39" y="378" type="curve" smooth="yes"/>
      <point x="39" y="529"/>
      <point x="93" y="662"/>
      <point x="212" y="760" type="curve"/>
      <point x="216" y="755"/>
      <point x="232" y="741"/>
      <point x="236" y="737" type="curve"/>
      <point x="134" y="623"/>
      <point x="93" y="510"/>
      <point x="93" y="376" type="curve" smooth="yes"/>
      <point x="93" y="228"/>
      <point x="148" y="56"/>
    </contour>
  </outline>
</glyph>
<glyph name="parenright" format="1">
  <advance width="252"/>
  <unicode hex="0029"/>
  <outline>
    <contour>
      <point x="211" y="362" type="curve" smooth="yes"/>
      <point x="211" y="209"/>
      <point x="163" y="28"/>
      <point x="49" y="-171" type="curve"/>
      <point x="43" y="-165"/>
      <point x="17" y="-151"/>
      <point x="13" y="-148" type="curve"/>
      <point x="102" y="20"/>
      <point x="158" y="195"/>
      <point x="158" y="354" type="curve" smooth="yes"/>
      <point x="158" y="494"/>
      <point x="110" y="623"/>
      <point x="-3" y="725" type="curve"/>
      <point x="1" y="728"/>
      <point x="19" y="743"/>
      <point x="29" y="753" type="curve"/>
      <point x="142" y="669"/>
      <point x="211" y="533"/>
    </contour>
  </outline>
</glyph>
<glyph name="asterisk" format="1">
  <advance width="379"/>
  <unicode hex="002A"/>
  <outline>
    <contour>
      <point x="265" y="646" type="line"/>
      <point x="223" y="522" type="line"/>
      <point x="204" y="541" type="line"/>
      <point x="216" y="649" type="line"/>
    </contour>
    <contour>
      <point x="342" y="484" type="line"/>
      <point x="326" y="422" type="line"/>
      <point x="242" y="471" type="line"/>
      <point x="251" y="520" type="line"/>
    </contour>
    <contour>
      <point x="164" y="550" type="line"/>
      <point x="147" y="517" type="line"/>
      <point x="44" y="602" type="line"/>
      <point x="75" y="665" type="line"/>
    </contour>
    <contour>
      <point x="238" y="337" type="line"/>
      <point x="173" y="341" type="line"/>
      <point x="177" y="453" type="line"/>
      <point x="201" y="466" type="line"/>
    </contour>
    <contour>
      <point x="145" y="483" type="line"/>
      <point x="142" y="451" type="line"/>
      <point x="51" y="407" type="line"/>
      <point x="44" y="458" type="line"/>
    </contour>
  </outline>
</glyph>
<glyph name="plus" format="1">
  <advance width="330"/>
  <unicode hex="002B"/>
  <outline>
    <contour>
      <point x="309" y="338" type="curve"/>
      <point x="308" y="322"/>
      <point x="308" y="297"/>
      <point x="308" y="277" type="curve"/>
      <point x="296" y="278"/>
      <point x="258" y="280"/>
      <point x="193" y="281" type="curve"/>
      <point x="194" y="212"/>
      <point x="194" y="176"/>
      <point x="194" y="164" type="curve"/>
      <point x="177" y="164"/>
      <point x="144" y="166"/>
      <point x="135" y="163" type="curve"/>
      <point x="136" y="180"/>
      <point x="137" y="216"/>
      <point x="138" y="285" type="curve"/>
      <point x="79" y="286"/>
      <point x="25" y="279"/>
      <point x="17" y="280" type="curve"/>
      <point x="17" y="292"/>
      <point x="14" y="315"/>
      <point x="13" y="334" type="curve"/>
      <point x="27" y="333"/>
      <point x="78" y="333"/>
      <point x="141" y="333" type="curve"/>
      <point x="142" y="399"/>
      <point x="138" y="451"/>
      <point x="137" y="458" type="curve"/>
      <point x="152" y="457"/>
      <point x="183" y="454"/>
      <point x="190" y="454" type="curve"/>
      <point x="190" y="445"/>
      <point x="191" y="395"/>
      <point x="191" y="334" type="curve"/>
      <point x="256" y="335"/>
      <point x="297" y="336"/>
    </contour>
  </outline>
</glyph>
<glyph name="comma" format="1">
  <advance width="142"/>
  <unicode hex="002C"/>
  <outline>
    <contour>
      <point x="103" y="-9" type="curve" smooth="yes"/>
      <point x="103" y="-60"/>
      <point x="86" y="-107"/>
      <point x="57" y="-137" type="curve"/>
      <point x="35" y="-121" type="line"/>
      <point x="47" y="-102"/>
      <point x="56" y="-56"/>
      <point x="56" y="-13" type="curve" smooth="yes"/>
      <point x="56" y="10"/>
      <point x="53" y="33"/>
      <point x="46" y="50" type="curve"/>
      <point x="56" y="53"/>
      <point x="73" y="58"/>
      <point x="93" y="63" type="curve"/>
      <point x="100" y="39"/>
      <point x="103" y="15"/>
    </contour>
  </outline>
</glyph>
<glyph name="hyphen" format="1">
  <advance width="184"/>
  <unicode hex="002D"/>
  <unicode hex="2010"/>
  <unicode hex="2011"/>
  <outline>
    <contour>
      <point x="163" y="213" type="curve"/>
      <point x="153" y="216"/>
      <point x="48" y="217"/>
      <point x="18" y="218" type="curve"/>
      <point x="18" y="233"/>
      <point x="16" y="245"/>
      <point x="14" y="262" type="curve"/>
      <point x="38" y="259"/>
      <point x="149" y="263"/>
      <point x="163" y="266" type="curve"/>
      <point x="161" y="245"/>
      <point x="163" y="229"/>
    </contour>
  </outline>
</glyph>
<glyph name="period" format="1">
  <advance width="142"/>
  <unicode hex="002E"/>
  <outline>
    <contour>
      <point x="109" y="36" type="curve" smooth="yes"/>
      <point x="109" y="18"/>
      <point x="100" y="-7"/>
      <point x="83" y="-7" type="curve" smooth="yes"/>
      <point x="69" y="-7"/>
      <point x="31" y="16"/>
      <point x="31" y="37" type="curve" smooth="yes"/>
      <point x="31" y="67"/>
      <point x="59" y="78"/>
      <point x="79" y="78" type="curve" smooth="yes"/>
      <point x="90" y="78"/>
      <point x="109" y="55"/>
    </contour>
  </outline>
</glyph>
<glyph name="slash" format="1">
  <advance width="309"/>
  <unicode hex="002F"/>
  <outline>
    <contour>
      <point x="283" y="663" type="curve"/>
      <point x="230" y="510"/>
      <point x="128" y="168"/>
      <point x="78" y="-13" type="curve"/>
      <point x="64" y="-8"/>
      <point x="37" y="-2"/>
      <point x="26" y="0" type="curve"/>
      <point x="80" y="168"/>
      <point x="191" y="529"/>
      <point x="226" y="676" type="curve"/>
      <point x="239" y="671"/>
      <point x="270" y="667"/>
    </contour>
  </outline>
</glyph>
<glyph name="zero" format="1">
  <advance width="375"/>
  <unicode hex="0030"/>
  <outline>
    <contour>
      <point x="331" y="363" type="curve" smooth="yes"/>
      <point x="331" y="59"/>
      <point x="249" y="-10"/>
      <point x="183" y="-10" type="curve" smooth="yes"/>
      <point x="91" y="-10"/>
      <point x="41" y="111"/>
      <point x="41" y="374" type="curve" smooth="yes"/>
      <point x="41" y="560"/>
      <point x="75" y="683"/>
      <point x="190" y="683" type="curve" smooth="yes"/>
      <point x="317" y="683"/>
      <point x="331" y="542"/>
    </contour>
    <contour>
      <point x="274" y="355" type="curve" smooth="yes"/>
      <point x="274" y="538"/>
      <point x="256" y="628"/>
      <point x="181" y="628" type="curve" smooth="yes"/>
      <point x="130" y="628"/>
      <point x="97" y="547"/>
      <point x="97" y="380" type="curve" smooth="yes"/>
      <point x="97" y="165"/>
      <point x="128" y="48"/>
      <point x="189" y="48" type="curve" smooth="yes"/>
      <point x="242" y="48"/>
      <point x="274" y="183"/>
    </contour>
  </outline>
</glyph>
<glyph name="one" format="1">
  <advance width="209"/>
  <unicode hex="0031"/>
  <outline>
    <contour>
      <point x="156" y="680" type="curve"/>
      <point x="154" y="664"/>
      <point x="145" y="572"/>
      <point x="145" y="497" type="curve" smooth="yes"/>
      <point x="145" y="350"/>
      <point x="138" y="113"/>
      <point x="142" y="0" type="curve"/>
      <point x="134" y="1"/>
      <point x="91" y="3"/>
      <point x="81" y="3" type="curve"/>
      <point x="89" y="70"/>
      <point x="90" y="140"/>
      <point x="92" y="235" type="curve" smooth="yes"/>
      <point x="97" y="411"/>
      <point x="96" y="621"/>
      <point x="94" y="640" type="curve"/>
      <point x="75" y="633"/>
      <point x="19" y="630"/>
      <point x="12" y="629" type="curve"/>
      <point x="13" y="638"/>
      <point x="11" y="667"/>
      <point x="11" y="678" type="curve"/>
      <point x="25" y="678"/>
      <point x="99" y="688"/>
      <point x="120" y="691" type="curve"/>
      <point x="126" y="689"/>
      <point x="152" y="682"/>
    </contour>
  </outline>
</glyph>
<glyph name="two" format="1">
  <advance width="315"/>
  <unicode hex="0032"/>
  <outline>
    <contour>
      <point x="274" y="55" type="curve"/>
      <point x="273" y="50"/>
      <point x="267" y="8"/>
      <point x="266" y="-5" type="curve"/>
      <point x="261" y="-1"/>
      <point x="195" y="2"/>
      <point x="139" y="0" type="curve" smooth="yes"/>
      <point x="92" y="-2"/>
      <point x="51" y="-8"/>
      <point x="38" y="-11" type="curve"/>
      <point x="32" y="6"/>
      <point x="26" y="19"/>
      <point x="22" y="29" type="curve"/>
      <point x="165" y="274"/>
      <point x="190" y="411"/>
      <point x="190" y="518" type="curve" smooth="yes"/>
      <point x="190" y="611"/>
      <point x="173" y="631"/>
      <point x="117" y="631" type="curve" smooth="yes"/>
      <point x="95" y="631"/>
      <point x="69" y="620"/>
      <point x="50" y="608" type="curve"/>
      <point x="49" y="615"/>
      <point x="31" y="641"/>
      <point x="20" y="653" type="curve"/>
      <point x="37" y="665"/>
      <point x="76" y="683"/>
      <point x="132" y="683" type="curve" smooth="yes"/>
      <point x="222" y="683"/>
      <point x="248" y="646"/>
      <point x="248" y="547" type="curve" smooth="yes"/>
      <point x="248" y="429"/>
      <point x="209" y="265"/>
      <point x="96" y="48" type="curve"/>
      <point x="114" y="50"/>
      <point x="166" y="56"/>
      <point x="166" y="56" type="curve"/>
      <point x="190" y="54"/>
      <point x="247" y="55"/>
    </contour>
  </outline>
</glyph>
<glyph name="three" format="1">
  <advance width="319"/>
  <unicode hex="0033"/>
  <outline>
    <contour>
      <point x="286" y="289" type="curve" smooth="yes"/>
      <point x="286" y="126"/>
      <point x="213" y="-9"/>
      <point x="104" y="-9" type="curve" smooth="yes"/>
      <point x="85" y="-9"/>
      <point x="41" y="2"/>
      <point x="15" y="11" type="curve"/>
      <point x="17" y="18"/>
      <point x="25" y="44"/>
      <point x="29" y="62" type="curve"/>
      <point x="46" y="54"/>
      <point x="71" y="45"/>
      <point x="100" y="45" type="curve" smooth="yes"/>
      <point x="170" y="45"/>
      <point x="231" y="139"/>
      <point x="231" y="276" type="curve" smooth="yes"/>
      <point x="231" y="348"/>
      <point x="162" y="372"/>
      <point x="85" y="378" type="curve"/>
      <point x="82" y="387"/>
      <point x="74" y="406"/>
      <point x="69" y="417" type="curve"/>
      <point x="129" y="500"/>
      <point x="187" y="570"/>
      <point x="206" y="630" type="curve"/>
      <point x="183" y="630"/>
      <point x="49" y="619"/>
      <point x="30" y="615" type="curve"/>
      <point x="30" y="626"/>
      <point x="25" y="659"/>
      <point x="22" y="670" type="curve"/>
      <point x="40" y="673"/>
      <point x="182" y="681"/>
      <point x="242" y="683" type="curve"/>
      <point x="252" y="673"/>
      <point x="267" y="656"/>
      <point x="273" y="651" type="curve"/>
      <point x="244" y="569"/>
      <point x="213" y="515"/>
      <point x="139" y="423" type="curve"/>
      <point x="210" y="410"/>
      <point x="286" y="382"/>
    </contour>
  </outline>
</glyph>
<glyph name="four" format="1">
  <advance width="323"/>
  <unicode hex="0034"/>
  <outline>
    <contour>
      <point x="305" y="152" type="curve"/>
      <point x="290" y="154"/>
      <point x="274" y="154"/>
      <point x="261" y="154" type="curve"/>
      <point x="259" y="114"/>
      <point x="255" y="54"/>
      <point x="258" y="-11" type="curve"/>
      <point x="251" y="-10"/>
      <point x="205" y="-6"/>
      <point x="196" y="-6" type="curve"/>
      <point x="199" y="15"/>
      <point x="204" y="134"/>
      <point x="202" y="154" type="curve"/>
      <point x="21" y="157" type="line"/>
      <point x="15" y="175"/>
      <point x="7" y="188"/>
      <point x="3" y="202" type="curve"/>
      <point x="25" y="255"/>
      <point x="114" y="541"/>
      <point x="161" y="690" type="curve"/>
      <point x="171" y="687"/>
      <point x="199" y="678"/>
      <point x="209" y="677" type="curve"/>
      <point x="165" y="515"/>
      <point x="90" y="268"/>
      <point x="61" y="205" type="curve"/>
      <point x="85" y="205"/>
      <point x="188" y="202"/>
      <point x="203" y="202" type="curve"/>
      <point x="200" y="225"/>
      <point x="198" y="291"/>
      <point x="200" y="312" type="curve" smooth="yes"/>
      <point x="203" y="355"/>
      <point x="208" y="463"/>
      <point x="215" y="506" type="curve"/>
      <point x="215" y="506"/>
      <point x="246" y="508"/>
      <point x="254" y="511" type="curve"/>
      <point x="254" y="476"/>
      <point x="256" y="419"/>
      <point x="256" y="366" type="curve" smooth="yes"/>
      <point x="256" y="331"/>
      <point x="256" y="233"/>
      <point x="253" y="205" type="curve"/>
      <point x="266" y="205"/>
      <point x="288" y="204"/>
      <point x="304" y="205" type="curve"/>
      <point x="304" y="196"/>
      <point x="303" y="169"/>
    </contour>
  </outline>
</glyph>
<glyph name="five" format="1">
  <advance width="291"/>
  <unicode hex="0035"/>
  <outline>
    <contour>
      <point x="254" y="228" type="curve" smooth="yes"/>
      <point x="254" y="94"/>
      <point x="189" y="31"/>
      <point x="60" y="-24" type="curve"/>
      <point x="57" y="-19"/>
      <point x="45" y="12"/>
      <point x="37" y="23" type="curve"/>
      <point x="142" y="69"/>
      <point x="197" y="124"/>
      <point x="197" y="211" type="curve" smooth="yes"/>
      <point x="197" y="319"/>
      <point x="142" y="379"/>
      <point x="35" y="391" type="curve"/>
      <point x="38" y="443"/>
      <point x="41" y="494"/>
      <point x="44" y="566" type="curve" smooth="yes"/>
      <point x="46" y="619"/>
      <point x="47" y="667"/>
      <point x="47" y="690" type="curve"/>
      <point x="78" y="686"/>
      <point x="205" y="681"/>
      <point x="245" y="681" type="curve"/>
      <point x="243" y="670"/>
      <point x="240" y="643"/>
      <point x="240" y="622" type="curve"/>
      <point x="204" y="626"/>
      <point x="133" y="633"/>
      <point x="100" y="635" type="curve"/>
      <point x="100" y="590"/>
      <point x="94" y="485"/>
      <point x="89" y="439" type="curve"/>
      <point x="191" y="417"/>
      <point x="254" y="349"/>
    </contour>
  </outline>
</glyph>
<glyph name="six" format="1">
  <advance width="337"/>
  <unicode hex="0036"/>
  <outline>
    <contour>
      <point x="311" y="226" type="curve" smooth="yes"/>
      <point x="311" y="91"/>
      <point x="230" y="-9"/>
      <point x="157" y="-9" type="curve" smooth="yes"/>
      <point x="72" y="-9"/>
      <point x="26" y="60"/>
      <point x="26" y="311" type="curve" smooth="yes"/>
      <point x="26" y="437"/>
      <point x="109" y="605"/>
      <point x="195" y="691" type="curve"/>
      <point x="206" y="681"/>
      <point x="228" y="668"/>
      <point x="241" y="660" type="curve"/>
      <point x="159" y="579"/>
      <point x="96" y="449"/>
      <point x="85" y="353" type="curve"/>
      <point x="113" y="375"/>
      <point x="166" y="407"/>
      <point x="218" y="407" type="curve" smooth="yes"/>
      <point x="278" y="407"/>
      <point x="311" y="351"/>
    </contour>
    <contour>
      <point x="255" y="228" type="curve" smooth="yes"/>
      <point x="255" y="319"/>
      <point x="234" y="347"/>
      <point x="197" y="347" type="curve" smooth="yes"/>
      <point x="156" y="347"/>
      <point x="111" y="320"/>
      <point x="84" y="296" type="curve"/>
      <point x="84" y="95"/>
      <point x="111" y="48"/>
      <point x="170" y="48" type="curve" smooth="yes"/>
      <point x="202" y="48"/>
      <point x="255" y="124"/>
    </contour>
  </outline>
</glyph>
<glyph name="seven" format="1">
  <advance width="292"/>
  <unicode hex="0037"/>
  <outline>
    <contour>
      <point x="263" y="668" type="curve"/>
      <point x="236" y="581"/>
      <point x="121" y="80"/>
      <point x="112" y="-14" type="curve"/>
      <point x="103" y="-12"/>
      <point x="62" y="-5"/>
      <point x="52" y="-3" type="curve"/>
      <point x="62" y="87"/>
      <point x="186" y="580"/>
      <point x="201" y="616" type="curve"/>
      <point x="179" y="615"/>
      <point x="49" y="626"/>
      <point x="12" y="624" type="curve"/>
      <point x="12" y="643"/>
      <point x="15" y="661"/>
      <point x="13" y="681" type="curve"/>
      <point x="47" y="678"/>
      <point x="208" y="663"/>
    </contour>
  </outline>
</glyph>
<glyph name="eight" format="1">
  <advance width="339"/>
  <unicode hex="0038"/>
  <outline>
    <contour>
      <point x="310" y="234" type="curve" smooth="yes"/>
      <point x="310" y="112"/>
      <point x="244" y="-9"/>
      <point x="160" y="-9" type="curve" smooth="yes"/>
      <point x="81" y="-9"/>
      <point x="29" y="78"/>
      <point x="29" y="198" type="curve" smooth="yes"/>
      <point x="29" y="261"/>
      <point x="61" y="318"/>
      <point x="107" y="362" type="curve"/>
      <point x="66" y="398"/>
      <point x="33" y="446"/>
      <point x="33" y="516" type="curve" smooth="yes"/>
      <point x="33" y="654"/>
      <point x="129" y="684"/>
      <point x="169" y="684" type="curve" smooth="yes"/>
      <point x="239" y="684"/>
      <point x="304" y="641"/>
      <point x="304" y="513" type="curve" smooth="yes"/>
      <point x="304" y="449"/>
      <point x="262" y="386"/>
      <point x="224" y="350" type="curve"/>
      <point x="270" y="322"/>
      <point x="310" y="287"/>
    </contour>
    <contour>
      <point x="246" y="495" type="curve" smooth="yes"/>
      <point x="246" y="588"/>
      <point x="225" y="633"/>
      <point x="163" y="633" type="curve" smooth="yes"/>
      <point x="138" y="633"/>
      <point x="91" y="611"/>
      <point x="91" y="520" type="curve" smooth="yes"/>
      <point x="91" y="453"/>
      <point x="126" y="415"/>
      <point x="180" y="379" type="curve"/>
      <point x="214" y="410"/>
      <point x="246" y="457"/>
    </contour>
    <contour>
      <point x="254" y="220" type="curve" smooth="yes"/>
      <point x="254" y="263"/>
      <point x="231" y="282"/>
      <point x="147" y="328" type="curve"/>
      <point x="112" y="297"/>
      <point x="89" y="248"/>
      <point x="89" y="207" type="curve" smooth="yes"/>
      <point x="89" y="62"/>
      <point x="129" y="47"/>
      <point x="165" y="47" type="curve" smooth="yes"/>
      <point x="192" y="47"/>
      <point x="254" y="95"/>
    </contour>
  </outline>
</glyph>
<glyph name="nine" format="1">
  <advance width="317"/>
  <unicode hex="0039"/>
  <outline>
    <contour>
      <point x="283" y="466" type="curve" smooth="yes"/>
      <point x="283" y="213"/>
      <point x="194" y="69"/>
      <point x="126" y="-25" type="curve"/>
      <point x="113" y="-16"/>
      <point x="87" y="3"/>
      <point x="78" y="9" type="curve"/>
      <point x="127" y="70"/>
      <point x="174" y="145"/>
      <point x="201" y="242" type="curve"/>
      <point x="51" y="296"/>
      <point x="18" y="387"/>
      <point x="18" y="483" type="curve" smooth="yes"/>
      <point x="18" y="608"/>
      <point x="85" y="683"/>
      <point x="160" y="683" type="curve" smooth="yes"/>
      <point x="246" y="683"/>
      <point x="283" y="606"/>
    </contour>
    <contour>
      <point x="228" y="457" type="curve" smooth="yes"/>
      <point x="228" y="580"/>
      <point x="204" y="625"/>
      <point x="152" y="625" type="curve" smooth="yes"/>
      <point x="105" y="625"/>
      <point x="75" y="576"/>
      <point x="75" y="480" type="curve" smooth="yes"/>
      <point x="75" y="394"/>
      <point x="110" y="340"/>
      <point x="213" y="301" type="curve"/>
      <point x="224" y="343"/>
      <point x="228" y="397"/>
    </contour>
  </outline>
</glyph>
<glyph name="colon" format="1">
  <advance width="142"/>
  <unicode hex="003A"/>
  <outline>
    <contour>
      <point x="111" y="418" type="curve" smooth="yes"/>
      <point x="111" y="396"/>
      <point x="98" y="376"/>
      <point x="75" y="376" type="curve" smooth="yes"/>
      <point x="53" y="376"/>
      <point x="33" y="394"/>
      <point x="33" y="418" type="curve" smooth="yes"/>
      <point x="33" y="445"/>
      <point x="51" y="459"/>
      <point x="74" y="459" type="curve" smooth="yes"/>
      <point x="95" y="459"/>
      <point x="111" y="442"/>
    </contour>
    <contour>
      <point x="111" y="36" type="curve" smooth="yes"/>
      <point x="111" y="14"/>
      <point x="98" y="-6"/>
      <point x="75" y="-6" type="curve" smooth="yes"/>
      <point x="53" y="-6"/>
      <point x="33" y="11"/>
      <point x="33" y="37" type="curve" smooth="yes"/>
      <point x="33" y="62"/>
      <point x="51" y="77"/>
      <point x="74" y="77" type="curve" smooth="yes"/>
      <point x="95" y="77"/>
      <point x="111" y="60"/>
    </contour>
  </outline>
</glyph>
<glyph name="semicolon" format="1">
  <advance width="142"/>
  <unicode hex="003B"/>
  <outline>
    <contour>
      <point x="109" y="419" type="curve" smooth="yes"/>
      <point x="109" y="397"/>
      <point x="96" y="377"/>
      <point x="73" y="377" type="curve" smooth="yes"/>
      <point x="50" y="377"/>
      <point x="31" y="395"/>
      <point x="31" y="419" type="curve" smooth="yes"/>
      <point x="31" y="445"/>
      <point x="49" y="459"/>
      <point x="72" y="459" type="curve" smooth="yes"/>
      <point x="93" y="459"/>
      <point x="109" y="442"/>
    </contour>
    <contour>
      <point x="103" y="-9" type="curve" smooth="yes"/>
      <point x="103" y="-60"/>
      <point x="86" y="-107"/>
      <point x="57" y="-137" type="curve"/>
      <point x="35" y="-121" type="line"/>
      <point x="47" y="-102"/>
      <point x="56" y="-56"/>
      <point x="56" y="-13" type="curve" smooth="yes"/>
      <point x="56" y="10"/>
      <point x="53" y="33"/>
      <point x="46" y="50" type="curve"/>
      <point x="56" y="53"/>
      <point x="73" y="58"/>
      <point x="93" y="63" type="curve"/>
      <point x="100" y="39"/>
      <point x="103" y="15"/>
    </contour>
  </outline>
</glyph>
<glyph name="less" format="1">
  <advance width="242"/>
  <unicode hex="003C"/>
  <outline>
    <contour>
      <point x="214" y="118" type="curve"/>
      <point x="210" y="114"/>
      <point x="176" y="90"/>
      <point x="169" y="83" type="curve"/>
      <point x="156" y="108"/>
      <point x="41" y="271"/>
      <point x="24" y="290" type="curve"/>
      <point x="24" y="349" type="line"/>
      <point x="55" y="393"/>
      <point x="143" y="535"/>
      <point x="148" y="546" type="curve"/>
      <point x="153" y="543"/>
      <point x="191" y="522"/>
      <point x="196" y="518" type="curve"/>
      <point x="185" y="499"/>
      <point x="87" y="354"/>
      <point x="69" y="318" type="curve"/>
      <point x="86" y="289"/>
      <point x="206" y="131"/>
    </contour>
  </outline>
</glyph>
<glyph name="equal" format="1">
  <advance width="272"/>
  <unicode hex="003D"/>
  <outline>
    <contour>
      <point x="253" y="409" type="curve"/>
      <point x="252" y="389"/>
      <point x="249" y="376"/>
      <point x="249" y="364" type="curve"/>
      <point x="219" y="363"/>
      <point x="24" y="362"/>
      <point x="14" y="360" type="curve"/>
      <point x="14" y="381"/>
      <point x="16" y="398"/>
      <point x="14" y="413" type="curve"/>
      <point x="28" y="411"/>
      <point x="229" y="407"/>
    </contour>
    <contour>
      <point x="250" y="216" type="curve"/>
      <point x="241" y="218"/>
      <point x="46" y="219"/>
      <point x="15" y="220" type="curve"/>
      <point x="15" y="232"/>
      <point x="12" y="246"/>
      <point x="11" y="266" type="curve"/>
      <point x="36" y="263"/>
      <point x="236" y="267"/>
      <point x="250" y="269" type="curve"/>
      <point x="248" y="254"/>
      <point x="250" y="238"/>
    </contour>
  </outline>
</glyph>
<glyph name="greater" format="1">
  <advance width="242"/>
  <unicode hex="003E"/>
  <outline>
    <contour>
      <point x="220" y="283" type="line"/>
      <point x="188" y="239"/>
      <point x="100" y="97"/>
      <point x="95" y="86" type="curve"/>
      <point x="90" y="90"/>
      <point x="52" y="110"/>
      <point x="47" y="114" type="curve"/>
      <point x="59" y="134"/>
      <point x="157" y="276"/>
      <point x="174" y="315" type="curve"/>
      <point x="157" y="345"/>
      <point x="39" y="500"/>
      <point x="30" y="514" type="curve"/>
      <point x="34" y="518"/>
      <point x="71" y="544"/>
      <point x="74" y="549" type="curve"/>
      <point x="88" y="525"/>
      <point x="203" y="361"/>
      <point x="220" y="342" type="curve"/>
    </contour>
  </outline>
</glyph>
<glyph name="question" format="1">
  <advance width="220"/>
  <unicode hex="003F"/>
  <outline>
    <contour>
      <point x="197" y="519" type="curve" smooth="yes"/>
      <point x="197" y="452"/>
      <point x="165" y="359"/>
      <point x="104" y="225" type="curve"/>
      <point x="132" y="153" type="line"/>
      <point x="91" y="125" type="line"/>
      <point x="51" y="237" type="line"/>
      <point x="109" y="347"/>
      <point x="140" y="432"/>
      <point x="140" y="495" type="curve" smooth="yes"/>
      <point x="140" y="561"/>
      <point x="103" y="593"/>
      <point x="28" y="613" type="curve"/>
      <point x="32" y="624"/>
      <point x="43" y="659"/>
      <point x="45" y="669" type="curve"/>
      <point x="148" y="639"/>
      <point x="197" y="592"/>
    </contour>
    <contour>
      <point x="143" y="35" type="curve" smooth="yes"/>
      <point x="143" y="14"/>
      <point x="132" y="-6"/>
      <point x="108" y="-6" type="curve" smooth="yes"/>
      <point x="86" y="-6"/>
      <point x="66" y="11"/>
      <point x="66" y="36" type="curve" smooth="yes"/>
      <point x="66" y="60"/>
      <point x="84" y="76"/>
      <point x="106" y="76" type="curve" smooth="yes"/>
      <point x="128" y="76"/>
      <point x="143" y="58"/>
    </contour>
  </outline>
</glyph>
<glyph name="at" format="1">
  <advance width="559"/>
  <unicode hex="0040"/>
  <outline>
    <contour>
      <point x="525" y="322" type="curve" smooth="yes"/>
      <point x="525" y="135"/>
      <point x="435" y="124"/>
      <point x="424" y="124" type="curve" smooth="yes"/>
      <point x="373" y="124"/>
      <point x="329" y="144"/>
      <point x="318" y="217" type="curve"/>
      <point x="303" y="200"/>
      <point x="273" y="174"/>
      <point x="238" y="174" type="curve" smooth="yes"/>
      <point x="217" y="174"/>
      <point x="185" y="211"/>
      <point x="185" y="265" type="curve" smooth="yes"/>
      <point x="185" y="285"/>
      <point x="195" y="330"/>
      <point x="223" y="346" type="curve" smooth="yes"/>
      <point x="256" y="365"/>
      <point x="307" y="380"/>
      <point x="323" y="387" type="curve"/>
      <point x="324" y="426"/>
      <point x="320" y="442"/>
      <point x="306" y="449" type="curve" smooth="yes"/>
      <point x="289" y="457"/>
      <point x="260" y="465"/>
      <point x="245" y="465" type="curve"/>
      <point x="245" y="465"/>
      <point x="246" y="496"/>
      <point x="246" y="501" type="curve"/>
      <point x="265" y="498"/>
      <point x="320" y="487"/>
      <point x="337" y="475" type="curve" smooth="yes"/>
      <point x="353" y="465"/>
      <point x="360" y="432"/>
      <point x="360" y="416" type="curve" smooth="yes"/>
      <point x="360" y="412"/>
      <point x="360" y="311"/>
      <point x="360" y="241" type="curve" smooth="yes"/>
      <point x="360" y="188"/>
      <point x="378" y="164"/>
      <point x="417" y="164" type="curve" smooth="yes"/>
      <point x="439" y="164"/>
      <point x="485" y="179"/>
      <point x="485" y="324" type="curve" smooth="yes"/>
      <point x="485" y="471"/>
      <point x="387" y="630"/>
      <point x="281" y="630" type="curve" smooth="yes"/>
      <point x="161" y="630"/>
      <point x="76" y="505"/>
      <point x="76" y="357" type="curve" smooth="yes"/>
      <point x="76" y="221"/>
      <point x="149" y="25"/>
      <point x="267" y="25" type="curve" smooth="yes"/>
      <point x="315" y="25"/>
      <point x="355" y="41"/>
      <point x="370" y="53" type="curve"/>
      <point x="387" y="20" type="line"/>
      <point x="370" y="8"/>
      <point x="314" y="-15"/>
      <point x="254" y="-15" type="curve" smooth="yes"/>
      <point x="124" y="-15"/>
      <point x="34" y="196"/>
      <point x="34" y="350" type="curve" smooth="yes"/>
      <point x="34" y="495"/>
      <point x="121" y="670"/>
      <point x="270" y="670" type="curve" smooth="yes"/>
      <point x="411" y="670"/>
      <point x="525" y="502"/>
    </contour>
    <contour>
      <point x="324" y="347" type="curve"/>
      <point x="312" y="342"/>
      <point x="276" y="329"/>
      <point x="259" y="322" type="curve" smooth="yes"/>
      <point x="242" y="315"/>
      <point x="226" y="300"/>
      <point x="226" y="276" type="curve" smooth="yes"/>
      <point x="225" y="233"/>
      <point x="233" y="218"/>
      <point x="254" y="218" type="curve" smooth="yes"/>
      <point x="280" y="218"/>
      <point x="317" y="259"/>
      <point x="319" y="263" type="curve"/>
      <point x="321" y="270"/>
      <point x="323" y="330"/>
    </contour>
  </outline>
</glyph>
<glyph name="A" format="1">
  <advance width="327"/>
  <unicode hex="0041"/>
  <outline>
    <contour>
      <point x="311" y="-9" type="curve"/>
      <point x="300" y="-11"/>
      <point x="267" y="-21"/>
      <point x="260" y="-24" type="curve"/>
      <point x="259" y="-18"/>
      <point x="243" y="51"/>
      <point x="236" y="93" type="curve" smooth="yes"/>
      <point x="233" y="110"/>
      <point x="230" y="128"/>
      <point x="228" y="139" type="curve"/>
      <point x="211" y="140"/>
      <point x="105" y="132"/>
      <point x="92" y="131" type="curve"/>
      <point x="90" y="117"/>
      <point x="66" y="-9"/>
      <point x="65" y="-20" type="curve"/>
      <point x="53" y="-13"/>
      <point x="22" y="-2"/>
      <point x="17" y="1" type="curve"/>
      <point x="21" y="21"/>
      <point x="73" y="346"/>
      <point x="105" y="576" type="curve" smooth="yes"/>
      <point x="110" y="614"/>
      <point x="117" y="656"/>
      <point x="118" y="664" type="curve"/>
      <point x="130" y="664"/>
      <point x="162" y="667"/>
      <point x="174" y="669" type="curve"/>
      <point x="177" y="654"/>
      <point x="307" y="11"/>
    </contour>
    <contour>
      <point x="218" y="193" type="curve"/>
      <point x="204" y="256"/>
      <point x="159" y="497"/>
      <point x="148" y="543" type="curve"/>
      <point x="142" y="494"/>
      <point x="103" y="216"/>
      <point x="98" y="181" type="curve"/>
      <point x="124" y="186"/>
      <point x="197" y="188"/>
    </contour>
  </outline>
</glyph>
<glyph name="B" format="1">
  <advance width="339"/>
  <unicode hex="0042"/>
  <outline>
    <contour>
      <point x="319" y="214" type="curve" smooth="yes"/>
      <point x="319" y="116"/>
      <point x="240" y="6"/>
      <point x="135" y="6" type="curve" smooth="yes"/>
      <point x="117" y="6"/>
      <point x="62" y="11"/>
      <point x="51" y="11" type="curve"/>
      <point x="56" y="69"/>
      <point x="52" y="346"/>
      <point x="52" y="381" type="curve" smooth="yes"/>
      <point x="52" y="428"/>
      <point x="52" y="480"/>
      <point x="50" y="534" type="curve" smooth="yes"/>
      <point x="48" y="591"/>
      <point x="48" y="662"/>
      <point x="48" y="667" type="curve"/>
      <point x="56" y="668"/>
      <point x="74" y="669"/>
      <point x="99" y="669" type="curve" smooth="yes"/>
      <point x="204" y="669"/>
      <point x="301" y="600"/>
      <point x="301" y="506" type="curve" smooth="yes"/>
      <point x="301" y="419"/>
      <point x="255" y="372"/>
      <point x="210" y="351" type="curve"/>
      <point x="264" y="329"/>
      <point x="319" y="287"/>
    </contour>
    <contour>
      <point x="245" y="489" type="curve" smooth="yes"/>
      <point x="245" y="560"/>
      <point x="193" y="613"/>
      <point x="108" y="613" type="curve"/>
      <point x="108" y="584"/>
      <point x="103" y="413"/>
      <point x="103" y="376" type="curve"/>
      <point x="111" y="374"/>
      <point x="123" y="373"/>
      <point x="129" y="373" type="curve" smooth="yes"/>
      <point x="184" y="373"/>
      <point x="245" y="411"/>
    </contour>
    <contour>
      <point x="259" y="199" type="curve" smooth="yes"/>
      <point x="259" y="274"/>
      <point x="202" y="325"/>
      <point x="117" y="325" type="curve" smooth="yes"/>
      <point x="114" y="325"/>
      <point x="108" y="325"/>
      <point x="105" y="325" type="curve"/>
      <point x="104" y="299"/>
      <point x="106" y="241"/>
      <point x="106" y="196" type="curve" smooth="yes"/>
      <point x="106" y="159"/>
      <point x="105" y="117"/>
      <point x="105" y="64" type="curve"/>
      <point x="120" y="61"/>
      <point x="137" y="61"/>
      <point x="146" y="61" type="curve" smooth="yes"/>
      <point x="200" y="61"/>
      <point x="259" y="122"/>
    </contour>
  </outline>
</glyph>
<glyph name="C" format="1">
  <advance width="342"/>
  <unicode hex="0043"/>
  <outline>
    <contour>
      <point x="321" y="47" type="curve"/>
      <point x="319" y="41"/>
      <point x="316" y="16"/>
      <point x="316" y="-7" type="curve"/>
      <point x="81" y="22"/>
      <point x="37" y="136"/>
      <point x="37" y="344" type="curve" smooth="yes"/>
      <point x="37" y="511"/>
      <point x="109" y="671"/>
      <point x="257" y="671" type="curve" smooth="yes"/>
      <point x="275" y="671"/>
      <point x="296" y="671"/>
      <point x="314" y="670" type="curve"/>
      <point x="313" y="662"/>
      <point x="313" y="640"/>
      <point x="316" y="623" type="curve"/>
      <point x="309" y="624"/>
      <point x="303" y="624"/>
      <point x="296" y="624" type="curve" smooth="yes"/>
      <point x="188" y="624"/>
      <point x="96" y="561"/>
      <point x="96" y="341" type="curve" smooth="yes"/>
      <point x="96" y="147"/>
      <point x="143" y="63"/>
    </contour>
  </outline>
</glyph>
<glyph name="D" format="1">
  <advance width="405"/>
  <unicode hex="0044"/>
  <outline>
    <contour>
      <point x="368" y="385" type="curve" smooth="yes"/>
      <point x="368" y="145"/>
      <point x="258" y="-2"/>
      <point x="136" y="-2" type="curve" smooth="yes"/>
      <point x="99" y="-2"/>
      <point x="66" y="11"/>
      <point x="54" y="14" type="curve"/>
      <point x="58" y="38"/>
      <point x="59" y="339"/>
      <point x="59" y="399" type="curve" smooth="yes"/>
      <point x="59" y="509"/>
      <point x="56" y="643"/>
      <point x="54" y="669" type="curve"/>
      <point x="69" y="675"/>
      <point x="103" y="675"/>
      <point x="129" y="675" type="curve" smooth="yes"/>
      <point x="277" y="675"/>
      <point x="368" y="596"/>
    </contour>
    <contour>
      <point x="309" y="380" type="curve" smooth="yes"/>
      <point x="309" y="599"/>
      <point x="224" y="621"/>
      <point x="112" y="622" type="curve"/>
      <point x="112" y="442"/>
      <point x="110" y="190"/>
      <point x="114" y="58" type="curve"/>
      <point x="125" y="55"/>
      <point x="138" y="53"/>
      <point x="148" y="53" type="curve" smooth="yes"/>
      <point x="249" y="53"/>
      <point x="309" y="212"/>
    </contour>
  </outline>
</glyph>
<glyph name="E" format="1">
  <advance width="339"/>
  <unicode hex="0045"/>
  <outline>
    <contour>
      <point x="311" y="45" type="curve"/>
      <point x="307" y="28"/>
      <point x="305" y="9"/>
      <point x="303" y="-6" type="curve"/>
      <point x="294" y="-6"/>
      <point x="251" y="-5"/>
      <point x="210" y="-3" type="curve" smooth="yes"/>
      <point x="143" y="-1"/>
      <point x="70" y="2"/>
      <point x="49" y="3" type="curve"/>
      <point x="50" y="33"/>
      <point x="58" y="177"/>
      <point x="60" y="296" type="curve" smooth="yes"/>
      <point x="63" y="444"/>
      <point x="59" y="620"/>
      <point x="58" y="661" type="curve"/>
      <point x="68" y="663"/>
      <point x="131" y="666"/>
      <point x="154" y="666" type="curve" smooth="yes"/>
      <point x="187" y="666"/>
      <point x="289" y="662"/>
      <point x="303" y="662" type="curve"/>
      <point x="303" y="653"/>
      <point x="298" y="621"/>
      <point x="297" y="607" type="curve"/>
      <point x="285" y="610"/>
      <point x="224" y="615"/>
      <point x="187" y="618" type="curve" smooth="yes"/>
      <point x="165" y="620"/>
      <point x="131" y="619"/>
      <point x="118" y="618" type="curve"/>
      <point x="115" y="535"/>
      <point x="117" y="465"/>
      <point x="117" y="385" type="curve"/>
      <point x="133" y="384"/>
      <point x="156" y="382"/>
      <point x="177" y="382" type="curve"/>
      <point x="192" y="384"/>
      <point x="268" y="390"/>
      <point x="279" y="391" type="curve"/>
      <point x="279" y="382"/>
      <point x="277" y="347"/>
      <point x="277" y="333" type="curve"/>
      <point x="260" y="335"/>
      <point x="204" y="333"/>
      <point x="187" y="333" type="curve" smooth="yes"/>
      <point x="169" y="332"/>
      <point x="128" y="334"/>
      <point x="119" y="335" type="curve"/>
      <point x="114" y="266"/>
      <point x="119" y="130"/>
      <point x="118" y="56" type="curve"/>
      <point x="137" y="51"/>
      <point x="175" y="50"/>
      <point x="186" y="50" type="curve" smooth="yes"/>
      <point x="195" y="50"/>
      <point x="297" y="45"/>
    </contour>
  </outline>
</glyph>
<glyph name="F" format="1">
  <advance width="289"/>
  <unicode hex="0046"/>
  <outline>
    <contour>
      <point x="258" y="607" type="curve"/>
      <point x="226" y="607"/>
      <point x="142" y="611"/>
      <point x="109" y="610" type="curve"/>
      <point x="109" y="593"/>
      <point x="113" y="551"/>
      <point x="113" y="514" type="curve" smooth="yes"/>
      <point x="113" y="457"/>
      <point x="113" y="392"/>
      <point x="113" y="359" type="curve"/>
      <point x="134" y="357"/>
      <point x="185" y="359"/>
      <point x="215" y="359" type="curve" smooth="yes"/>
      <point x="234" y="359"/>
      <point x="249" y="358"/>
      <point x="249" y="358" type="curve"/>
      <point x="249" y="358"/>
      <point x="244" y="319"/>
      <point x="243" y="304" type="curve"/>
      <point x="237" y="304"/>
      <point x="228" y="304"/>
      <point x="211" y="305" type="curve" smooth="yes"/>
      <point x="180" y="308"/>
      <point x="145" y="308"/>
      <point x="116" y="312" type="curve"/>
      <point x="116" y="284"/>
      <point x="115" y="256"/>
      <point x="115" y="213" type="curve" smooth="yes"/>
      <point x="115" y="123"/>
      <point x="111" y="44"/>
      <point x="112" y="-1" type="curve"/>
      <point x="101" y="0"/>
      <point x="65" y="8"/>
      <point x="51" y="10" type="curve"/>
      <point x="54" y="93"/>
      <point x="60" y="300"/>
      <point x="60" y="494" type="curve" smooth="yes"/>
      <point x="60" y="564"/>
      <point x="58" y="594"/>
      <point x="56" y="663" type="curve"/>
      <point x="98" y="663"/>
      <point x="233" y="662"/>
      <point x="258" y="663" type="curve"/>
      <point x="258" y="654"/>
      <point x="257" y="624"/>
    </contour>
  </outline>
</glyph>
<glyph name="G" format="1">
  <advance width="387"/>
  <unicode hex="0047"/>
  <outline>
    <contour>
      <point x="344" y="603" type="curve"/>
      <point x="252" y="604"/>
      <point x="93" y="604"/>
      <point x="93" y="340" type="curve" smooth="yes"/>
      <point x="93" y="177"/>
      <point x="144" y="47"/>
      <point x="252" y="47" type="curve" smooth="yes"/>
      <point x="264" y="47"/>
      <point x="276" y="49"/>
      <point x="283" y="52" type="curve"/>
      <point x="281" y="145"/>
      <point x="284" y="285"/>
      <point x="281" y="308" type="curve"/>
      <point x="261" y="310"/>
      <point x="214" y="314"/>
      <point x="198" y="315" type="curve"/>
      <point x="200" y="333"/>
      <point x="202" y="359"/>
      <point x="201" y="369" type="curve"/>
      <point x="224" y="369"/>
      <point x="315" y="358"/>
      <point x="343" y="356" type="curve"/>
      <point x="342" y="323"/>
      <point x="333" y="139"/>
      <point x="333" y="18" type="curve"/>
      <point x="317" y="7"/>
      <point x="283" y="-6"/>
      <point x="245" y="-6" type="curve" smooth="yes"/>
      <point x="125" y="-6"/>
      <point x="37" y="118"/>
      <point x="37" y="341" type="curve" smooth="yes"/>
      <point x="37" y="620"/>
      <point x="188" y="648"/>
      <point x="333" y="660" type="curve"/>
      <point x="335" y="645"/>
      <point x="339" y="623"/>
    </contour>
  </outline>
</glyph>
<glyph name="H" format="1">
  <advance width="394"/>
  <unicode hex="0048"/>
  <outline>
    <contour>
      <point x="336" y="15" type="line"/>
      <point x="327" y="15"/>
      <point x="283" y="15"/>
      <point x="276" y="14" type="curve"/>
      <point x="278" y="21"/>
      <point x="278" y="58"/>
      <point x="279" y="96" type="curve" smooth="yes"/>
      <point x="282" y="171"/>
      <point x="283" y="235"/>
      <point x="282" y="289" type="curve"/>
      <point x="272" y="289"/>
      <point x="132" y="290"/>
      <point x="114" y="292" type="curve"/>
      <point x="114" y="285"/>
      <point x="115" y="64"/>
      <point x="112" y="-13" type="curve"/>
      <point x="104" y="-11"/>
      <point x="65" y="-1"/>
      <point x="51" y="3" type="curve"/>
      <point x="54" y="47"/>
      <point x="58" y="129"/>
      <point x="58" y="183" type="curve" smooth="yes"/>
      <point x="58" y="329"/>
      <point x="59" y="457"/>
      <point x="56" y="558" type="curve" smooth="yes"/>
      <point x="54" y="606"/>
      <point x="54" y="654"/>
      <point x="53" y="666" type="curve"/>
      <point x="61" y="665"/>
      <point x="111" y="666"/>
      <point x="120" y="666" type="curve"/>
      <point x="119" y="658"/>
      <point x="114" y="386"/>
      <point x="116" y="338" type="curve"/>
      <point x="129" y="335"/>
      <point x="274" y="339"/>
      <point x="282" y="342" type="curve"/>
      <point x="282" y="348"/>
      <point x="283" y="387"/>
      <point x="282" y="397" type="curve" smooth="yes"/>
      <point x="276" y="441"/>
      <point x="280" y="589"/>
      <point x="280" y="607" type="curve" smooth="yes"/>
      <point x="280" y="628"/>
      <point x="278" y="651"/>
      <point x="277" y="657" type="curve"/>
      <point x="283" y="658"/>
      <point x="324" y="659"/>
      <point x="336" y="661" type="curve"/>
    </contour>
  </outline>
</glyph>
<glyph name="I" format="1">
  <advance width="173"/>
  <unicode hex="0049"/>
  <outline>
    <contour>
      <point x="120" y="664" type="curve"/>
      <point x="118" y="610"/>
      <point x="109" y="224"/>
      <point x="111" y="-15" type="curve"/>
      <point x="97" y="-12"/>
      <point x="69" y="-11"/>
      <point x="60" y="-11" type="curve"/>
      <point x="59" y="78"/>
      <point x="59" y="509"/>
      <point x="55" y="672" type="curve"/>
      <point x="67" y="669"/>
      <point x="102" y="664"/>
    </contour>
  </outline>
</glyph>
<glyph name="J" format="1">
  <advance width="170"/>
  <unicode hex="004A"/>
  <outline>
    <contour>
      <point x="114" y="113" type="curve" smooth="yes"/>
      <point x="114" y="-70"/>
      <point x="94" y="-137"/>
      <point x="-4" y="-185" type="curve"/>
      <point x="-5" y="-177"/>
      <point x="-18" y="-139"/>
      <point x="-22" y="-132" type="curve"/>
      <point x="49" y="-100"/>
      <point x="62" y="-34"/>
      <point x="62" y="115" type="curve" smooth="yes"/>
      <point x="62" y="198"/>
      <point x="62" y="264"/>
      <point x="60" y="359" type="curve" smooth="yes"/>
      <point x="58" y="487"/>
      <point x="52" y="637"/>
      <point x="51" y="674" type="curve"/>
      <point x="60" y="671"/>
      <point x="97" y="667"/>
      <point x="109" y="666" type="curve"/>
      <point x="108" y="636"/>
      <point x="113" y="508"/>
      <point x="113" y="408" type="curve" smooth="yes"/>
      <point x="113" y="238"/>
      <point x="114" y="162"/>
    </contour>
  </outline>
</glyph>
<glyph name="K" format="1">
  <advance width="390"/>
  <unicode hex="004B"/>
  <outline>
    <contour>
      <point x="367" y="29" type="curve"/>
      <point x="355" y="20"/>
      <point x="328" y="4"/>
      <point x="314" y="-7" type="curve"/>
      <point x="288" y="60"/>
      <point x="211" y="257"/>
      <point x="164" y="359" type="curve"/>
      <point x="142" y="326"/>
      <point x="128" y="308"/>
      <point x="112" y="280" type="curve"/>
      <point x="112" y="178"/>
      <point x="115" y="52"/>
      <point x="116" y="-2" type="curve"/>
      <point x="104" y="-3"/>
      <point x="69" y="-7"/>
      <point x="53" y="-8" type="curve"/>
      <point x="55" y="45"/>
      <point x="64" y="434"/>
      <point x="62" y="678" type="curve"/>
      <point x="76" y="678"/>
      <point x="104" y="684"/>
      <point x="117" y="685" type="curve"/>
      <point x="117" y="642"/>
      <point x="116" y="515"/>
      <point x="115" y="361" type="curve"/>
      <point x="190" y="485"/>
      <point x="266" y="618"/>
      <point x="301" y="686" type="curve"/>
      <point x="310" y="677"/>
      <point x="328" y="668"/>
      <point x="346" y="657" type="curve"/>
      <point x="325" y="621"/>
      <point x="262" y="514"/>
      <point x="201" y="412" type="curve"/>
      <point x="239" y="318"/>
      <point x="311" y="154"/>
    </contour>
  </outline>
</glyph>
<glyph name="L" format="1">
  <advance width="337"/>
  <unicode hex="004C"/>
  <outline>
    <contour>
      <point x="326" y="47" type="curve"/>
      <point x="326" y="39"/>
      <point x="322" y="12"/>
      <point x="318" y="-8" type="curve"/>
      <point x="318" y="-8"/>
      <point x="274" y="-6"/>
      <point x="239" y="-4" type="curve" smooth="yes"/>
      <point x="175" y="0"/>
      <point x="66" y="1"/>
      <point x="55" y="3" type="curve"/>
      <point x="60" y="63"/>
      <point x="67" y="311"/>
      <point x="60" y="515" type="curve" smooth="yes"/>
      <point x="58" y="578"/>
      <point x="60" y="646"/>
      <point x="59" y="664" type="curve"/>
      <point x="69" y="664"/>
      <point x="112" y="672"/>
      <point x="120" y="673" type="curve"/>
      <point x="122" y="622"/>
      <point x="119" y="93"/>
      <point x="119" y="45" type="curve"/>
      <point x="136" y="48"/>
      <point x="295" y="44"/>
    </contour>
  </outline>
</glyph>
<glyph name="M" format="1">
  <advance width="459"/>
  <unicode hex="004D"/>
  <outline>
    <contour>
      <point x="408" y="-27" type="line"/>
      <point x="400" y="-27"/>
      <point x="359" y="-21"/>
      <point x="351" y="-20" type="curve"/>
      <point x="351" y="56"/>
      <point x="347" y="447"/>
      <point x="341" y="522" type="curve"/>
      <point x="323" y="469"/>
      <point x="281" y="375"/>
      <point x="246" y="291" type="curve"/>
      <point x="236" y="293"/>
      <point x="214" y="302"/>
      <point x="201" y="305" type="curve"/>
      <point x="162" y="414"/>
      <point x="146" y="458"/>
      <point x="120" y="518" type="curve"/>
      <point x="115" y="436"/>
      <point x="103" y="128"/>
      <point x="107" y="16" type="curve"/>
      <point x="94" y="16"/>
      <point x="58" y="11"/>
      <point x="51" y="8" type="curve"/>
      <point x="51" y="45"/>
      <point x="60" y="317"/>
      <point x="65" y="545" type="curve" smooth="yes"/>
      <point x="66" y="598"/>
      <point x="66" y="659"/>
      <point x="67" y="672" type="curve"/>
      <point x="77" y="672"/>
      <point x="112" y="674"/>
      <point x="117" y="675" type="curve"/>
      <point x="120" y="668"/>
      <point x="131" y="641"/>
      <point x="141" y="615" type="curve" smooth="yes"/>
      <point x="179" y="516"/>
      <point x="200" y="448"/>
      <point x="232" y="375" type="curve"/>
      <point x="259" y="446"/>
      <point x="281" y="490"/>
      <point x="310" y="576" type="curve" smooth="yes"/>
      <point x="322" y="612"/>
      <point x="331" y="655"/>
      <point x="333" y="664" type="curve"/>
      <point x="349" y="668"/>
      <point x="380" y="673"/>
      <point x="388" y="676" type="curve"/>
    </contour>
  </outline>
</glyph>
<glyph name="N" format="1">
  <advance width="398"/>
  <unicode hex="004E"/>
  <outline>
    <contour>
      <point x="342" y="0" type="line"/>
      <point x="333" y="2"/>
      <point x="311" y="3"/>
      <point x="298" y="4" type="curve"/>
      <point x="282" y="69"/>
      <point x="131" y="449"/>
      <point x="113" y="490" type="curve"/>
      <point x="107" y="426"/>
      <point x="112" y="350"/>
      <point x="112" y="266" type="curve" smooth="yes"/>
      <point x="111" y="153"/>
      <point x="111" y="8"/>
      <point x="111" y="8" type="curve"/>
      <point x="93" y="10"/>
      <point x="70" y="11"/>
      <point x="53" y="12" type="curve"/>
      <point x="55" y="43"/>
      <point x="60" y="225"/>
      <point x="62" y="368" type="curve" smooth="yes"/>
      <point x="63" y="491"/>
      <point x="56" y="644"/>
      <point x="55" y="672" type="curve"/>
      <point x="63" y="670"/>
      <point x="91" y="673"/>
      <point x="100" y="673" type="curve"/>
      <point x="103" y="660"/>
      <point x="252" y="279"/>
      <point x="291" y="193" type="curve"/>
      <point x="291" y="241"/>
      <point x="296" y="425"/>
      <point x="290" y="582" type="curve" smooth="yes"/>
      <point x="288" y="619"/>
      <point x="289" y="651"/>
      <point x="287" y="664" type="curve"/>
      <point x="300" y="665"/>
      <point x="324" y="667"/>
      <point x="342" y="670" type="curve"/>
    </contour>
  </outline>
</glyph>
<glyph name="O" format="1">
  <advance width="400"/>
  <unicode hex="004F"/>
  <outline>
    <contour>
      <point x="363" y="347" type="curve" smooth="yes"/>
      <point x="363" y="80"/>
      <point x="261" y="-6"/>
      <point x="183" y="-6" type="curve" smooth="yes"/>
      <point x="106" y="-6"/>
      <point x="37" y="111"/>
      <point x="37" y="345" type="curve" smooth="yes"/>
      <point x="37" y="540"/>
      <point x="61" y="670"/>
      <point x="186" y="670" type="curve" smooth="yes"/>
      <point x="281" y="670"/>
      <point x="363" y="591"/>
    </contour>
    <contour>
      <point x="304" y="344" type="curve" smooth="yes"/>
      <point x="304" y="575"/>
      <point x="243" y="615"/>
      <point x="173" y="615" type="curve" smooth="yes"/>
      <point x="109" y="615"/>
      <point x="96" y="483"/>
      <point x="96" y="352" type="curve" smooth="yes"/>
      <point x="96" y="149"/>
      <point x="132" y="50"/>
      <point x="196" y="50" type="curve" smooth="yes"/>
      <point x="258" y="50"/>
      <point x="304" y="180"/>
    </contour>
  </outline>
</glyph>
<glyph name="P" format="1">
  <advance width="359"/>
  <unicode hex="0050"/>
  <outline>
    <contour>
      <point x="342" y="484" type="curve" smooth="yes"/>
      <point x="342" y="395"/>
      <point x="237" y="280"/>
      <point x="115" y="284" type="curve"/>
      <point x="115" y="200"/>
      <point x="115" y="67"/>
      <point x="119" y="16" type="curve"/>
      <point x="96" y="7"/>
      <point x="60" y="-2"/>
      <point x="60" y="-2" type="curve"/>
      <point x="60" y="54"/>
      <point x="63" y="244"/>
      <point x="60" y="429" type="curve" smooth="yes"/>
      <point x="58" y="524"/>
      <point x="51" y="652"/>
      <point x="48" y="663" type="curve"/>
      <point x="58" y="666"/>
      <point x="78" y="670"/>
      <point x="103" y="670" type="curve" smooth="yes"/>
      <point x="208" y="670"/>
      <point x="342" y="639"/>
    </contour>
    <contour>
      <point x="284" y="492" type="curve" smooth="yes"/>
      <point x="284" y="593"/>
      <point x="183" y="620"/>
      <point x="112" y="615" type="curve"/>
      <point x="112" y="583"/>
      <point x="111" y="524"/>
      <point x="113" y="471" type="curve" smooth="yes"/>
      <point x="114" y="430"/>
      <point x="116" y="368"/>
      <point x="116" y="337" type="curve"/>
      <point x="204" y="335"/>
      <point x="284" y="413"/>
    </contour>
  </outline>
</glyph>
<glyph name="Q" format="1">
  <advance width="401"/>
  <unicode hex="0051"/>
  <outline>
    <contour>
      <point x="364" y="368" type="curve" smooth="yes"/>
      <point x="364" y="213"/>
      <point x="329" y="60"/>
      <point x="259" y="10" type="curve"/>
      <point x="283" y="-35"/>
      <point x="309" y="-77"/>
      <point x="336" y="-113" type="curve"/>
      <point x="327" y="-119"/>
      <point x="301" y="-139"/>
      <point x="284" y="-153" type="curve"/>
      <point x="262" y="-108"/>
      <point x="230" y="-48"/>
      <point x="203" y="-1" type="curve"/>
      <point x="84" y="17"/>
      <point x="38" y="194"/>
      <point x="38" y="376" type="curve" smooth="yes"/>
      <point x="38" y="546"/>
      <point x="89" y="670"/>
      <point x="210" y="670" type="curve" smooth="yes"/>
      <point x="283" y="670"/>
      <point x="364" y="615"/>
    </contour>
    <contour>
      <point x="305" y="365" type="curve" smooth="yes"/>
      <point x="305" y="556"/>
      <point x="256" y="612"/>
      <point x="197" y="612" type="curve" smooth="yes"/>
      <point x="122" y="612"/>
      <point x="98" y="520"/>
      <point x="98" y="382" type="curve" smooth="yes"/>
      <point x="98" y="184"/>
      <point x="145" y="54"/>
      <point x="209" y="54" type="curve" smooth="yes"/>
      <point x="250" y="54"/>
      <point x="305" y="116"/>
    </contour>
  </outline>
</glyph>
<glyph name="R" format="1">
  <advance width="366"/>
  <unicode hex="0052"/>
  <outline>
    <contour>
      <point x="344" y="21" type="curve"/>
      <point x="338" y="18"/>
      <point x="299" y="-1"/>
      <point x="290" y="-5" type="curve"/>
      <point x="262" y="70"/>
      <point x="194" y="225"/>
      <point x="154" y="309" type="curve"/>
      <point x="144" y="306"/>
      <point x="123" y="302"/>
      <point x="113" y="300" type="curve"/>
      <point x="114" y="287"/>
      <point x="113" y="264"/>
      <point x="114" y="198" type="curve" smooth="yes"/>
      <point x="116" y="122"/>
      <point x="114" y="39"/>
      <point x="116" y="10" type="curve"/>
      <point x="108" y="9"/>
      <point x="75" y="3"/>
      <point x="58" y="-2" type="curve"/>
      <point x="60" y="38"/>
      <point x="58" y="144"/>
      <point x="58" y="189" type="curve" smooth="yes"/>
      <point x="58" y="214"/>
      <point x="60" y="402"/>
      <point x="60" y="497" type="curve" smooth="yes"/>
      <point x="60" y="587"/>
      <point x="61" y="684"/>
      <point x="61" y="684" type="curve"/>
      <point x="76" y="686"/>
      <point x="131" y="687"/>
      <point x="172" y="681" type="curve" smooth="yes"/>
      <point x="274" y="667"/>
      <point x="311" y="622"/>
      <point x="311" y="532" type="curve" smooth="yes"/>
      <point x="311" y="443"/>
      <point x="278" y="353"/>
      <point x="208" y="323" type="curve"/>
      <point x="233" y="259"/>
      <point x="283" y="158"/>
    </contour>
    <contour>
      <point x="253" y="521" type="curve" smooth="yes"/>
      <point x="253" y="618"/>
      <point x="204" y="634"/>
      <point x="110" y="637" type="curve"/>
      <point x="111" y="585"/>
      <point x="108" y="393"/>
      <point x="112" y="346" type="curve"/>
      <point x="126" y="348"/>
      <point x="155" y="355"/>
      <point x="178" y="363" type="curve" smooth="yes"/>
      <point x="221" y="379"/>
      <point x="253" y="425"/>
    </contour>
  </outline>
</glyph>
<glyph name="S" format="1">
  <advance width="284"/>
  <unicode hex="0053"/>
  <outline>
    <contour>
      <point x="242" y="160" type="curve" smooth="yes"/>
      <point x="242" y="27"/>
      <point x="150" y="-16"/>
      <point x="45" y="-22" type="curve"/>
      <point x="47" y="-7"/>
      <point x="45" y="13"/>
      <point x="44" y="31" type="curve"/>
      <point x="131" y="31"/>
      <point x="189" y="81"/>
      <point x="189" y="145" type="curve" smooth="yes"/>
      <point x="189" y="208"/>
      <point x="153" y="274"/>
      <point x="111" y="336" type="curve" smooth="yes"/>
      <point x="72" y="394"/>
      <point x="29" y="448"/>
      <point x="29" y="517" type="curve" smooth="yes"/>
      <point x="29" y="640"/>
      <point x="144" y="684"/>
      <point x="235" y="676" type="curve"/>
      <point x="235" y="667"/>
      <point x="233" y="634"/>
      <point x="233" y="623" type="curve"/>
      <point x="159" y="629"/>
      <point x="86" y="592"/>
      <point x="86" y="531" type="curve" smooth="yes"/>
      <point x="86" y="473"/>
      <point x="106" y="445"/>
      <point x="159" y="369" type="curve" smooth="yes"/>
      <point x="200" y="309"/>
      <point x="242" y="231"/>
    </contour>
  </outline>
</glyph>
<glyph name="T" format="1">
  <advance width="307"/>
  <unicode hex="0054"/>
  <outline>
    <contour>
      <point x="298" y="662" type="curve"/>
      <point x="294" y="636"/>
      <point x="292" y="610"/>
      <point x="292" y="601" type="curve"/>
      <point x="273" y="604"/>
      <point x="175" y="608"/>
      <point x="175" y="608" type="curve"/>
      <point x="176" y="572"/>
      <point x="182" y="343"/>
      <point x="184" y="159" type="curve" smooth="yes"/>
      <point x="185" y="93"/>
      <point x="186" y="45"/>
      <point x="184" y="-1" type="curve"/>
      <point x="170" y="-1"/>
      <point x="129" y="7"/>
      <point x="118" y="7" type="curve"/>
      <point x="121" y="45"/>
      <point x="125" y="157"/>
      <point x="127" y="261" type="curve" smooth="yes"/>
      <point x="130" y="403"/>
      <point x="125" y="543"/>
      <point x="126" y="615" type="curve"/>
      <point x="117" y="615"/>
      <point x="85" y="616"/>
      <point x="59" y="616" type="curve" smooth="yes"/>
      <point x="45" y="616"/>
      <point x="22" y="618"/>
      <point x="12" y="619" type="curve"/>
      <point x="13" y="638"/>
      <point x="16" y="657"/>
      <point x="17" y="673" type="curve"/>
      <point x="22" y="673"/>
      <point x="36" y="672"/>
      <point x="56" y="671" type="curve" smooth="yes"/>
      <point x="157" y="664"/>
      <point x="292" y="662"/>
    </contour>
  </outline>
</glyph>
<glyph name="U" format="1">
  <advance width="379"/>
  <unicode hex="0055"/>
  <outline>
    <contour>
      <point x="324" y="449" type="curve" smooth="yes"/>
      <point x="324" y="332"/>
      <point x="323" y="167"/>
      <point x="323" y="150" type="curve" smooth="yes"/>
      <point x="323" y="0"/>
      <point x="242" y="-6"/>
      <point x="191" y="-6" type="curve" smooth="yes"/>
      <point x="156" y="-6"/>
      <point x="116" y="3"/>
      <point x="94" y="29" type="curve" smooth="yes"/>
      <point x="67" y="61"/>
      <point x="51" y="91"/>
      <point x="51" y="139" type="curve" smooth="yes"/>
      <point x="51" y="165"/>
      <point x="52" y="370"/>
      <point x="48" y="518" type="curve" smooth="yes"/>
      <point x="46" y="580"/>
      <point x="44" y="635"/>
      <point x="43" y="665" type="curve"/>
      <point x="62" y="665"/>
      <point x="95" y="670"/>
      <point x="105" y="671" type="curve"/>
      <point x="103" y="611"/>
      <point x="108" y="165"/>
      <point x="108" y="138" type="curve" smooth="yes"/>
      <point x="108" y="88"/>
      <point x="146" y="50"/>
      <point x="197" y="50" type="curve" smooth="yes"/>
      <point x="248" y="50"/>
      <point x="267" y="76"/>
      <point x="267" y="111" type="curve" smooth="yes"/>
      <point x="267" y="136"/>
      <point x="270" y="330"/>
      <point x="267" y="470" type="curve" smooth="yes"/>
      <point x="265" y="550"/>
      <point x="266" y="639"/>
      <point x="263" y="664" type="curve"/>
      <point x="280" y="664"/>
      <point x="314" y="665"/>
      <point x="324" y="668" type="curve"/>
      <point x="324" y="623"/>
      <point x="324" y="539"/>
    </contour>
  </outline>
</glyph>
<glyph name="V" format="1">
  <advance width="310"/>
  <unicode hex="0056"/>
  <outline>
    <contour>
      <point x="294" y="664" type="curve"/>
      <point x="280" y="560"/>
      <point x="204" y="128"/>
      <point x="183" y="-8" type="curve"/>
      <point x="173" y="-9"/>
      <point x="145" y="-12"/>
      <point x="134" y="-12" type="curve"/>
      <point x="103" y="164"/>
      <point x="29" y="606"/>
      <point x="16" y="671" type="curve"/>
      <point x="26" y="671"/>
      <point x="71" y="685"/>
      <point x="77" y="689" type="curve"/>
      <point x="80" y="644"/>
      <point x="146" y="210"/>
      <point x="159" y="150" type="curve"/>
      <point x="165" y="191"/>
      <point x="236" y="631"/>
      <point x="237" y="679" type="curve"/>
      <point x="246" y="675"/>
      <point x="284" y="665"/>
    </contour>
  </outline>
</glyph>
<glyph name="W" format="1">
  <advance width="559"/>
  <unicode hex="0057"/>
  <outline>
    <contour>
      <point x="542" y="661" type="curve"/>
      <point x="512" y="489"/>
      <point x="461" y="125"/>
      <point x="438" y="-14" type="curve"/>
      <point x="426" y="-16"/>
      <point x="388" y="-17"/>
      <point x="375" y="-18" type="curve"/>
      <point x="362" y="76"/>
      <point x="321" y="331"/>
      <point x="289" y="529" type="curve"/>
      <point x="264" y="360"/>
      <point x="214" y="107"/>
      <point x="193" y="-4" type="curve"/>
      <point x="180" y="0"/>
      <point x="140" y="3"/>
      <point x="128" y="3" type="curve"/>
      <point x="111" y="99"/>
      <point x="31" y="566"/>
      <point x="15" y="665" type="curve"/>
      <point x="27" y="668"/>
      <point x="60" y="675"/>
      <point x="77" y="684" type="curve"/>
      <point x="87" y="613"/>
      <point x="146" y="186"/>
      <point x="165" y="99" type="curve"/>
      <point x="174" y="169"/>
      <point x="255" y="610"/>
      <point x="263" y="675" type="curve"/>
      <point x="276" y="673"/>
      <point x="312" y="669"/>
      <point x="322" y="670" type="curve"/>
      <point x="334" y="587"/>
      <point x="399" y="192"/>
      <point x="410" y="89" type="curve"/>
      <point x="432" y="212"/>
      <point x="472" y="550"/>
      <point x="486" y="676" type="curve"/>
      <point x="500" y="671"/>
      <point x="527" y="664"/>
    </contour>
  </outline>
</glyph>
<glyph name="X" format="1">
  <advance width="329"/>
  <unicode hex="0058"/>
  <outline>
    <contour>
      <point x="324" y="21" type="curve"/>
      <point x="312" y="18"/>
      <point x="280" y="-2"/>
      <point x="267" y="-7" type="curve"/>
      <point x="251" y="57"/>
      <point x="176" y="255"/>
      <point x="162" y="303" type="curve"/>
      <point x="137" y="218"/>
      <point x="77" y="21"/>
      <point x="68" y="-14" type="curve"/>
      <point x="58" y="-12"/>
      <point x="21" y="-2"/>
      <point x="10" y="1" type="curve"/>
      <point x="29" y="50"/>
      <point x="104" y="284"/>
      <point x="131" y="371" type="curve"/>
      <point x="116" y="418"/>
      <point x="42" y="646"/>
      <point x="35" y="661" type="curve"/>
      <point x="50" y="666"/>
      <point x="90" y="677"/>
      <point x="96" y="679" type="curve"/>
      <point x="99" y="664"/>
      <point x="155" y="480"/>
      <point x="169" y="435" type="curve"/>
      <point x="179" y="470"/>
      <point x="237" y="642"/>
      <point x="241" y="665" type="curve"/>
      <point x="248" y="662"/>
      <point x="283" y="648"/>
      <point x="296" y="642" type="curve"/>
      <point x="274" y="580"/>
      <point x="215" y="411"/>
      <point x="201" y="363" type="curve"/>
      <point x="210" y="332"/>
      <point x="273" y="153"/>
    </contour>
  </outline>
</glyph>
<glyph name="Y" format="1">
  <advance width="304"/>
  <unicode hex="0059"/>
  <outline>
    <contour>
      <point x="291" y="652" type="curve"/>
      <point x="259" y="567"/>
      <point x="209" y="403"/>
      <point x="187" y="339" type="curve"/>
      <point x="188" y="303"/>
      <point x="193" y="53"/>
      <point x="190" y="3" type="curve"/>
      <point x="182" y="3"/>
      <point x="138" y="4"/>
      <point x="128" y="4" type="curve"/>
      <point x="132" y="47"/>
      <point x="134" y="226"/>
      <point x="136" y="324" type="curve"/>
      <point x="107" y="409"/>
      <point x="29" y="597"/>
      <point x="8" y="648" type="curve"/>
      <point x="22" y="650"/>
      <point x="56" y="665"/>
      <point x="67" y="673" type="curve"/>
      <point x="72" y="645"/>
      <point x="127" y="479"/>
      <point x="163" y="406" type="curve"/>
      <point x="194" y="508"/>
      <point x="216" y="590"/>
      <point x="233" y="674" type="curve"/>
      <point x="249" y="665"/>
      <point x="275" y="658"/>
    </contour>
  </outline>
</glyph>
<glyph name="Z" format="1">
  <advance width="314"/>
  <unicode hex="005A"/>
  <outline>
    <contour>
      <point x="292" y="49" type="curve"/>
      <point x="289" y="29"/>
      <point x="288" y="3"/>
      <point x="287" y="-5" type="curve"/>
      <point x="239" y="-3"/>
      <point x="66" y="1"/>
      <point x="26" y="3" type="curve"/>
      <point x="66" y="130"/>
      <point x="187" y="505"/>
      <point x="210" y="613" type="curve"/>
      <point x="196" y="611"/>
      <point x="120" y="611"/>
      <point x="91" y="610" type="curve" smooth="yes"/>
      <point x="77" y="610"/>
      <point x="53" y="610"/>
      <point x="40" y="611" type="curve"/>
      <point x="43" y="625"/>
      <point x="44" y="654"/>
      <point x="45" y="670" type="curve"/>
      <point x="76" y="667"/>
      <point x="248" y="657"/>
      <point x="283" y="653" type="curve"/>
      <point x="278" y="632"/>
      <point x="101" y="79"/>
      <point x="97" y="51" type="curve"/>
      <point x="132" y="47"/>
      <point x="249" y="48"/>
    </contour>
  </outline>
</glyph>
<glyph name="bracketleft" format="1">
  <advance width="284"/>
  <unicode hex="005B"/>
  <outline>
    <contour>
      <point x="234" y="-84" type="curve"/>
      <point x="232" y="-96"/>
      <point x="229" y="-117"/>
      <point x="229" y="-127" type="curve"/>
      <point x="202" y="-125"/>
      <point x="106" y="-123"/>
      <point x="77" y="-125" type="curve"/>
      <point x="77" y="-40"/>
      <point x="67" y="555"/>
      <point x="64" y="693" type="curve"/>
      <point x="109" y="691"/>
      <point x="187" y="696"/>
      <point x="227" y="701" type="curve"/>
      <point x="226" y="687"/>
      <point x="227" y="662"/>
      <point x="228" y="655" type="curve"/>
      <point x="207" y="652"/>
      <point x="154" y="647"/>
      <point x="125" y="643" type="curve"/>
      <point x="123" y="571"/>
      <point x="130" y="-16"/>
      <point x="133" y="-78" type="curve"/>
      <point x="160" y="-82"/>
      <point x="216" y="-86"/>
    </contour>
  </outline>
</glyph>
<glyph name="backslash" format="1">
  <advance width="309"/>
  <unicode hex="005C"/>
  <outline>
    <contour>
      <point x="278" y="0" type="curve"/>
      <point x="268" y="-2"/>
      <point x="239" y="-8"/>
      <point x="225" y="-13" type="curve"/>
      <point x="174" y="168"/>
      <point x="72" y="510"/>
      <point x="20" y="663" type="curve"/>
      <point x="32" y="667"/>
      <point x="64" y="671"/>
      <point x="77" y="676" type="curve"/>
      <point x="112" y="529"/>
      <point x="222" y="169"/>
    </contour>
  </outline>
</glyph>
<glyph name="bracketright" format="1">
  <advance width="284"/>
  <unicode hex="005D"/>
  <outline>
    <contour>
      <point x="215" y="719" type="curve"/>
      <point x="211" y="589"/>
      <point x="202" y="28"/>
      <point x="202" y="-80" type="curve"/>
      <point x="163" y="-83"/>
      <point x="80" y="-93"/>
      <point x="56" y="-96" type="curve"/>
      <point x="56" y="-82"/>
      <point x="52" y="-66"/>
      <point x="49" y="-52" type="curve"/>
      <point x="71" y="-51"/>
      <point x="118" y="-41"/>
      <point x="146" y="-34" type="curve"/>
      <point x="149" y="26"/>
      <point x="158" y="645"/>
      <point x="157" y="672" type="curve"/>
      <point x="118" y="676"/>
      <point x="79" y="678"/>
      <point x="52" y="679" type="curve"/>
      <point x="53" y="695"/>
      <point x="54" y="715"/>
      <point x="53" y="727" type="curve"/>
      <point x="91" y="723"/>
      <point x="174" y="719"/>
    </contour>
  </outline>
</glyph>
<glyph name="asciicircum" format="1">
  <advance width="405"/>
  <unicode hex="005E"/>
  <outline>
    <contour>
      <point x="391" y="392" type="line"/>
      <point x="364" y="371" type="line"/>
      <point x="185" y="545" type="line"/>
      <point x="47" y="376" type="line"/>
      <point x="16" y="392" type="line"/>
      <point x="155" y="594" type="line"/>
      <point x="206" y="605" type="line"/>
    </contour>
  </outline>
</glyph>
<glyph name="underscore" format="1">
  <advance width="330"/>
  <unicode hex="005F"/>
  <outline>
    <contour>
      <point x="337" y="-60" type="curve"/>
      <point x="334" y="-79"/>
      <point x="333" y="-92"/>
      <point x="334" y="-109" type="curve"/>
      <point x="311" y="-106"/>
      <point x="38" y="-105"/>
      <point x="-4" y="-104" type="curve"/>
      <point x="-4" y="-92"/>
      <point x="-7" y="-82"/>
      <point x="-9" y="-64" type="curve"/>
      <point x="29" y="-67"/>
      <point x="307" y="-64"/>
    </contour>
  </outline>
</glyph>
<glyph name="grave" format="1">
  <advance width="252"/>
  <unicode hex="0060"/>
  <outline>
    <contour>
      <point x="183" y="532" type="line"/>
      <point x="164" y="504" type="line"/>
      <point x="52" y="589" type="line"/>
      <point x="87" y="637" type="line"/>
    </contour>
  </outline>
</glyph>
<glyph name="a" format="1">
  <advance width="315"/>
  <unicode hex="0061"/>
  <outline>
    <contour>
      <point x="277" y="-30" type="curve"/>
      <point x="260" y="-34"/>
      <point x="240" y="-39"/>
      <point x="226" y="-43" type="curve"/>
      <point x="226" y="-29"/>
      <point x="219" y="28"/>
      <point x="217" y="48" type="curve"/>
      <point x="195" y="25"/>
      <point x="149" y="-17"/>
      <point x="98" y="-17" type="curve" smooth="yes"/>
      <point x="67" y="-17"/>
      <point x="17" y="24"/>
      <point x="17" y="121" type="curve" smooth="yes"/>
      <point x="17" y="158"/>
      <point x="37" y="214"/>
      <point x="77" y="236" type="curve" smooth="yes"/>
      <point x="144" y="272"/>
      <point x="195" y="284"/>
      <point x="219" y="294" type="curve"/>
      <point x="220" y="344"/>
      <point x="216" y="376"/>
      <point x="189" y="389" type="curve" smooth="yes"/>
      <point x="157" y="404"/>
      <point x="128" y="409"/>
      <point x="101" y="409" type="curve"/>
      <point x="101" y="409"/>
      <point x="104" y="454"/>
      <point x="104" y="463" type="curve"/>
      <point x="138" y="459"/>
      <point x="210" y="445"/>
      <point x="235" y="429" type="curve" smooth="yes"/>
      <point x="261" y="412"/>
      <point x="269" y="364"/>
      <point x="269" y="343" type="curve" smooth="yes"/>
      <point x="269" y="336"/>
      <point x="270" y="183"/>
      <point x="270" y="80" type="curve" smooth="yes"/>
      <point x="270" y="36"/>
      <point x="275" y="-18"/>
    </contour>
    <contour>
      <point x="219" y="245" type="curve"/>
      <point x="206" y="241"/>
      <point x="147" y="218"/>
      <point x="125" y="206" type="curve" smooth="yes"/>
      <point x="99" y="192"/>
      <point x="68" y="168"/>
      <point x="68" y="133" type="curve" smooth="yes"/>
      <point x="68" y="63"/>
      <point x="85" y="39"/>
      <point x="116" y="39" type="curve" smooth="yes"/>
      <point x="146" y="39"/>
      <point x="190" y="79"/>
      <point x="216" y="106" type="curve"/>
      <point x="219" y="115"/>
      <point x="219" y="225"/>
    </contour>
  </outline>
</glyph>
<glyph name="b" format="1">
  <advance width="349"/>
  <unicode hex="0062"/>
  <outline>
    <contour>
      <point x="317" y="215" type="curve" smooth="yes"/>
      <point x="317" y="33"/>
      <point x="250" y="8"/>
      <point x="199" y="8" type="curve" smooth="yes"/>
      <point x="170" y="8"/>
      <point x="132" y="30"/>
      <point x="99" y="53" type="curve"/>
      <point x="98" y="38"/>
      <point x="101" y="-2"/>
      <point x="101" y="-2" type="curve"/>
      <point x="101" y="-2"/>
      <point x="63" y="-9"/>
      <point x="47" y="-18" type="curve"/>
      <point x="47" y="-6"/>
      <point x="47" y="236"/>
      <point x="47" y="245" type="curve" smooth="yes"/>
      <point x="47" y="259"/>
      <point x="45" y="537"/>
      <point x="45" y="556" type="curve" smooth="yes"/>
      <point x="45" y="564"/>
      <point x="42" y="646"/>
      <point x="42" y="664" type="curve"/>
      <point x="60" y="664"/>
      <point x="91" y="669"/>
      <point x="100" y="670" type="curve"/>
      <point x="96" y="632"/>
      <point x="94" y="427"/>
      <point x="100" y="394" type="curve"/>
      <point x="128" y="425"/>
      <point x="173" y="453"/>
      <point x="209" y="453" type="curve" smooth="yes"/>
      <point x="234" y="453"/>
      <point x="256" y="441"/>
      <point x="280" y="399" type="curve" smooth="yes"/>
      <point x="303" y="359"/>
      <point x="317" y="298"/>
    </contour>
    <contour>
      <point x="264" y="209" type="curve" smooth="yes"/>
      <point x="264" y="330"/>
      <point x="237" y="395"/>
      <point x="197" y="395" type="curve" smooth="yes"/>
      <point x="163" y="395"/>
      <point x="114" y="359"/>
      <point x="102" y="341" type="curve"/>
      <point x="101" y="312"/>
      <point x="99" y="145"/>
      <point x="100" y="113" type="curve"/>
      <point x="121" y="93"/>
      <point x="160" y="64"/>
      <point x="190" y="63" type="curve" smooth="yes"/>
      <point x="228" y="61"/>
      <point x="264" y="77"/>
    </contour>
  </outline>
</glyph>
<glyph name="c" format="1">
  <advance width="250"/>
  <unicode hex="0063"/>
  <outline>
    <contour>
      <point x="233" y="19" type="curve"/>
      <point x="230" y="9"/>
      <point x="226" y="-12"/>
      <point x="224" y="-23" type="curve"/>
      <point x="91" y="1"/>
      <point x="22" y="79"/>
      <point x="22" y="234" type="curve" smooth="yes"/>
      <point x="22" y="295"/>
      <point x="34" y="355"/>
      <point x="59" y="390" type="curve" smooth="yes"/>
      <point x="98" y="445"/>
      <point x="136" y="463"/>
      <point x="223" y="475" type="curve"/>
      <point x="228" y="429" type="line"/>
      <point x="216" y="428"/>
      <point x="185" y="419"/>
      <point x="180" y="417" type="curve" smooth="yes"/>
      <point x="115" y="397"/>
      <point x="77" y="349"/>
      <point x="77" y="245" type="curve" smooth="yes"/>
      <point x="77" y="158"/>
      <point x="98" y="61"/>
      <point x="194" y="33" type="curve" smooth="yes"/>
      <point x="208" y="29"/>
      <point x="224" y="22"/>
    </contour>
  </outline>
</glyph>
<glyph name="d" format="1">
  <advance width="342"/>
  <unicode hex="0064"/>
  <outline>
    <contour>
      <point x="302" y="3" type="curve"/>
      <point x="292" y="-1"/>
      <point x="269" y="-7"/>
      <point x="264" y="-9" type="curve"/>
      <point x="243" y="31" type="line"/>
      <point x="220" y="10"/>
      <point x="157" y="-8"/>
      <point x="125" y="-8" type="curve" smooth="yes"/>
      <point x="69" y="-8"/>
      <point x="29" y="74"/>
      <point x="29" y="195" type="curve" smooth="yes"/>
      <point x="29" y="280"/>
      <point x="38" y="336"/>
      <point x="54" y="371" type="curve" smooth="yes"/>
      <point x="67" y="401"/>
      <point x="110" y="444"/>
      <point x="147" y="444" type="curve" smooth="yes"/>
      <point x="178" y="444"/>
      <point x="224" y="426"/>
      <point x="250" y="408" type="curve"/>
      <point x="248" y="427"/>
      <point x="246" y="491"/>
      <point x="247" y="551" type="curve" smooth="yes"/>
      <point x="248" y="611"/>
      <point x="243" y="660"/>
      <point x="243" y="660" type="curve"/>
      <point x="243" y="660"/>
      <point x="284" y="662"/>
      <point x="298" y="666" type="curve"/>
      <point x="300" y="349" type="line" smooth="yes"/>
      <point x="300" y="331"/>
      <point x="302" y="127"/>
      <point x="301" y="91" type="curve" smooth="yes"/>
      <point x="301" y="79"/>
      <point x="300" y="22"/>
    </contour>
    <contour>
      <point x="247" y="85" type="curve"/>
      <point x="246" y="159"/>
      <point x="251" y="311"/>
      <point x="244" y="354" type="curve"/>
      <point x="226" y="373"/>
      <point x="187" y="389"/>
      <point x="160" y="389" type="curve" smooth="yes"/>
      <point x="117" y="389"/>
      <point x="84" y="367"/>
      <point x="84" y="240" type="curve" smooth="yes"/>
      <point x="84" y="80"/>
      <point x="103" y="47"/>
      <point x="161" y="47" type="curve" smooth="yes"/>
      <point x="186" y="47"/>
      <point x="221" y="64"/>
    </contour>
  </outline>
</glyph>
<glyph name="e" format="1">
  <advance width="321"/>
  <unicode hex="0065"/>
  <outline>
    <contour>
      <point x="292" y="38" type="curve"/>
      <point x="282" y="22"/>
      <point x="208" y="-1"/>
      <point x="178" y="-1" type="curve" smooth="yes"/>
      <point x="143" y="-1"/>
      <point x="96" y="25"/>
      <point x="71" y="60" type="curve" smooth="yes"/>
      <point x="43" y="100"/>
      <point x="28" y="155"/>
      <point x="28" y="232" type="curve" smooth="yes"/>
      <point x="28" y="392"/>
      <point x="92" y="453"/>
      <point x="173" y="453" type="curve" smooth="yes"/>
      <point x="250" y="453"/>
      <point x="279" y="348"/>
      <point x="283" y="233" type="curve"/>
      <point x="204" y="226"/>
      <point x="106" y="218"/>
      <point x="83" y="220" type="curve"/>
      <point x="86" y="166"/>
      <point x="90" y="129"/>
      <point x="107" y="98" type="curve" smooth="yes"/>
      <point x="123" y="68"/>
      <point x="158" y="48"/>
      <point x="181" y="48" type="curve" smooth="yes"/>
      <point x="204" y="48"/>
      <point x="257" y="60"/>
      <point x="274" y="71" type="curve"/>
      <point x="277" y="62"/>
      <point x="285" y="48"/>
    </contour>
    <contour>
      <point x="226" y="278" type="curve"/>
      <point x="218" y="351"/>
      <point x="207" y="404"/>
      <point x="161" y="404" type="curve" smooth="yes"/>
      <point x="128" y="404"/>
      <point x="82" y="356"/>
      <point x="85" y="267" type="curve"/>
      <point x="101" y="265"/>
      <point x="138" y="267"/>
      <point x="155" y="269" type="curve" smooth="yes"/>
      <point x="183" y="273"/>
      <point x="214" y="276"/>
    </contour>
  </outline>
</glyph>
<glyph name="f" format="1">
  <advance width="189"/>
  <unicode hex="0066"/>
  <outline>
    <contour>
      <point x="188" y="625" type="curve"/>
      <point x="138" y="618"/>
      <point x="126" y="608"/>
      <point x="114" y="589" type="curve" smooth="yes"/>
      <point x="111" y="585"/>
      <point x="110" y="570"/>
      <point x="110" y="562" type="curve" smooth="yes"/>
      <point x="110" y="545"/>
      <point x="111" y="525"/>
      <point x="111" y="514" type="curve" smooth="yes"/>
      <point x="111" y="502"/>
      <point x="111" y="463"/>
      <point x="114" y="437" type="curve"/>
      <point x="134" y="433"/>
      <point x="158" y="430"/>
      <point x="175" y="428" type="curve"/>
      <point x="175" y="383" type="line"/>
      <point x="175" y="383"/>
      <point x="138" y="384"/>
      <point x="115" y="386" type="curve"/>
      <point x="113" y="232" type="line" smooth="yes"/>
      <point x="112" y="182"/>
      <point x="114" y="-8"/>
      <point x="114" y="-8" type="curve"/>
      <point x="97" y="-4"/>
      <point x="76" y="-1"/>
      <point x="60" y="1" type="curve"/>
      <point x="62" y="21"/>
      <point x="61" y="66"/>
      <point x="62" y="117" type="curve" smooth="yes"/>
      <point x="63" y="154"/>
      <point x="64" y="200"/>
      <point x="64" y="211" type="curve" smooth="yes"/>
      <point x="64" y="392" type="line"/>
      <point x="51" y="394"/>
      <point x="11" y="396"/>
      <point x="11" y="396" type="curve"/>
      <point x="7" y="439" type="line"/>
      <point x="64" y="440" type="line"/>
      <point x="65" y="484"/>
      <point x="63" y="530"/>
      <point x="62" y="548" type="curve" smooth="yes"/>
      <point x="62" y="554"/>
      <point x="61" y="569"/>
      <point x="61" y="575" type="curve" smooth="yes"/>
      <point x="61" y="616"/>
      <point x="88" y="660"/>
      <point x="179" y="674" type="curve"/>
      <point x="180" y="665"/>
      <point x="184" y="643"/>
    </contour>
  </outline>
</glyph>
<glyph name="g" format="1">
  <advance width="325"/>
  <unicode hex="0067"/>
  <outline>
    <contour>
      <point x="276" y="200" type="line" smooth="yes"/>
      <point x="276" y="170"/>
      <point x="276" y="30"/>
      <point x="270" y="-57" type="curve" smooth="yes"/>
      <point x="268" y="-85"/>
      <point x="259" y="-108"/>
      <point x="237" y="-132" type="curve" smooth="yes"/>
      <point x="213" y="-158"/>
      <point x="171" y="-188"/>
      <point x="149" y="-200" type="curve"/>
      <point x="143" y="-183"/>
      <point x="131" y="-163"/>
      <point x="128" y="-156" type="curve"/>
      <point x="159" y="-139"/>
      <point x="190" y="-117"/>
      <point x="214" y="-84" type="curve" smooth="yes"/>
      <point x="222" y="-73"/>
      <point x="224" y="-12"/>
      <point x="222" y="29" type="curve"/>
      <point x="199" y="10"/>
      <point x="147" y="-8"/>
      <point x="117" y="-8" type="curve" smooth="yes"/>
      <point x="95" y="-8"/>
      <point x="81" y="13"/>
      <point x="65" y="35" type="curve" smooth="yes"/>
      <point x="44" y="64"/>
      <point x="30" y="126"/>
      <point x="30" y="203" type="curve" smooth="yes"/>
      <point x="30" y="309"/>
      <point x="47" y="436"/>
      <point x="122" y="436" type="curve" smooth="yes"/>
      <point x="151" y="436"/>
      <point x="206" y="429"/>
      <point x="226" y="424" type="curve"/>
      <point x="226" y="449"/>
      <point x="228" y="481"/>
      <point x="227" y="492" type="curve"/>
      <point x="247" y="489"/>
      <point x="257" y="487"/>
      <point x="275" y="484" type="curve"/>
    </contour>
    <contour>
      <point x="227" y="373" type="curve"/>
      <point x="214" y="378"/>
      <point x="170" y="387"/>
      <point x="145" y="387" type="curve" smooth="yes"/>
      <point x="109" y="387"/>
      <point x="84" y="365"/>
      <point x="84" y="253" type="curve" smooth="yes"/>
      <point x="84" y="105"/>
      <point x="95" y="45"/>
      <point x="148" y="45" type="curve" smooth="yes"/>
      <point x="173" y="45"/>
      <point x="209" y="67"/>
      <point x="226" y="82" type="curve"/>
      <point x="225" y="115"/>
      <point x="226" y="184"/>
      <point x="226" y="240" type="curve" smooth="yes"/>
      <point x="226" y="290"/>
      <point x="225" y="357"/>
    </contour>
  </outline>
</glyph>
<glyph name="h" format="1">
  <advance width="330"/>
  <unicode hex="0068"/>
  <outline>
    <contour>
      <point x="280" y="-17" type="curve"/>
      <point x="268" y="-14"/>
      <point x="237" y="-7"/>
      <point x="220" y="-3" type="curve"/>
      <point x="223" y="13"/>
      <point x="224" y="144"/>
      <point x="227" y="170" type="curve" smooth="yes"/>
      <point x="228" y="180"/>
      <point x="226" y="264"/>
      <point x="225" y="296" type="curve" smooth="yes"/>
      <point x="224" y="323"/>
      <point x="214" y="341"/>
      <point x="191" y="341" type="curve" smooth="yes"/>
      <point x="154" y="341"/>
      <point x="126" y="323"/>
      <point x="101" y="306" type="curve"/>
      <point x="98" y="248"/>
      <point x="94" y="5"/>
      <point x="102" y="-30" type="curve"/>
      <point x="85" y="-25"/>
      <point x="61" y="-20"/>
      <point x="47" y="-17" type="curve"/>
      <point x="47" y="7"/>
      <point x="44" y="83"/>
      <point x="46" y="144" type="curve" smooth="yes"/>
      <point x="48" y="208"/>
      <point x="53" y="371"/>
      <point x="53" y="386" type="curve" smooth="yes"/>
      <point x="53" y="408"/>
      <point x="47" y="591"/>
      <point x="49" y="678" type="curve"/>
      <point x="65" y="678"/>
      <point x="94" y="676"/>
      <point x="106" y="676" type="curve"/>
      <point x="104" y="623"/>
      <point x="109" y="401"/>
      <point x="107" y="363" type="curve"/>
      <point x="136" y="380"/>
      <point x="174" y="398"/>
      <point x="216" y="398" type="curve" smooth="yes"/>
      <point x="227" y="398"/>
      <point x="247" y="392"/>
      <point x="257" y="382" type="curve" smooth="yes"/>
      <point x="269" y="370"/>
      <point x="279" y="342"/>
      <point x="279" y="298" type="curve" smooth="yes"/>
      <point x="279" y="290"/>
      <point x="279" y="113"/>
      <point x="277" y="78" type="curve" smooth="yes"/>
      <point x="276" y="56"/>
      <point x="278" y="14"/>
    </contour>
  </outline>
</glyph>
<glyph name="j" format="1">
  <advance width="136"/>
  <unicode hex="006A"/>
  <outline>
    <contour>
      <point x="109" y="633" type="curve" smooth="yes"/>
      <point x="109" y="613"/>
      <point x="90" y="594"/>
      <point x="71" y="594" type="curve" smooth="yes"/>
      <point x="50" y="594"/>
      <point x="32" y="611"/>
      <point x="32" y="632" type="curve" smooth="yes"/>
      <point x="32" y="649"/>
      <point x="51" y="668"/>
      <point x="71" y="668" type="curve" smooth="yes"/>
      <point x="91" y="668"/>
      <point x="109" y="655"/>
    </contour>
    <contour>
      <point x="102" y="460" type="curve"/>
      <point x="100" y="445"/>
      <point x="99" y="381"/>
      <point x="98" y="354" type="curve" smooth="yes"/>
      <point x="97" y="326"/>
      <point x="96" y="97"/>
      <point x="96" y="75" type="curve" smooth="yes"/>
      <point x="96" y="-77"/>
      <point x="55" y="-121"/>
      <point x="11" y="-176" type="curve"/>
      <point x="1" y="-162"/>
      <point x="-11" y="-147"/>
      <point x="-21" y="-140" type="curve"/>
      <point x="-1" y="-121"/>
      <point x="49" y="-35"/>
      <point x="46" y="30" type="curve" smooth="yes"/>
      <point x="45" y="50"/>
      <point x="47" y="132"/>
      <point x="46" y="163" type="curve" smooth="yes"/>
      <point x="43" y="248"/>
      <point x="45" y="450"/>
      <point x="45" y="464" type="curve"/>
      <point x="59" y="463"/>
      <point x="87" y="460"/>
    </contour>
  </outline>
</glyph>
<glyph name="k" format="1">
  <advance width="318"/>
  <unicode hex="006B"/>
  <outline>
    <contour>
      <point x="317" y="16" type="curve"/>
      <point x="304" y="4"/>
      <point x="284" y="-14"/>
      <point x="276" y="-20" type="curve"/>
      <point x="268" y="-10"/>
      <point x="169" y="150"/>
      <point x="139" y="203" type="curve"/>
      <point x="132" y="194"/>
      <point x="114" y="170"/>
      <point x="97" y="149" type="curve"/>
      <point x="98" y="117"/>
      <point x="98" y="59"/>
      <point x="97" y="38" type="curve" smooth="yes"/>
      <point x="97" y="27"/>
      <point x="97" y="4"/>
      <point x="97" y="-3" type="curve"/>
      <point x="79" y="-3"/>
      <point x="55" y="-2"/>
      <point x="46" y="-2" type="curve"/>
      <point x="46" y="20"/>
      <point x="46" y="231"/>
      <point x="46" y="261" type="curve" smooth="yes"/>
      <point x="46" y="267"/>
      <point x="48" y="497"/>
      <point x="49" y="511" type="curve" smooth="yes"/>
      <point x="50" y="518"/>
      <point x="52" y="693"/>
      <point x="51" y="715" type="curve"/>
      <point x="62" y="712"/>
      <point x="90" y="705"/>
      <point x="98" y="701" type="curve"/>
      <point x="98" y="682"/>
      <point x="94" y="339"/>
      <point x="94" y="315" type="curve" smooth="yes"/>
      <point x="94" y="308"/>
      <point x="95" y="259"/>
      <point x="95" y="211" type="curve"/>
      <point x="138" y="271"/>
      <point x="198" y="369"/>
      <point x="214" y="391" type="curve" smooth="yes"/>
      <point x="219" y="397"/>
      <point x="241" y="440"/>
      <point x="248" y="451" type="curve"/>
      <point x="258" y="445"/>
      <point x="275" y="427"/>
      <point x="290" y="417" type="curve"/>
      <point x="276" y="396"/>
      <point x="205" y="294"/>
      <point x="176" y="244" type="curve"/>
      <point x="204" y="204"/>
      <point x="292" y="51"/>
    </contour>
  </outline>
</glyph>
<glyph name="l" format="1">
  <advance width="145"/>
  <unicode hex="006C"/>
  <outline>
    <contour>
      <point x="102" y="426" type="curve" smooth="yes"/>
      <point x="102" y="420"/>
      <point x="101" y="193"/>
      <point x="100" y="177" type="curve" smooth="yes"/>
      <point x="99" y="163"/>
      <point x="93" y="4"/>
      <point x="93" y="-24" type="curve"/>
      <point x="78" y="-21"/>
      <point x="62" y="-17"/>
      <point x="50" y="-15" type="curve"/>
      <point x="50" y="4"/>
      <point x="51" y="336"/>
      <point x="51" y="360" type="curve" smooth="yes"/>
      <point x="51" y="373"/>
      <point x="50" y="515"/>
      <point x="50" y="529" type="curve" smooth="yes"/>
      <point x="50" y="536"/>
      <point x="50" y="602"/>
      <point x="53" y="625" type="curve" smooth="yes"/>
      <point x="56" y="646"/>
      <point x="58" y="689"/>
      <point x="58" y="698" type="curve"/>
      <point x="73" y="693"/>
      <point x="90" y="686"/>
      <point x="101" y="681" type="curve"/>
      <point x="101" y="650"/>
      <point x="102" y="462"/>
    </contour>
  </outline>
</glyph>
<glyph name="m" format="1">
  <advance width="501"/>
  <unicode hex="006D"/>
  <outline>
    <contour>
      <point x="450" y="335" type="curve" smooth="yes"/>
      <point x="449" y="8" type="line"/>
      <point x="443" y="7"/>
      <point x="415" y="3"/>
      <point x="394" y="1" type="curve"/>
      <point x="396" y="31"/>
      <point x="397" y="78"/>
      <point x="397" y="98" type="curve" smooth="yes"/>
      <point x="397" y="119"/>
      <point x="397" y="297"/>
      <point x="397" y="323" type="curve" smooth="yes"/>
      <point x="397" y="367"/>
      <point x="398" y="391"/>
      <point x="374" y="391" type="curve" smooth="yes"/>
      <point x="345" y="391"/>
      <point x="286" y="340"/>
      <point x="273" y="326" type="curve"/>
      <point x="275" y="296"/>
      <point x="275" y="20"/>
      <point x="276" y="6" type="curve"/>
      <point x="276" y="6"/>
      <point x="232" y="6"/>
      <point x="218" y="6" type="curve"/>
      <point x="221" y="13"/>
      <point x="223" y="70"/>
      <point x="223" y="75" type="curve" smooth="yes"/>
      <point x="223" y="102"/>
      <point x="219" y="308"/>
      <point x="219" y="334" type="curve" smooth="yes"/>
      <point x="219" y="393"/>
      <point x="214" y="399"/>
      <point x="178" y="399" type="curve" smooth="yes"/>
      <point x="151" y="399"/>
      <point x="112" y="381"/>
      <point x="96" y="372" type="curve"/>
      <point x="96" y="349"/>
      <point x="94" y="52"/>
      <point x="94" y="-12" type="curve"/>
      <point x="78" y="-7"/>
      <point x="51" y="-2"/>
      <point x="43" y="-2" type="curve"/>
      <point x="44" y="25"/>
      <point x="45" y="147"/>
      <point x="45" y="156" type="curve" smooth="yes"/>
      <point x="46" y="462" type="line"/>
      <point x="61" y="459"/>
      <point x="80" y="454"/>
      <point x="91" y="455" type="curve"/>
      <point x="91" y="455"/>
      <point x="94" y="430"/>
      <point x="97" y="419" type="curve"/>
      <point x="133" y="437"/>
      <point x="178" y="450"/>
      <point x="212" y="450" type="curve" smooth="yes"/>
      <point x="232" y="450"/>
      <point x="255" y="441"/>
      <point x="264" y="410" type="curve" smooth="yes"/>
      <point x="266" y="404"/>
      <point x="269" y="388"/>
      <point x="269" y="378" type="curve"/>
      <point x="300" y="407"/>
      <point x="351" y="444"/>
      <point x="386" y="444" type="curve" smooth="yes"/>
      <point x="436" y="444"/>
      <point x="450" y="405"/>
    </contour>
  </outline>
</glyph>
<glyph name="n" format="1">
  <advance width="354"/>
  <unicode hex="006E"/>
  <outline>
    <contour>
      <point x="303" y="340" type="curve" smooth="yes"/>
      <point x="303" y="290"/>
      <point x="302" y="72"/>
      <point x="302" y="5" type="curve"/>
      <point x="289" y="7"/>
      <point x="270" y="11"/>
      <point x="246" y="11" type="curve"/>
      <point x="250" y="44"/>
      <point x="251" y="99"/>
      <point x="251" y="129" type="curve" smooth="yes"/>
      <point x="251" y="135"/>
      <point x="251" y="294"/>
      <point x="251" y="326" type="curve" smooth="yes"/>
      <point x="251" y="375"/>
      <point x="244" y="398"/>
      <point x="221" y="398" type="curve" smooth="yes"/>
      <point x="197" y="398"/>
      <point x="134" y="378"/>
      <point x="109" y="356" type="curve"/>
      <point x="108" y="340"/>
      <point x="116" y="26"/>
      <point x="118" y="-5" type="curve"/>
      <point x="110" y="-7"/>
      <point x="74" y="-7"/>
      <point x="68" y="-7" type="curve"/>
      <point x="71" y="32"/>
      <point x="57" y="297"/>
      <point x="56" y="334" type="curve" smooth="yes"/>
      <point x="55" y="359"/>
      <point x="50" y="449"/>
      <point x="47" y="462" type="curve"/>
      <point x="69" y="461"/>
      <point x="97" y="460"/>
      <point x="110" y="464" type="curve"/>
      <point x="109" y="407" type="line"/>
      <point x="137" y="426"/>
      <point x="208" y="453"/>
      <point x="241" y="453" type="curve" smooth="yes"/>
      <point x="287" y="453"/>
      <point x="303" y="410"/>
    </contour>
  </outline>
</glyph>
<glyph name="o" format="1">
  <advance width="354"/>
  <unicode hex="006F"/>
  <outline>
    <contour>
      <point x="319" y="269" type="curve" smooth="yes"/>
      <point x="319" y="111"/>
      <point x="252" y="8"/>
      <point x="171" y="8" type="curve" smooth="yes"/>
      <point x="124" y="8"/>
      <point x="88" y="28"/>
      <point x="62" y="85" type="curve" smooth="yes"/>
      <point x="44" y="125"/>
      <point x="31" y="165"/>
      <point x="31" y="228" type="curve" smooth="yes"/>
      <point x="31" y="392"/>
      <point x="90" y="461"/>
      <point x="172" y="461" type="curve" smooth="yes"/>
      <point x="241" y="461"/>
      <point x="319" y="414"/>
    </contour>
    <contour>
      <point x="266" y="237" type="curve" smooth="yes"/>
      <point x="266" y="369"/>
      <point x="218" y="410"/>
      <point x="166" y="410" type="curve" smooth="yes"/>
      <point x="122" y="410"/>
      <point x="85" y="357"/>
      <point x="85" y="247" type="curve" smooth="yes"/>
      <point x="85" y="135"/>
      <point x="122" y="59"/>
      <point x="173" y="59" type="curve" smooth="yes"/>
      <point x="218" y="59"/>
      <point x="266" y="133"/>
    </contour>
  </outline>
</glyph>
<glyph name="q" format="1">
  <advance width="336"/>
  <unicode hex="0071"/>
  <outline>
    <contour>
      <point x="287" y="63" type="curve" smooth="yes"/>
      <point x="287" y="39"/>
      <point x="281" y="-169"/>
      <point x="282" y="-194" type="curve"/>
      <point x="264" y="-190"/>
      <point x="243" y="-188"/>
      <point x="225" y="-189" type="curve"/>
      <point x="241" y="-102"/>
      <point x="237" y="2"/>
      <point x="236" y="31" type="curve"/>
      <point x="221" y="17"/>
      <point x="174" y="-9"/>
      <point x="160" y="-8" type="curve" smooth="yes"/>
      <point x="132" y="-5"/>
      <point x="96" y="19"/>
      <point x="79" y="38" type="curve" smooth="yes"/>
      <point x="47" y="73"/>
      <point x="32" y="134"/>
      <point x="32" y="215" type="curve" smooth="yes"/>
      <point x="32" y="352"/>
      <point x="51" y="455"/>
      <point x="126" y="455" type="curve" smooth="yes"/>
      <point x="150" y="455"/>
      <point x="212" y="431"/>
      <point x="229" y="418" type="curve"/>
      <point x="227" y="440"/>
      <point x="226" y="460"/>
      <point x="225" y="464" type="curve"/>
      <point x="232" y="465"/>
      <point x="270" y="470"/>
      <point x="282" y="473" type="curve"/>
      <point x="282" y="432"/>
      <point x="287" y="73"/>
    </contour>
    <contour>
      <point x="234" y="89" type="curve"/>
      <point x="233" y="355" type="line"/>
      <point x="203" y="381"/>
      <point x="165" y="402"/>
      <point x="143" y="402" type="curve" smooth="yes"/>
      <point x="106" y="402"/>
      <point x="86" y="355"/>
      <point x="86" y="253" type="curve" smooth="yes"/>
      <point x="86" y="107"/>
      <point x="118" y="48"/>
      <point x="165" y="48" type="curve" smooth="yes"/>
      <point x="191" y="48"/>
      <point x="217" y="67"/>
    </contour>
  </outline>
</glyph>
<glyph name="r" format="1">
  <advance width="231"/>
  <unicode hex="0072"/>
  <outline>
    <contour>
      <point x="223" y="416" type="curve"/>
      <point x="170" y="407"/>
      <point x="122" y="374"/>
      <point x="101" y="342" type="curve"/>
      <point x="99" y="260"/>
      <point x="95" y="60"/>
      <point x="98" y="-3" type="curve"/>
      <point x="87" y="0"/>
      <point x="59" y="2"/>
      <point x="44" y="4" type="curve"/>
      <point x="46" y="36"/>
      <point x="51" y="165"/>
      <point x="51" y="198" type="curve" smooth="yes"/>
      <point x="51" y="221"/>
      <point x="51" y="324"/>
      <point x="51" y="333" type="curve" smooth="yes"/>
      <point x="51" y="346"/>
      <point x="54" y="471"/>
      <point x="53" y="486" type="curve"/>
      <point x="71" y="482"/>
      <point x="97" y="482"/>
      <point x="103" y="482" type="curve"/>
      <point x="104" y="409" type="line"/>
      <point x="126" y="430"/>
      <point x="159" y="456"/>
      <point x="208" y="469" type="curve"/>
      <point x="210" y="452"/>
      <point x="219" y="426"/>
    </contour>
  </outline>
</glyph>
<glyph name="s" format="1">
  <advance width="244"/>
  <unicode hex="0073"/>
  <outline>
    <contour>
      <point x="221" y="114" type="curve" smooth="yes"/>
      <point x="221" y="39"/>
      <point x="149" y="-19"/>
      <point x="77" y="-25" type="curve"/>
      <point x="76" y="-14"/>
      <point x="75" y="8"/>
      <point x="71" y="21" type="curve"/>
      <point x="114" y="27"/>
      <point x="171" y="62"/>
      <point x="171" y="110" type="curve" smooth="yes"/>
      <point x="171" y="174"/>
      <point x="140" y="193"/>
      <point x="99" y="225" type="curve" smooth="yes"/>
      <point x="62" y="255"/>
      <point x="24" y="276"/>
      <point x="24" y="343" type="curve" smooth="yes"/>
      <point x="24" y="424"/>
      <point x="109" y="450"/>
      <point x="189" y="454" type="curve"/>
      <point x="189" y="444"/>
      <point x="193" y="424"/>
      <point x="196" y="410" type="curve"/>
      <point x="115" y="403"/>
      <point x="75" y="378"/>
      <point x="75" y="346" type="curve" smooth="yes"/>
      <point x="75" y="316"/>
      <point x="91" y="300"/>
      <point x="117" y="281" type="curve" smooth="yes"/>
      <point x="161" y="249"/>
      <point x="221" y="219"/>
    </contour>
  </outline>
</glyph>
<glyph name="t" format="1">
  <advance width="213"/>
  <unicode hex="0074"/>
  <outline>
    <contour>
      <point x="200" y="386" type="curve"/>
      <point x="188" y="388"/>
      <point x="136" y="383"/>
      <point x="120" y="383" type="curve"/>
      <point x="119" y="363"/>
      <point x="118" y="316"/>
      <point x="118" y="310" type="curve" smooth="yes"/>
      <point x="117" y="283"/>
      <point x="117" y="172"/>
      <point x="118" y="102" type="curve" smooth="yes"/>
      <point x="119" y="63"/>
      <point x="128" y="36"/>
      <point x="167" y="14" type="curve"/>
      <point x="167" y="14"/>
      <point x="145" y="-18"/>
      <point x="137" y="-30" type="curve"/>
      <point x="79" y="2"/>
      <point x="65" y="50"/>
      <point x="65" y="106" type="curve" smooth="yes"/>
      <point x="65" y="165"/>
      <point x="65" y="203"/>
      <point x="65" y="264" type="curve" smooth="yes"/>
      <point x="65" y="311"/>
      <point x="64" y="349"/>
      <point x="65" y="380" type="curve"/>
      <point x="53" y="384"/>
      <point x="32" y="385"/>
      <point x="15" y="386" type="curve"/>
      <point x="16" y="399"/>
      <point x="16" y="417"/>
      <point x="18" y="430" type="curve"/>
      <point x="32" y="430"/>
      <point x="62" y="432"/>
      <point x="71" y="434" type="curve"/>
      <point x="69" y="443"/>
      <point x="71" y="455"/>
      <point x="71" y="459" type="curve" smooth="yes"/>
      <point x="72" y="491"/>
      <point x="73" y="506"/>
      <point x="75" y="529" type="curve"/>
      <point x="75" y="529"/>
      <point x="120" y="544"/>
      <point x="129" y="550" type="curve"/>
      <point x="127" y="526"/>
      <point x="125" y="475"/>
      <point x="123" y="429" type="curve"/>
      <point x="150" y="430"/>
      <point x="183" y="434"/>
      <point x="199" y="434" type="curve"/>
      <point x="199" y="434"/>
      <point x="198" y="410"/>
    </contour>
  </outline>
</glyph>
<glyph name="u" format="1">
  <advance width="309"/>
  <unicode hex="0075"/>
  <outline>
    <contour>
      <point x="266" y="-15" type="line"/>
      <point x="246" y="-11"/>
      <point x="220" y="-8"/>
      <point x="211" y="-8" type="curve"/>
      <point x="209" y="30" type="line"/>
      <point x="192" y="20"/>
      <point x="125" y="-4"/>
      <point x="108" y="-4" type="curve" smooth="yes"/>
      <point x="87" y="-4"/>
      <point x="53" y="5"/>
      <point x="47" y="28" type="curve" smooth="yes"/>
      <point x="43" y="43"/>
      <point x="40" y="120"/>
      <point x="40" y="155" type="curve" smooth="yes"/>
      <point x="40" y="210"/>
      <point x="41" y="352"/>
      <point x="37" y="374" type="curve"/>
      <point x="37" y="405"/>
      <point x="36" y="434"/>
      <point x="33" y="454" type="curve"/>
      <point x="52" y="456"/>
      <point x="76" y="460"/>
      <point x="90" y="462" type="curve"/>
      <point x="90" y="447"/>
      <point x="93" y="139"/>
      <point x="93" y="132" type="curve" smooth="yes"/>
      <point x="93" y="60"/>
      <point x="96" y="50"/>
      <point x="128" y="50" type="curve" smooth="yes"/>
      <point x="155" y="50"/>
      <point x="193" y="69"/>
      <point x="210" y="86" type="curve"/>
      <point x="210" y="137"/>
      <point x="215" y="308"/>
      <point x="212" y="382" type="curve" smooth="yes"/>
      <point x="211" y="417"/>
      <point x="211" y="442"/>
      <point x="208" y="455" type="curve"/>
      <point x="224" y="462"/>
      <point x="246" y="467"/>
      <point x="265" y="477" type="curve"/>
    </contour>
  </outline>
</glyph>
<glyph name="v" format="1">
  <advance width="295"/>
  <unicode hex="0076"/>
  <outline>
    <contour>
      <point x="281" y="448" type="curve"/>
      <point x="275" y="422"/>
      <point x="207" y="157"/>
      <point x="202" y="136" type="curve" smooth="yes"/>
      <point x="198" y="119"/>
      <point x="173" y="30"/>
      <point x="166" y="-9" type="curve"/>
      <point x="155" y="-10"/>
      <point x="128" y="-15"/>
      <point x="126" y="-16" type="curve"/>
      <point x="121" y="15"/>
      <point x="12" y="429"/>
      <point x="7" y="453" type="curve"/>
      <point x="16" y="457"/>
      <point x="45" y="466"/>
      <point x="54" y="472" type="curve"/>
      <point x="56" y="458"/>
      <point x="93" y="326"/>
      <point x="103" y="283" type="curve" smooth="yes"/>
      <point x="116" y="228"/>
      <point x="138" y="130"/>
      <point x="147" y="80" type="curve"/>
      <point x="155" y="127"/>
      <point x="174" y="214"/>
      <point x="186" y="271" type="curve" smooth="yes"/>
      <point x="194" y="310"/>
      <point x="230" y="434"/>
      <point x="236" y="466" type="curve"/>
      <point x="249" y="459"/>
      <point x="266" y="453"/>
    </contour>
  </outline>
</glyph>
<glyph name="w" format="1">
  <advance width="429"/>
  <unicode hex="0077"/>
  <outline>
    <contour>
      <point x="421" y="460" type="curve"/>
      <point x="414" y="425"/>
      <point x="355" y="155"/>
      <point x="350" y="139" type="curve" smooth="yes"/>
      <point x="346" y="124"/>
      <point x="324" y="5"/>
      <point x="319" y="-19" type="curve"/>
      <point x="306" y="-15"/>
      <point x="291" y="-10"/>
      <point x="274" y="-12" type="curve"/>
      <point x="269" y="18"/>
      <point x="226" y="275"/>
      <point x="219" y="332" type="curve"/>
      <point x="210" y="276"/>
      <point x="158" y="45"/>
      <point x="152" y="-5" type="curve"/>
      <point x="143" y="-3"/>
      <point x="116" y="-1"/>
      <point x="105" y="-1" type="curve"/>
      <point x="98" y="45"/>
      <point x="28" y="408"/>
      <point x="13" y="470" type="curve"/>
      <point x="24" y="473"/>
      <point x="43" y="479"/>
      <point x="56" y="485" type="curve"/>
      <point x="60" y="463"/>
      <point x="82" y="365"/>
      <point x="85" y="350" type="curve" smooth="yes"/>
      <point x="88" y="337"/>
      <point x="124" y="149"/>
      <point x="131" y="89" type="curve"/>
      <point x="142" y="152"/>
      <point x="199" y="427"/>
      <point x="201" y="460" type="curve"/>
      <point x="208" y="459"/>
      <point x="226" y="457"/>
      <point x="240" y="459" type="curve"/>
      <point x="246" y="427"/>
      <point x="292" y="155"/>
      <point x="301" y="91" type="curve"/>
      <point x="312" y="155"/>
      <point x="369" y="441"/>
      <point x="375" y="475" type="curve"/>
      <point x="384" y="472"/>
      <point x="410" y="466"/>
    </contour>
  </outline>
</glyph>
<glyph name="x" format="1">
  <advance width="291"/>
  <unicode hex="0078"/>
  <outline>
    <contour>
      <point x="280" y="457" type="curve"/>
      <point x="268" y="436"/>
      <point x="248" y="384"/>
      <point x="241" y="372" type="curve" smooth="yes"/>
      <point x="236" y="363"/>
      <point x="186" y="247"/>
      <point x="177" y="229" type="curve"/>
      <point x="181" y="217"/>
      <point x="255" y="51"/>
      <point x="263" y="34" type="curve"/>
      <point x="247" y="26"/>
      <point x="223" y="17"/>
      <point x="209" y="7" type="curve"/>
      <point x="197" y="48"/>
      <point x="155" y="150"/>
      <point x="144" y="178" type="curve"/>
      <point x="128" y="135" type="line"/>
      <point x="128" y="135"/>
      <point x="68" y="-6"/>
      <point x="61" y="-25" type="curve"/>
      <point x="45" y="-17"/>
      <point x="31" y="-14"/>
      <point x="17" y="-10" type="curve"/>
      <point x="26" y="10"/>
      <point x="106" y="202"/>
      <point x="116" y="226" type="curve"/>
      <point x="105" y="252"/>
      <point x="28" y="429"/>
      <point x="21" y="445" type="curve"/>
      <point x="33" y="451"/>
      <point x="53" y="458"/>
      <point x="65" y="466" type="curve"/>
      <point x="72" y="446"/>
      <point x="133" y="314"/>
      <point x="150" y="279" type="curve"/>
      <point x="166" y="321"/>
      <point x="228" y="459"/>
      <point x="234" y="478" type="curve"/>
      <point x="246" y="471"/>
      <point x="267" y="461"/>
    </contour>
  </outline>
</glyph>
<glyph name="y" format="1">
  <advance width="304"/>
  <unicode hex="0079"/>
  <outline>
    <contour>
      <point x="299" y="447" type="curve"/>
      <point x="292" y="422"/>
      <point x="124" y="-150"/>
      <point x="115" y="-189" type="curve"/>
      <point x="102" y="-185"/>
      <point x="76" y="-179"/>
      <point x="66" y="-178" type="curve"/>
      <point x="78" y="-151"/>
      <point x="125" y="21"/>
      <point x="131" y="40" type="curve"/>
      <point x="127" y="52"/>
      <point x="112" y="110"/>
      <point x="105" y="134" type="curve" smooth="yes"/>
      <point x="93" y="179"/>
      <point x="9" y="442"/>
      <point x="4" y="460" type="curve"/>
      <point x="19" y="464"/>
      <point x="40" y="467"/>
      <point x="53" y="472" type="curve"/>
      <point x="75" y="406"/>
      <point x="140" y="186"/>
      <point x="159" y="125" type="curve"/>
      <point x="174" y="173"/>
      <point x="251" y="446"/>
      <point x="252" y="459" type="curve"/>
      <point x="262" y="453"/>
      <point x="284" y="449"/>
    </contour>
  </outline>
</glyph>
<glyph name="z" format="1">
  <advance width="273"/>
  <unicode hex="007A"/>
  <outline>
    <contour>
      <point x="258" y="444" type="curve"/>
      <point x="248" y="430"/>
      <point x="199" y="328"/>
      <point x="193" y="318" type="curve" smooth="yes"/>
      <point x="184" y="302"/>
      <point x="93" y="85"/>
      <point x="79" y="55" type="curve"/>
      <point x="104" y="52"/>
      <point x="240" y="30"/>
      <point x="253" y="30" type="curve"/>
      <point x="249" y="23"/>
      <point x="245" y="-7"/>
      <point x="245" y="-20" type="curve"/>
      <point x="239" y="-19"/>
      <point x="149" y="-3"/>
      <point x="103" y="2" type="curve" smooth="yes"/>
      <point x="63" y="7"/>
      <point x="24" y="13"/>
      <point x="16" y="13" type="curve"/>
      <point x="24" y="54"/>
      <point x="122" y="284"/>
      <point x="131" y="304" type="curve" smooth="yes"/>
      <point x="149" y="345"/>
      <point x="171" y="391"/>
      <point x="178" y="406" type="curve"/>
      <point x="159" y="405"/>
      <point x="84" y="406"/>
      <point x="84" y="406" type="curve"/>
      <point x="41" y="412" type="line"/>
      <point x="42" y="418"/>
      <point x="46" y="454"/>
      <point x="46" y="461" type="curve"/>
      <point x="69" y="458"/>
      <point x="234" y="446"/>
    </contour>
  </outline>
</glyph>
<glyph name="braceleft" format="1">
  <advance width="256"/>
  <unicode hex="007B"/>
  <outline>
    <contour>
      <point x="249" y="721" type="curve"/>
      <point x="197" y="694"/>
      <point x="161" y="629"/>
      <point x="161" y="546" type="curve" smooth="yes"/>
      <point x="161" y="514"/>
      <point x="167" y="469"/>
      <point x="180" y="427" type="curve"/>
      <point x="183" y="420"/>
      <point x="184" y="411"/>
      <point x="184" y="404" type="curve" smooth="yes"/>
      <point x="184" y="362"/>
      <point x="150" y="326"/>
      <point x="101" y="315" type="curve"/>
      <point x="130" y="300"/>
      <point x="157" y="275"/>
      <point x="157" y="246" type="curve" smooth="yes"/>
      <point x="157" y="241"/>
      <point x="156" y="234"/>
      <point x="154" y="228" type="curve" smooth="yes"/>
      <point x="133" y="157"/>
      <point x="124" y="102"/>
      <point x="124" y="58" type="curve" smooth="yes"/>
      <point x="124" y="-39"/>
      <point x="176" y="-81"/>
      <point x="246" y="-124" type="curve"/>
      <point x="242" y="-133"/>
      <point x="228" y="-163"/>
      <point x="227" y="-170" type="curve"/>
      <point x="148" y="-144"/>
      <point x="73" y="-80"/>
      <point x="73" y="55" type="curve" smooth="yes"/>
      <point x="73" y="98"/>
      <point x="83" y="152"/>
      <point x="100" y="212" type="curve"/>
      <point x="101" y="219"/>
      <point x="101" y="219"/>
      <point x="101" y="224" type="curve" smooth="yes"/>
      <point x="101" y="257"/>
      <point x="71" y="295"/>
      <point x="23" y="307" type="curve"/>
      <point x="25" y="313"/>
      <point x="31" y="337"/>
      <point x="30" y="342" type="curve"/>
      <point x="69" y="337"/>
      <point x="130" y="364"/>
      <point x="130" y="401" type="curve" smooth="yes"/>
      <point x="130" y="403"/>
      <point x="129" y="404"/>
      <point x="128" y="405" type="curve"/>
      <point x="112" y="454"/>
      <point x="105" y="501"/>
      <point x="105" y="539" type="curve" smooth="yes"/>
      <point x="105" y="663"/>
      <point x="174" y="748"/>
      <point x="240" y="768" type="curve"/>
      <point x="242" y="760"/>
      <point x="245" y="725"/>
    </contour>
  </outline>
</glyph>
<glyph name="bar" format="1">
  <advance width="229"/>
  <unicode hex="007C"/>
  <outline>
    <contour>
      <point x="149" y="703" type="curve"/>
      <point x="138" y="531"/>
      <point x="127" y="27"/>
      <point x="125" y="-168" type="curve"/>
      <point x="108" y="-167"/>
      <point x="86" y="-168"/>
      <point x="72" y="-169" type="curve"/>
      <point x="83" y="18"/>
      <point x="96" y="537"/>
      <point x="91" y="701" type="curve"/>
      <point x="108" y="699"/>
      <point x="133" y="702"/>
    </contour>
  </outline>
</glyph>
<glyph name="braceright" format="1">
  <advance width="256"/>
  <unicode hex="007D"/>
  <outline>
    <contour>
      <point x="241" y="286" type="curve"/>
      <point x="206" y="279"/>
      <point x="185" y="237"/>
      <point x="185" y="207" type="curve" smooth="yes"/>
      <point x="185" y="198"/>
      <point x="186" y="194"/>
      <point x="189" y="188" type="curve" smooth="yes"/>
      <point x="203" y="160"/>
      <point x="210" y="124"/>
      <point x="210" y="100" type="curve" smooth="yes"/>
      <point x="210" y="-18"/>
      <point x="108" y="-132"/>
      <point x="22" y="-168" type="curve"/>
      <point x="19" y="-158"/>
      <point x="4" y="-135"/>
      <point x="-2" y="-128" type="curve"/>
      <point x="74" y="-90"/>
      <point x="160" y="6"/>
      <point x="160" y="92" type="curve" smooth="yes"/>
      <point x="160" y="113"/>
      <point x="154" y="133"/>
      <point x="145" y="153" type="curve"/>
      <point x="136" y="167"/>
      <point x="132" y="186"/>
      <point x="132" y="205" type="curve" smooth="yes"/>
      <point x="132" y="239"/>
      <point x="144" y="274"/>
      <point x="185" y="295" type="curve"/>
      <point x="127" y="307"/>
      <point x="106" y="355"/>
      <point x="106" y="383" type="curve" smooth="yes"/>
      <point x="106" y="388"/>
      <point x="105" y="393"/>
      <point x="107" y="397" type="curve"/>
      <point x="119" y="434"/>
      <point x="126" y="474"/>
      <point x="126" y="510" type="curve" smooth="yes"/>
      <point x="126" y="603"/>
      <point x="62" y="676"/>
      <point x="-19" y="710" type="curve"/>
      <point x="-14" y="715"/>
      <point x="-7" y="741"/>
      <point x="-4" y="753" type="curve"/>
      <point x="108" y="729"/>
      <point x="175" y="620"/>
      <point x="175" y="514" type="curve" smooth="yes"/>
      <point x="175" y="478"/>
      <point x="169" y="438"/>
      <point x="154" y="398" type="curve" smooth="yes"/>
      <point x="152" y="393"/>
      <point x="154" y="393"/>
      <point x="154" y="389" type="curve" smooth="yes"/>
      <point x="154" y="360"/>
      <point x="198" y="323"/>
      <point x="241" y="329" type="curve"/>
      <point x="241" y="318"/>
      <point x="241" y="293"/>
    </contour>
  </outline>
</glyph>
<glyph name="asciitilde" format="1">
  <advance width="577"/>
  <unicode hex="007E"/>
  <outline>
    <contour>
      <point x="556" y="367" type="line"/>
      <point x="513" y="302"/>
      <point x="433" y="250"/>
      <point x="357" y="250" type="curve" smooth="yes"/>
      <point x="322" y="250"/>
      <point x="292" y="265"/>
      <point x="266" y="281" type="curve" smooth="yes"/>
      <point x="232" y="303"/>
      <point x="200" y="327"/>
      <point x="174" y="327" type="curve" smooth="yes"/>
      <point x="140" y="327"/>
      <point x="97" y="294"/>
      <point x="77" y="267" type="curve"/>
      <point x="33" y="294" type="line"/>
      <point x="77" y="348"/>
      <point x="133" y="386"/>
      <point x="180" y="386" type="curve" smooth="yes"/>
      <point x="216" y="386"/>
      <point x="244" y="363"/>
      <point x="273" y="343" type="curve" smooth="yes"/>
      <point x="302" y="322"/>
      <point x="334" y="304"/>
      <point x="366" y="304" type="curve" smooth="yes"/>
      <point x="421" y="304"/>
      <point x="484" y="351"/>
      <point x="512" y="394" type="curve"/>
    </contour>
  </outline>
</glyph>
<glyph name="exclamdown" format="1">
  <advance width="137"/>
  <unicode hex="00A1"/>
  <outline>
    <contour>
      <point x="106" y="454" type="curve" smooth="yes"/>
      <point x="106" y="429"/>
      <point x="88" y="414"/>
      <point x="65" y="414" type="curve" smooth="yes"/>
      <point x="44" y="414"/>
      <point x="28" y="431"/>
      <point x="28" y="455" type="curve" smooth="yes"/>
      <point x="28" y="476"/>
      <point x="41" y="496"/>
      <point x="64" y="496" type="curve" smooth="yes"/>
      <point x="86" y="496"/>
      <point x="106" y="479"/>
    </contour>
    <contour>
      <point x="106" y="-187" type="curve"/>
      <point x="94" y="-192"/>
      <point x="58" y="-201"/>
      <point x="45" y="-209" type="curve"/>
      <point x="49" y="-119"/>
      <point x="46" y="274"/>
      <point x="51" y="337" type="curve"/>
      <point x="62" y="333"/>
      <point x="76" y="329"/>
      <point x="89" y="328" type="curve"/>
      <point x="89" y="238"/>
      <point x="96" y="-57"/>
    </contour>
  </outline>
</glyph>
<glyph name="cent" format="1">
  <advance width="238"/>
  <unicode hex="00A2"/>
  <outline>
    <contour>
      <point x="229" y="30" type="curve"/>
      <point x="228" y="26"/>
      <point x="218" y="-20"/>
      <point x="219" y="-25" type="curve"/>
      <point x="201" y="-22"/>
      <point x="185" y="-18"/>
      <point x="168" y="-13" type="curve"/>
      <point x="166" y="-108" type="line"/>
      <point x="121" y="-104" type="line"/>
      <point x="124" y="9" type="line"/>
      <point x="51" y="50"/>
      <point x="17" y="122"/>
      <point x="17" y="232" type="curve" smooth="yes"/>
      <point x="17" y="294"/>
      <point x="29" y="353"/>
      <point x="53" y="388" type="curve" smooth="yes"/>
      <point x="73" y="417"/>
      <point x="94" y="436"/>
      <point x="122" y="449" type="curve"/>
      <point x="120" y="556" type="line"/>
      <point x="169" y="554" type="line"/>
      <point x="171" y="465" type="line"/>
      <point x="185" y="468"/>
      <point x="201" y="471"/>
      <point x="218" y="473" type="curve"/>
      <point x="223" y="423" type="line"/>
      <point x="214" y="423"/>
      <point x="179" y="415"/>
      <point x="172" y="413" type="curve" smooth="yes"/>
      <point x="110" y="393"/>
      <point x="69" y="348"/>
      <point x="69" y="243" type="curve" smooth="yes"/>
      <point x="69" y="155"/>
      <point x="92" y="70"/>
      <point x="188" y="43" type="curve" smooth="yes"/>
      <point x="204" y="38"/>
      <point x="227" y="30"/>
    </contour>
  </outline>
</glyph>
<glyph name="sterling" format="1">
  <advance width="307"/>
  <unicode hex="00A3"/>
  <outline>
    <contour>
      <point x="294" y="49" type="line"/>
      <point x="239" y="-31"/>
      <point x="96" y="-20"/>
      <point x="15" y="1" type="curve"/>
      <point x="9" y="38" type="line"/>
      <point x="45" y="46"/>
      <point x="94" y="101"/>
      <point x="94" y="161" type="curve" smooth="yes"/>
      <point x="94" y="215"/>
      <point x="83" y="254"/>
      <point x="72" y="297" type="curve"/>
      <point x="36" y="297"/>
      <point x="20" y="301"/>
      <point x="11" y="301" type="curve"/>
      <point x="14" y="313"/>
      <point x="19" y="338"/>
      <point x="20" y="349" type="curve"/>
      <point x="27" y="346"/>
      <point x="35" y="346"/>
      <point x="58" y="345" type="curve"/>
      <point x="49" y="383"/>
      <point x="44" y="417"/>
      <point x="44" y="468" type="curve" smooth="yes"/>
      <point x="44" y="552"/>
      <point x="88" y="670"/>
      <point x="173" y="670" type="curve" smooth="yes"/>
      <point x="208" y="670"/>
      <point x="236" y="660"/>
      <point x="256" y="649" type="curve"/>
      <point x="240" y="597" type="line"/>
      <point x="222" y="604"/>
      <point x="211" y="613"/>
      <point x="183" y="613" type="curve" smooth="yes"/>
      <point x="127" y="613"/>
      <point x="98" y="543"/>
      <point x="98" y="451" type="curve" smooth="yes"/>
      <point x="98" y="408"/>
      <point x="105" y="366"/>
      <point x="114" y="342" type="curve"/>
      <point x="174" y="342"/>
      <point x="205" y="339"/>
      <point x="225" y="340" type="curve"/>
      <point x="224" y="327"/>
      <point x="220" y="300"/>
      <point x="220" y="290" type="curve"/>
      <point x="207" y="290"/>
      <point x="179" y="290"/>
      <point x="127" y="293" type="curve"/>
      <point x="139" y="261"/>
      <point x="145" y="230"/>
      <point x="145" y="190" type="curve" smooth="yes"/>
      <point x="145" y="119"/>
      <point x="124" y="66"/>
      <point x="93" y="39" type="curve"/>
      <point x="153" y="32"/>
      <point x="215" y="36"/>
      <point x="255" y="86" type="curve"/>
    </contour>
  </outline>
</glyph>
<glyph name="yen" format="1">
  <advance width="304"/>
  <unicode hex="00A5"/>
  <outline>
    <contour>
      <point x="291" y="652" type="curve"/>
      <point x="259" y="567"/>
      <point x="207" y="400"/>
      <point x="185" y="336" type="curve"/>
      <point x="186" y="325"/>
      <point x="186" y="295"/>
      <point x="187" y="257" type="curve"/>
      <point x="228" y="256"/>
      <point x="265" y="255"/>
      <point x="271" y="256" type="curve"/>
      <point x="267" y="244"/>
      <point x="265" y="226"/>
      <point x="264" y="208" type="curve"/>
      <point x="257" y="209"/>
      <point x="225" y="211"/>
      <point x="187" y="213" type="curve"/>
      <point x="188" y="195"/>
      <point x="188" y="177"/>
      <point x="188" y="159" type="curve"/>
      <point x="223" y="160"/>
      <point x="254" y="161"/>
      <point x="263" y="162" type="curve"/>
      <point x="264" y="151"/>
      <point x="265" y="137"/>
      <point x="267" y="123" type="curve"/>
      <point x="259" y="123"/>
      <point x="226" y="122"/>
      <point x="188" y="120" type="curve"/>
      <point x="189" y="68"/>
      <point x="189" y="21"/>
      <point x="188" y="3" type="curve"/>
      <point x="180" y="3"/>
      <point x="140" y="4"/>
      <point x="130" y="4" type="curve"/>
      <point x="132" y="23"/>
      <point x="133" y="66"/>
      <point x="134" y="118" type="curve"/>
      <point x="97" y="116"/>
      <point x="65" y="115"/>
      <point x="58" y="114" type="curve"/>
      <point x="58" y="130"/>
      <point x="57" y="143"/>
      <point x="55" y="157" type="curve"/>
      <point x="61" y="157"/>
      <point x="96" y="158"/>
      <point x="135" y="158" type="curve"/>
      <point x="135" y="177"/>
      <point x="136" y="196"/>
      <point x="136" y="215" type="curve"/>
      <point x="99" y="217"/>
      <point x="67" y="218"/>
      <point x="59" y="217" type="curve"/>
      <point x="65" y="236"/>
      <point x="66" y="250"/>
      <point x="67" y="261" type="curve"/>
      <point x="76" y="260"/>
      <point x="104" y="259"/>
      <point x="137" y="258" type="curve"/>
      <point x="137" y="281"/>
      <point x="137" y="302"/>
      <point x="138" y="321" type="curve"/>
      <point x="109" y="406"/>
      <point x="29" y="597"/>
      <point x="8" y="648" type="curve"/>
      <point x="22" y="650"/>
      <point x="56" y="665"/>
      <point x="67" y="673" type="curve"/>
      <point x="72" y="645"/>
      <point x="127" y="479"/>
      <point x="163" y="406" type="curve"/>
      <point x="194" y="508"/>
      <point x="216" y="590"/>
      <point x="233" y="674" type="curve"/>
      <point x="249" y="665"/>
      <point x="275" y="658"/>
    </contour>
  </outline>
</glyph>
<glyph name="section" format="1">
  <advance width="340"/>
  <unicode hex="00A7"/>
  <outline>
    <contour>
      <point x="323" y="285" type="curve" smooth="yes"/>
      <point x="323" y="192"/>
      <point x="285" y="133"/>
      <point x="213" y="87" type="curve"/>
      <point x="246" y="60"/>
      <point x="272" y="25"/>
      <point x="272" y="-13" type="curve" smooth="yes"/>
      <point x="272" y="-135"/>
      <point x="206" y="-180"/>
      <point x="83" y="-200" type="curve"/>
      <point x="85" y="-180"/>
      <point x="83" y="-163"/>
      <point x="82" y="-146" type="curve"/>
      <point x="171" y="-139"/>
      <point x="216" y="-88"/>
      <point x="216" y="-28" type="curve" smooth="yes"/>
      <point x="216" y="15"/>
      <point x="175" y="49"/>
      <point x="118" y="88" type="curve" smooth="yes"/>
      <point x="68" y="123"/>
      <point x="17" y="164"/>
      <point x="17" y="230" type="curve" smooth="yes"/>
      <point x="17" y="315"/>
      <point x="62" y="358"/>
      <point x="138" y="402" type="curve"/>
      <point x="98" y="431"/>
      <point x="67" y="466"/>
      <point x="67" y="518" type="curve" smooth="yes"/>
      <point x="67" y="633"/>
      <point x="172" y="677"/>
      <point x="266" y="675" type="curve"/>
      <point x="266" y="667"/>
      <point x="265" y="639"/>
      <point x="264" y="626" type="curve"/>
      <point x="179" y="625"/>
      <point x="124" y="589"/>
      <point x="124" y="530" type="curve" smooth="yes"/>
      <point x="124" y="475"/>
      <point x="164" y="444"/>
      <point x="219" y="412" type="curve" smooth="yes"/>
      <point x="269" y="382"/>
      <point x="323" y="351"/>
    </contour>
    <contour>
      <point x="273" y="270" type="curve" smooth="yes"/>
      <point x="273" y="314"/>
      <point x="235" y="344"/>
      <point x="184" y="368" type="curve"/>
      <point x="114" y="336"/>
      <point x="73" y="288"/>
      <point x="73" y="241" type="curve" smooth="yes"/>
      <point x="73" y="184"/>
      <point x="115" y="153"/>
      <point x="170" y="118" type="curve"/>
      <point x="222" y="147"/>
      <point x="273" y="206"/>
    </contour>
  </outline>
</glyph>
<glyph name="dieresis" format="1">
  <advance width="252"/>
  <unicode hex="00A8"/>
  <outline>
    <contour>
      <point x="210" y="562" type="curve" smooth="yes"/>
      <point x="210" y="544"/>
      <point x="201" y="528"/>
      <point x="183" y="523" type="curve" smooth="yes"/>
      <point x="163" y="517"/>
      <point x="148" y="528"/>
      <point x="138" y="545" type="curve"/>
      <point x="128" y="569"/>
      <point x="152" y="597"/>
      <point x="178" y="594" type="curve" smooth="yes"/>
      <point x="199" y="591"/>
      <point x="210" y="582"/>
    </contour>
    <contour>
      <point x="96" y="551" type="curve" smooth="yes"/>
      <point x="101" y="527"/>
      <point x="79" y="499"/>
      <point x="54" y="503" type="curve" smooth="yes"/>
      <point x="32" y="507"/>
      <point x="22" y="525"/>
      <point x="22" y="544" type="curve" smooth="yes"/>
      <point x="22" y="562"/>
      <point x="32" y="578"/>
      <point x="49" y="583" type="curve" smooth="yes"/>
      <point x="70" y="588"/>
      <point x="92" y="573"/>
    </contour>
  </outline>
</glyph>
<glyph name="copyright" format="1">
  <advance width="555"/>
  <unicode hex="00A9"/>
  <outline>
    <contour>
      <point x="521" y="316" type="curve" smooth="yes"/>
      <point x="521" y="171"/>
      <point x="441" y="-4"/>
      <point x="293" y="-4" type="curve" smooth="yes"/>
      <point x="152" y="-4"/>
      <point x="34" y="155"/>
      <point x="34" y="344" type="curve" smooth="yes"/>
      <point x="34" y="534"/>
      <point x="132" y="681"/>
      <point x="308" y="681" type="curve" smooth="yes"/>
      <point x="438" y="681"/>
      <point x="521" y="444"/>
    </contour>
    <contour>
      <point x="479" y="310" type="curve" smooth="yes"/>
      <point x="479" y="426"/>
      <point x="410" y="641"/>
      <point x="296" y="641" type="curve" smooth="yes"/>
      <point x="144" y="641"/>
      <point x="73" y="496"/>
      <point x="73" y="342" type="curve" smooth="yes"/>
      <point x="73" y="192"/>
      <point x="173" y="34"/>
      <point x="282" y="34" type="curve" smooth="yes"/>
      <point x="405" y="34"/>
      <point x="479" y="183"/>
    </contour>
    <contour>
      <point x="333" y="142" type="curve"/>
      <point x="332" y="131"/>
      <point x="331" y="114"/>
      <point x="330" y="104" type="curve"/>
      <point x="190" y="129"/>
      <point x="159" y="219"/>
      <point x="159" y="352" type="curve" smooth="yes"/>
      <point x="159" y="485"/>
      <point x="219" y="595"/>
      <point x="331" y="572" type="curve"/>
      <point x="330" y="568"/>
      <point x="331" y="554"/>
      <point x="332" y="542" type="curve"/>
      <point x="269" y="547"/>
      <point x="200" y="509"/>
      <point x="200" y="350" type="curve" smooth="yes"/>
      <point x="200" y="219"/>
      <point x="239" y="154"/>
    </contour>
  </outline>
</glyph>
<glyph name="ordfeminine" format="1">
  <advance width="208"/>
  <unicode hex="00AA"/>
  <outline>
    <contour>
      <point x="181" y="350" type="curve"/>
      <point x="173" y="349"/>
      <point x="152" y="344"/>
      <point x="142" y="341" type="curve"/>
      <point x="141" y="353"/>
      <point x="137" y="378"/>
      <point x="135" y="393" type="curve"/>
      <point x="117" y="377"/>
      <point x="88" y="356"/>
      <point x="57" y="356" type="curve" smooth="yes"/>
      <point x="33" y="356"/>
      <point x="6" y="387"/>
      <point x="6" y="450" type="curve" smooth="yes"/>
      <point x="6" y="489"/>
      <point x="29" y="526"/>
      <point x="57" y="538" type="curve" smooth="yes"/>
      <point x="88" y="551"/>
      <point x="122" y="565"/>
      <point x="137" y="569" type="curve"/>
      <point x="136" y="605"/>
      <point x="133" y="622"/>
      <point x="118" y="630" type="curve" smooth="yes"/>
      <point x="103" y="638"/>
      <point x="76" y="644"/>
      <point x="60" y="645" type="curve"/>
      <point x="61" y="650"/>
      <point x="66" y="678"/>
      <point x="65" y="685" type="curve"/>
      <point x="89" y="682"/>
      <point x="130" y="678"/>
      <point x="153" y="664" type="curve" smooth="yes"/>
      <point x="173" y="652"/>
      <point x="178" y="614"/>
      <point x="178" y="605" type="curve" smooth="yes"/>
      <point x="178" y="599"/>
      <point x="179" y="493"/>
      <point x="179" y="426" type="curve" smooth="yes"/>
      <point x="179" y="396"/>
      <point x="179" y="360"/>
    </contour>
    <contour>
      <point x="135" y="530" type="curve"/>
      <point x="122" y="523"/>
      <point x="101" y="514"/>
      <point x="84" y="507" type="curve" smooth="yes"/>
      <point x="65" y="499"/>
      <point x="51" y="477"/>
      <point x="51" y="460" type="curve" smooth="yes"/>
      <point x="51" y="423"/>
      <point x="58" y="405"/>
      <point x="72" y="405" type="curve" smooth="yes"/>
      <point x="89" y="405"/>
      <point x="122" y="428"/>
      <point x="134" y="440" type="curve"/>
      <point x="135" y="446"/>
      <point x="136" y="506"/>
    </contour>
  </outline>
</glyph>
<glyph name="guillemotleft" format="1">
  <advance width="304"/>
  <unicode hex="00AB"/>
  <outline>
    <contour>
      <point x="273" y="85" type="curve"/>
      <point x="276" y="86"/>
      <point x="237" y="59"/>
      <point x="235" y="54" type="curve"/>
      <point x="228" y="73"/>
      <point x="160" y="184"/>
      <point x="142" y="204" type="curve"/>
      <point x="142" y="264" type="line"/>
      <point x="146" y="269"/>
      <point x="233" y="398"/>
      <point x="237" y="409" type="curve"/>
      <point x="233" y="410"/>
      <point x="272" y="377"/>
      <point x="271" y="375" type="curve"/>
      <point x="270" y="369"/>
      <point x="189" y="248"/>
      <point x="188" y="236" type="curve"/>
      <point x="193" y="217"/>
      <point x="254" y="114"/>
    </contour>
    <contour>
      <point x="146" y="377" type="curve"/>
      <point x="127" y="349"/>
      <point x="66" y="245"/>
      <point x="61" y="227" type="curve"/>
      <point x="62" y="215"/>
      <point x="142" y="94"/>
      <point x="145" y="87" type="curve"/>
      <point x="145" y="85"/>
      <point x="106" y="52"/>
      <point x="110" y="53" type="curve"/>
      <point x="106" y="65"/>
      <point x="19" y="193"/>
      <point x="15" y="199" type="curve"/>
      <point x="15" y="258" type="line"/>
      <point x="33" y="278"/>
      <point x="101" y="389"/>
      <point x="108" y="408" type="curve"/>
      <point x="110" y="404"/>
      <point x="149" y="376"/>
    </contour>
  </outline>
</glyph>
<glyph name="macron" format="1">
  <advance width="252"/>
  <unicode hex="00AF"/>
  <unicode hex="02C9"/>
  <outline>
    <contour>
      <point x="195" y="549" type="line"/>
      <point x="190" y="512" type="line"/>
      <point x="42" y="499" type="line"/>
      <point x="37" y="540" type="line"/>
    </contour>
  </outline>
</glyph>
<glyph name="degree" format="1">
  <advance width="295"/>
  <unicode hex="00B0"/>
  <outline>
    <contour>
      <point x="258" y="640" type="curve" smooth="yes"/>
      <point x="291" y="580"/>
      <point x="269" y="508"/>
      <point x="210" y="470" type="curve" smooth="yes"/>
      <point x="149" y="430"/>
      <point x="67" y="442"/>
      <point x="31" y="505" type="curve" smooth="yes"/>
      <point x="-6" y="570"/>
      <point x="16" y="647"/>
      <point x="90" y="669" type="curve" smooth="yes"/>
      <point x="152" y="688"/>
      <point x="238" y="675"/>
    </contour>
    <contour>
      <point x="222" y="555" type="curve" smooth="yes"/>
      <point x="234" y="611"/>
      <point x="187" y="643"/>
      <point x="123" y="629" type="curve" smooth="yes"/>
      <point x="96" y="623"/>
      <point x="76" y="615"/>
      <point x="68" y="577" type="curve" smooth="yes"/>
      <point x="60" y="535"/>
      <point x="87" y="494"/>
      <point x="143" y="496" type="curve" smooth="yes"/>
      <point x="175" y="497"/>
      <point x="216" y="527"/>
    </contour>
  </outline>
</glyph>
<glyph name="acute" format="1">
  <advance width="252"/>
  <unicode hex="00B4"/>
  <outline>
    <contour>
      <point x="191" y="587" type="line"/>
      <point x="74" y="502" type="line"/>
      <point x="55" y="526" type="line"/>
      <point x="155" y="638" type="line"/>
    </contour>
  </outline>
</glyph>
<glyph name="paragraph" format="1">
  <advance width="386"/>
  <unicode hex="00B6"/>
  <outline>
    <contour>
      <point x="340" y="22" type="curve"/>
      <point x="329" y="25"/>
      <point x="301" y="27"/>
      <point x="285" y="28" type="curve"/>
      <point x="288" y="170"/>
      <point x="284" y="505"/>
      <point x="277" y="631" type="curve"/>
      <point x="165" y="622"/>
      <point x="72" y="574"/>
      <point x="72" y="499" type="curve" smooth="yes"/>
      <point x="72" y="423"/>
      <point x="112" y="381"/>
      <point x="175" y="365" type="curve"/>
      <point x="174" y="424"/>
      <point x="173" y="478"/>
      <point x="172" y="502" type="curve"/>
      <point x="192" y="499"/>
      <point x="213" y="500"/>
      <point x="227" y="500" type="curve"/>
      <point x="223" y="411"/>
      <point x="221" y="58"/>
      <point x="224" y="-37" type="curve"/>
      <point x="212" y="-35"/>
      <point x="189" y="-35"/>
      <point x="179" y="-36" type="curve"/>
      <point x="181" y="15"/>
      <point x="179" y="171"/>
      <point x="176" y="309" type="curve"/>
      <point x="77" y="328"/>
      <point x="15" y="407"/>
      <point x="15" y="508" type="curve" smooth="yes"/>
      <point x="15" y="624"/>
      <point x="195" y="681"/>
      <point x="295" y="681" type="curve" smooth="yes"/>
      <point x="311" y="681"/>
      <point x="324" y="680"/>
      <point x="334" y="677" type="curve"/>
      <point x="332" y="544"/>
      <point x="332" y="144"/>
    </contour>
  </outline>
</glyph>
<glyph name="periodcentered" format="1">
  <advance width="142"/>
  <unicode hex="00B7"/>
  <unicode hex="2219"/>
  <outline>
    <contour>
      <point x="109" y="331" type="curve" smooth="yes"/>
      <point x="109" y="314"/>
      <point x="99" y="292"/>
      <point x="76" y="289" type="curve"/>
      <point x="62" y="285"/>
      <point x="31" y="304"/>
      <point x="31" y="333" type="curve" smooth="yes"/>
      <point x="31" y="363"/>
      <point x="56" y="375"/>
      <point x="74" y="373" type="curve" smooth="yes"/>
      <point x="89" y="372"/>
      <point x="109" y="350"/>
    </contour>
  </outline>
</glyph>
<glyph name="cedilla" format="1">
  <advance width="252"/>
  <unicode hex="00B8"/>
  <outline>
    <contour>
      <point x="147" y="-94" type="curve" smooth="yes"/>
      <point x="147" y="-145"/>
      <point x="117" y="-174"/>
      <point x="71" y="-185" type="curve"/>
      <point x="62" y="-147" type="line"/>
      <point x="88" y="-142"/>
      <point x="105" y="-125"/>
      <point x="105" y="-103" type="curve" smooth="yes"/>
      <point x="105" y="-73"/>
      <point x="81" y="-63"/>
      <point x="60" y="-54" type="curve"/>
      <point x="99" y="39" type="line"/>
      <point x="137" y="23" type="line"/>
      <point x="111" y="-38" type="line"/>
      <point x="131" y="-50"/>
      <point x="147" y="-68"/>
    </contour>
  </outline>
</glyph>
<glyph name="ordmasculine" format="1">
  <advance width="239"/>
  <unicode hex="00BA"/>
  <outline>
    <contour>
      <point x="216" y="549" type="curve" smooth="yes"/>
      <point x="216" y="441"/>
      <point x="171" y="372"/>
      <point x="116" y="372" type="curve" smooth="yes"/>
      <point x="82" y="372"/>
      <point x="61" y="386"/>
      <point x="41" y="427" type="curve" smooth="yes"/>
      <point x="29" y="451"/>
      <point x="22" y="484"/>
      <point x="22" y="520" type="curve" smooth="yes"/>
      <point x="22" y="635"/>
      <point x="61" y="680"/>
      <point x="117" y="680" type="curve" smooth="yes"/>
      <point x="169" y="680"/>
      <point x="216" y="650"/>
    </contour>
    <contour>
      <point x="172" y="527" type="curve" smooth="yes"/>
      <point x="172" y="611"/>
      <point x="142" y="636"/>
      <point x="112" y="636" type="curve" smooth="yes"/>
      <point x="84" y="636"/>
      <point x="65" y="598"/>
      <point x="65" y="534" type="curve" smooth="yes"/>
      <point x="65" y="463"/>
      <point x="87" y="420"/>
      <point x="117" y="420" type="curve" smooth="yes"/>
      <point x="144" y="420"/>
      <point x="172" y="458"/>
    </contour>
  </outline>
</glyph>
<glyph name="guillemotright" format="1">
  <advance width="304"/>
  <unicode hex="00BB"/>
  <outline>
    <contour>
      <point x="275" y="204" type="line"/>
      <point x="258" y="184"/>
      <point x="189" y="73"/>
      <point x="182" y="54" type="curve"/>
      <point x="180" y="59"/>
      <point x="141" y="86"/>
      <point x="144" y="85" type="curve"/>
      <point x="163" y="114"/>
      <point x="225" y="217"/>
      <point x="230" y="236" type="curve"/>
      <point x="228" y="248"/>
      <point x="149" y="369"/>
      <point x="145" y="375" type="curve"/>
      <point x="145" y="377"/>
      <point x="184" y="410"/>
      <point x="180" y="409" type="curve"/>
      <point x="184" y="398"/>
      <point x="271" y="269"/>
      <point x="275" y="264" type="curve"/>
    </contour>
    <contour>
      <point x="148" y="199" type="line"/>
      <point x="144" y="193"/>
      <point x="57" y="65"/>
      <point x="53" y="53" type="curve"/>
      <point x="57" y="52"/>
      <point x="18" y="85"/>
      <point x="19" y="87" type="curve"/>
      <point x="20" y="93"/>
      <point x="101" y="215"/>
      <point x="103" y="227" type="curve"/>
      <point x="98" y="245"/>
      <point x="37" y="347"/>
      <point x="18" y="377" type="curve"/>
      <point x="14" y="376"/>
      <point x="53" y="404"/>
      <point x="55" y="408" type="curve"/>
      <point x="62" y="389"/>
      <point x="131" y="278"/>
      <point x="148" y="258" type="curve"/>
    </contour>
  </outline>
</glyph>
<glyph name="questiondown" format="1">
  <advance width="200"/>
  <unicode hex="00BF"/>
  <outline>
    <contour>
      <point x="146" y="425" type="curve" smooth="yes"/>
      <point x="146" y="401"/>
      <point x="128" y="385"/>
      <point x="106" y="385" type="curve" smooth="yes"/>
      <point x="84" y="385"/>
      <point x="69" y="403"/>
      <point x="69" y="426" type="curve" smooth="yes"/>
      <point x="69" y="447"/>
      <point x="80" y="467"/>
      <point x="104" y="467" type="curve" smooth="yes"/>
      <point x="126" y="467"/>
      <point x="146" y="450"/>
    </contour>
    <contour>
      <point x="183" y="-156" type="curve"/>
      <point x="182" y="-159"/>
      <point x="169" y="-198"/>
      <point x="167" y="-208" type="curve"/>
      <point x="-25" y="-152"/>
      <point x="-23" y="-54"/>
      <point x="108" y="236" type="curve"/>
      <point x="80" y="308" type="line"/>
      <point x="121" y="336" type="line"/>
      <point x="161" y="224" type="line"/>
      <point x="41" y="-2"/>
      <point x="36" y="-126"/>
    </contour>
  </outline>
</glyph>
<glyph name="Aring" format="1">
  <advance width="327"/>
  <unicode hex="00C5"/>
  <outline>
    <contour>
      <point x="311" y="-9" type="curve"/>
      <point x="300" y="-11"/>
      <point x="267" y="-21"/>
      <point x="260" y="-24" type="curve"/>
      <point x="259" y="-18"/>
      <point x="243" y="51"/>
      <point x="236" y="93" type="curve" smooth="yes"/>
      <point x="233" y="110"/>
      <point x="230" y="128"/>
      <point x="228" y="139" type="curve"/>
      <point x="211" y="140"/>
      <point x="105" y="132"/>
      <point x="92" y="131" type="curve"/>
      <point x="90" y="117"/>
      <point x="66" y="-9"/>
      <point x="65" y="-20" type="curve"/>
      <point x="53" y="-13"/>
      <point x="22" y="-2"/>
      <point x="17" y="1" type="curve"/>
      <point x="21" y="21"/>
      <point x="73" y="346"/>
      <point x="105" y="576" type="curve" smooth="yes"/>
      <point x="110" y="614"/>
      <point x="117" y="656"/>
      <point x="118" y="664" type="curve"/>
      <point x="130" y="664"/>
      <point x="162" y="667"/>
      <point x="174" y="669" type="curve"/>
      <point x="177" y="654"/>
      <point x="307" y="11"/>
    </contour>
    <contour>
      <point x="218" y="193" type="curve"/>
      <point x="204" y="256"/>
      <point x="159" y="497"/>
      <point x="148" y="543" type="curve"/>
      <point x="142" y="494"/>
      <point x="103" y="216"/>
      <point x="98" y="181" type="curve"/>
      <point x="124" y="186"/>
      <point x="197" y="188"/>
    </contour>
    <contour>
      <point x="229" y="794" type="curve" smooth="yes"/>
      <point x="229" y="749"/>
      <point x="185" y="712"/>
      <point x="142" y="712" type="curve" smooth="yes"/>
      <point x="96" y="712"/>
      <point x="53" y="753"/>
      <point x="53" y="800" type="curve" smooth="yes"/>
      <point x="53" y="835"/>
      <point x="86" y="870"/>
      <point x="146" y="870" type="curve" smooth="yes"/>
      <point x="203" y="870"/>
      <point x="229" y="831"/>
    </contour>
    <contour>
      <point x="191" y="794" type="curve" smooth="yes"/>
      <point x="191" y="825"/>
      <point x="164" y="838"/>
      <point x="145" y="838" type="curve" smooth="yes"/>
      <point x="112" y="838"/>
      <point x="92" y="824"/>
      <point x="92" y="789" type="curve" smooth="yes"/>
      <point x="92" y="769"/>
      <point x="115" y="746"/>
      <point x="138" y="746" type="curve" smooth="yes"/>
      <point x="172" y="746"/>
      <point x="191" y="770"/>
    </contour>
  </outline>
</glyph>
<glyph name="AE" format="1">
  <advance width="527"/>
  <unicode hex="00C6"/>
  <outline>
    <contour>
      <point x="491" y="47" type="curve"/>
      <point x="489" y="31"/>
      <point x="486" y="8"/>
      <point x="484" y="-7" type="curve"/>
      <point x="486" y="-6"/>
      <point x="433" y="-5"/>
      <point x="392" y="-3" type="curve" smooth="yes"/>
      <point x="325" y="-1"/>
      <point x="254" y="2"/>
      <point x="232" y="3" type="curve"/>
      <point x="233" y="18"/>
      <point x="234" y="76"/>
      <point x="238" y="144" type="curve"/>
      <point x="182" y="141"/>
      <point x="113" y="136"/>
      <point x="102" y="135" type="curve"/>
      <point x="99" y="128"/>
      <point x="59" y="1"/>
      <point x="54" y="-18" type="curve"/>
      <point x="41" y="-11"/>
      <point x="11" y="-3"/>
      <point x="3" y="0" type="curve"/>
      <point x="10" y="26"/>
      <point x="126" y="359"/>
      <point x="185" y="578" type="curve" smooth="yes"/>
      <point x="195" y="615"/>
      <point x="203" y="652"/>
      <point x="204" y="666" type="curve"/>
      <point x="211" y="666"/>
      <point x="259" y="667"/>
      <point x="335" y="667" type="curve" smooth="yes"/>
      <point x="368" y="667"/>
      <point x="471" y="663"/>
      <point x="484" y="663" type="curve"/>
      <point x="483" y="649"/>
      <point x="479" y="616"/>
      <point x="478" y="603" type="curve"/>
      <point x="464" y="605"/>
      <point x="406" y="612"/>
      <point x="369" y="614" type="curve" smooth="yes"/>
      <point x="341" y="615"/>
      <point x="311" y="612"/>
      <point x="298" y="613" type="curve"/>
      <point x="296" y="530"/>
      <point x="298" y="466"/>
      <point x="298" y="385" type="curve"/>
      <point x="317" y="384"/>
      <point x="339" y="383"/>
      <point x="364" y="383" type="curve" smooth="yes"/>
      <point x="401" y="383"/>
      <point x="449" y="390"/>
      <point x="460" y="392" type="curve"/>
      <point x="460" y="377"/>
      <point x="458" y="345"/>
      <point x="458" y="329" type="curve"/>
      <point x="446" y="329"/>
      <point x="404" y="330"/>
      <point x="371" y="330" type="curve" smooth="yes"/>
      <point x="343" y="330"/>
      <point x="309" y="328"/>
      <point x="299" y="331" type="curve"/>
      <point x="295" y="262"/>
      <point x="298" y="134"/>
      <point x="298" y="58" type="curve"/>
      <point x="318" y="53"/>
      <point x="358" y="53"/>
      <point x="367" y="52" type="curve" smooth="yes"/>
      <point x="376" y="51"/>
      <point x="473" y="47"/>
    </contour>
    <contour>
      <point x="243" y="294" type="curve" smooth="yes"/>
      <point x="245" y="415"/>
      <point x="243" y="536"/>
      <point x="242" y="613" type="curve"/>
      <point x="238" y="598"/>
      <point x="222" y="526"/>
      <point x="218" y="512" type="curve" smooth="yes"/>
      <point x="210" y="480"/>
      <point x="117" y="194"/>
      <point x="117" y="183" type="curve"/>
      <point x="138" y="186"/>
      <point x="195" y="193"/>
      <point x="240" y="197" type="curve"/>
      <point x="241" y="231"/>
      <point x="242" y="254"/>
    </contour>
  </outline>
</glyph>
<glyph name="Ccedilla" format="1">
  <advance width="342"/>
  <unicode hex="00C7"/>
  <outline>
    <contour>
      <point x="321" y="47" type="curve"/>
      <point x="319" y="41"/>
      <point x="316" y="16"/>
      <point x="316" y="-7" type="curve"/>
      <point x="285" y="-3"/>
      <point x="258" y="2"/>
      <point x="233" y="9" type="curve"/>
      <point x="222" y="-18" type="line"/>
      <point x="242" y="-30"/>
      <point x="258" y="-48"/>
      <point x="258" y="-74" type="curve" smooth="yes"/>
      <point x="258" y="-125"/>
      <point x="228" y="-154"/>
      <point x="182" y="-165" type="curve"/>
      <point x="173" y="-127" type="line"/>
      <point x="199" y="-122"/>
      <point x="216" y="-105"/>
      <point x="216" y="-83" type="curve" smooth="yes"/>
      <point x="216" y="-53"/>
      <point x="192" y="-43"/>
      <point x="171" y="-34" type="curve"/>
      <point x="194" y="21" type="line"/>
      <point x="65" y="72"/>
      <point x="37" y="178"/>
      <point x="37" y="344" type="curve" smooth="yes"/>
      <point x="37" y="511"/>
      <point x="109" y="671"/>
      <point x="257" y="671" type="curve" smooth="yes"/>
      <point x="275" y="671"/>
      <point x="296" y="671"/>
      <point x="314" y="670" type="curve"/>
      <point x="313" y="662"/>
      <point x="313" y="640"/>
      <point x="316" y="623" type="curve"/>
      <point x="309" y="624"/>
      <point x="303" y="624"/>
      <point x="296" y="624" type="curve" smooth="yes"/>
      <point x="188" y="624"/>
      <point x="96" y="561"/>
      <point x="96" y="341" type="curve" smooth="yes"/>
      <point x="96" y="147"/>
      <point x="143" y="63"/>
    </contour>
  </outline>
</glyph>
<glyph name="Eth" format="1">
  <advance width="421"/>
  <unicode hex="00D0"/>
  <outline>
    <contour>
      <point x="384" y="385" type="curve" smooth="yes"/>
      <point x="384" y="145"/>
      <point x="274" y="-2"/>
      <point x="152" y="-2" type="curve" smooth="yes"/>
      <point x="115" y="-2"/>
      <point x="82" y="11"/>
      <point x="70" y="14" type="curve"/>
      <point x="73" y="31"/>
      <point x="74" y="185"/>
      <point x="75" y="296" type="curve"/>
      <point x="50" y="296"/>
      <point x="29" y="297"/>
      <point x="18" y="297" type="curve"/>
      <point x="18" y="314"/>
      <point x="15" y="336"/>
      <point x="14" y="362" type="curve"/>
      <point x="25" y="361"/>
      <point x="47" y="361"/>
      <point x="75" y="361" type="curve"/>
      <point x="75" y="377"/>
      <point x="75" y="390"/>
      <point x="75" y="399" type="curve" smooth="yes"/>
      <point x="75" y="509"/>
      <point x="72" y="643"/>
      <point x="70" y="669" type="curve"/>
      <point x="85" y="675"/>
      <point x="119" y="675"/>
      <point x="145" y="675" type="curve" smooth="yes"/>
      <point x="293" y="675"/>
      <point x="384" y="596"/>
    </contour>
    <contour>
      <point x="325" y="380" type="curve" smooth="yes"/>
      <point x="325" y="599"/>
      <point x="240" y="621"/>
      <point x="128" y="622" type="curve"/>
      <point x="128" y="544"/>
      <point x="128" y="450"/>
      <point x="128" y="362" type="curve"/>
      <point x="157" y="363"/>
      <point x="183" y="365"/>
      <point x="191" y="366" type="curve"/>
      <point x="189" y="345"/>
      <point x="191" y="320"/>
      <point x="191" y="293" type="curve"/>
      <point x="184" y="294"/>
      <point x="158" y="295"/>
      <point x="128" y="295" type="curve"/>
      <point x="128" y="205"/>
      <point x="128" y="118"/>
      <point x="130" y="58" type="curve"/>
      <point x="141" y="55"/>
      <point x="152" y="53"/>
      <point x="162" y="53" type="curve" smooth="yes"/>
      <point x="267" y="53"/>
      <point x="325" y="212"/>
    </contour>
  </outline>
</glyph>
<glyph name="Oslash" format="1">
  <advance width="400"/>
  <unicode hex="00D8"/>
  <outline>
    <contour>
      <point x="370" y="659" type="curve"/>
      <point x="358" y="634"/>
      <point x="344" y="603"/>
      <point x="327" y="567" type="curve"/>
      <point x="349" y="517"/>
      <point x="362" y="445"/>
      <point x="362" y="348" type="curve" smooth="yes"/>
      <point x="362" y="81"/>
      <point x="261" y="-5"/>
      <point x="182" y="-5" type="curve" smooth="yes"/>
      <point x="152" y="-5"/>
      <point x="123" y="13"/>
      <point x="99" y="49" type="curve"/>
      <point x="87" y="21"/>
      <point x="76" y="-4"/>
      <point x="67" y="-26" type="curve"/>
      <point x="55" y="-20"/>
      <point x="34" y="-11"/>
      <point x="24" y="-7" type="curve"/>
      <point x="37" y="22"/>
      <point x="54" y="59"/>
      <point x="73" y="100" type="curve"/>
      <point x="50" y="158"/>
      <point x="36" y="240"/>
      <point x="36" y="346" type="curve" smooth="yes"/>
      <point x="36" y="541"/>
      <point x="59" y="671"/>
      <point x="185" y="671" type="curve" smooth="yes"/>
      <point x="227" y="671"/>
      <point x="266" y="656"/>
      <point x="297" y="618" type="curve"/>
      <point x="307" y="642"/>
      <point x="315" y="662"/>
      <point x="322" y="679" type="curve"/>
      <point x="333" y="673"/>
      <point x="358" y="666"/>
    </contour>
    <contour>
      <point x="271" y="557" type="curve"/>
      <point x="247" y="607"/>
      <point x="211" y="619"/>
      <point x="172" y="619" type="curve" smooth="yes"/>
      <point x="108" y="619"/>
      <point x="94" y="485"/>
      <point x="94" y="353" type="curve" smooth="yes"/>
      <point x="94" y="282"/>
      <point x="98" y="223"/>
      <point x="107" y="177" type="curve"/>
      <point x="162" y="301"/>
      <point x="225" y="447"/>
    </contour>
    <contour>
      <point x="304" y="345" type="curve" smooth="yes"/>
      <point x="304" y="406"/>
      <point x="300" y="453"/>
      <point x="293" y="490" type="curve"/>
      <point x="240" y="373"/>
      <point x="176" y="229"/>
      <point x="125" y="111" type="curve"/>
      <point x="142" y="69"/>
      <point x="166" y="48"/>
      <point x="195" y="48" type="curve" smooth="yes"/>
      <point x="258" y="48"/>
      <point x="304" y="178"/>
    </contour>
  </outline>
</glyph>
<glyph name="Thorn" format="1">
  <advance width="359"/>
  <unicode hex="00DE"/>
  <outline>
    <contour>
      <point x="342" y="363" type="curve" smooth="yes"/>
      <point x="342" y="274"/>
      <point x="234" y="164"/>
      <point x="118" y="163" type="curve"/>
      <point x="118" y="132"/>
      <point x="118" y="66"/>
      <point x="122" y="16" type="curve"/>
      <point x="99" y="7"/>
      <point x="60" y="-2"/>
      <point x="60" y="-2" type="curve"/>
      <point x="60" y="54"/>
      <point x="64" y="201"/>
      <point x="63" y="308" type="curve" smooth="yes"/>
      <point x="63" y="382"/>
      <point x="57" y="606"/>
      <point x="50" y="648" type="curve"/>
      <point x="60" y="653"/>
      <point x="98" y="668"/>
      <point x="111" y="673" type="curve"/>
      <point x="112" y="637"/>
      <point x="112" y="577"/>
      <point x="113" y="549" type="curve"/>
      <point x="284" y="550"/>
      <point x="342" y="517"/>
    </contour>
    <contour>
      <point x="286" y="371" type="curve" smooth="yes"/>
      <point x="286" y="472"/>
      <point x="247" y="496"/>
      <point x="112" y="496" type="curve"/>
      <point x="112" y="464"/>
      <point x="115" y="403"/>
      <point x="117" y="350" type="curve" smooth="yes"/>
      <point x="119" y="309"/>
      <point x="120" y="248"/>
      <point x="119" y="216" type="curve"/>
      <point x="199" y="214"/>
      <point x="286" y="289"/>
    </contour>
  </outline>
</glyph>
<glyph name="germandbls" format="1">
  <advance width="366"/>
  <unicode hex="00DF"/>
  <outline>
    <contour>
      <point x="352" y="89" type="curve" smooth="yes"/>
      <point x="352" y="16"/>
      <point x="276" y="-20"/>
      <point x="204" y="-25" type="curve"/>
      <point x="204" y="-15"/>
      <point x="200" y="9"/>
      <point x="195" y="21" type="curve"/>
      <point x="224" y="22"/>
      <point x="301" y="43"/>
      <point x="301" y="88" type="curve" smooth="yes"/>
      <point x="301" y="161"/>
      <point x="257" y="197"/>
      <point x="216" y="234" type="curve" smooth="yes"/>
      <point x="184" y="264"/>
      <point x="149" y="295"/>
      <point x="149" y="355" type="curve" smooth="yes"/>
      <point x="149" y="404"/>
      <point x="172" y="426"/>
      <point x="195" y="454" type="curve" smooth="yes"/>
      <point x="213" y="477"/>
      <point x="230" y="502"/>
      <point x="230" y="537" type="curve" smooth="yes"/>
      <point x="230" y="599"/>
      <point x="219" y="626"/>
      <point x="166" y="626" type="curve" smooth="yes"/>
      <point x="137" y="626"/>
      <point x="120" y="615"/>
      <point x="109" y="585" type="curve" smooth="yes"/>
      <point x="105" y="572"/>
      <point x="107" y="532"/>
      <point x="108" y="516" type="curve" smooth="yes"/>
      <point x="109" y="501"/>
      <point x="112" y="233"/>
      <point x="112" y="233" type="curve" smooth="yes"/>
      <point x="113" y="181"/>
      <point x="113" y="-3"/>
      <point x="113" y="-3" type="curve"/>
      <point x="119" y="2"/>
      <point x="57" y="2"/>
      <point x="50" y="2" type="curve"/>
      <point x="51" y="4"/>
      <point x="58" y="67"/>
      <point x="61" y="117" type="curve" smooth="yes"/>
      <point x="63" y="154"/>
      <point x="63" y="200"/>
      <point x="63" y="211" type="curve" smooth="yes"/>
      <point x="63" y="401" type="line"/>
      <point x="50" y="402"/>
      <point x="11" y="409"/>
      <point x="11" y="409" type="curve"/>
      <point x="7" y="451" type="line"/>
      <point x="63" y="450" type="line"/>
      <point x="64" y="492"/>
      <point x="63" y="542"/>
      <point x="61" y="559" type="curve" smooth="yes"/>
      <point x="50" y="632"/>
      <point x="111" y="672"/>
      <point x="177" y="672" type="curve" smooth="yes"/>
      <point x="241" y="672"/>
      <point x="278" y="636"/>
      <point x="278" y="545" type="curve" smooth="yes"/>
      <point x="278" y="499"/>
      <point x="262" y="469"/>
      <point x="245" y="445" type="curve"/>
      <point x="225" y="410"/>
      <point x="197" y="391"/>
      <point x="197" y="361" type="curve" smooth="yes"/>
      <point x="197" y="319"/>
      <point x="232" y="290"/>
      <point x="267" y="256" type="curve" smooth="yes"/>
      <point x="307" y="218"/>
      <point x="352" y="173"/>
    </contour>
  </outline>
</glyph>
<glyph name="ae" format="1">
  <advance width="515"/>
  <unicode hex="00E6"/>
  <outline>
    <contour>
      <point x="487" y="36" type="curve"/>
      <point x="478" y="19"/>
      <point x="404" y="-1"/>
      <point x="374" y="-1" type="curve" smooth="yes"/>
      <point x="327" y="-1"/>
      <point x="270" y="37"/>
      <point x="250" y="77" type="curve"/>
      <point x="226" y="50"/>
      <point x="152" y="-16"/>
      <point x="90" y="-16" type="curve" smooth="yes"/>
      <point x="60" y="-16"/>
      <point x="17" y="34"/>
      <point x="17" y="122" type="curve" smooth="yes"/>
      <point x="17" y="147"/>
      <point x="33" y="211"/>
      <point x="73" y="232" type="curve" smooth="yes"/>
      <point x="141" y="268"/>
      <point x="196" y="281"/>
      <point x="220" y="291" type="curve"/>
      <point x="220" y="352"/>
      <point x="212" y="381"/>
      <point x="190" y="393" type="curve" smooth="yes"/>
      <point x="165" y="406"/>
      <point x="128" y="415"/>
      <point x="101" y="415" type="curve"/>
      <point x="101" y="415"/>
      <point x="104" y="454"/>
      <point x="103" y="463" type="curve"/>
      <point x="139" y="459"/>
      <point x="196" y="448"/>
      <point x="221" y="435" type="curve" smooth="yes"/>
      <point x="237" y="427"/>
      <point x="256" y="406"/>
      <point x="259" y="389" type="curve"/>
      <point x="276" y="421"/>
      <point x="318" y="453"/>
      <point x="368" y="453" type="curve" smooth="yes"/>
      <point x="446" y="453"/>
      <point x="475" y="349"/>
      <point x="479" y="233" type="curve"/>
      <point x="394" y="226"/>
      <point x="290" y="223"/>
      <point x="271" y="222" type="curve"/>
      <point x="262" y="141"/>
      <point x="303" y="50"/>
      <point x="387" y="50" type="curve" smooth="yes"/>
      <point x="417" y="50"/>
      <point x="455" y="62"/>
      <point x="471" y="72" type="curve"/>
      <point x="473" y="65"/>
      <point x="480" y="47"/>
    </contour>
    <contour>
      <point x="425" y="278" type="curve"/>
      <point x="417" y="354"/>
      <point x="403" y="405"/>
      <point x="355" y="405" type="curve" smooth="yes"/>
      <point x="316" y="405"/>
      <point x="270" y="360"/>
      <point x="274" y="270" type="curve"/>
      <point x="285" y="269"/>
      <point x="320" y="267"/>
      <point x="343" y="269" type="curve" smooth="yes"/>
      <point x="374" y="272"/>
      <point x="415" y="276"/>
    </contour>
    <contour>
      <point x="230" y="128" type="curve"/>
      <point x="223" y="165"/>
      <point x="218" y="211"/>
      <point x="219" y="244" type="curve"/>
      <point x="209" y="240"/>
      <point x="154" y="218"/>
      <point x="126" y="205" type="curve" smooth="yes"/>
      <point x="97" y="192"/>
      <point x="68" y="169"/>
      <point x="68" y="128" type="curve" smooth="yes"/>
      <point x="68" y="71"/>
      <point x="80" y="38"/>
      <point x="110" y="38" type="curve" smooth="yes"/>
      <point x="143" y="38"/>
      <point x="210" y="96"/>
    </contour>
  </outline>
</glyph>
<glyph name="ccedilla" format="1">
  <advance width="250"/>
  <unicode hex="00E7"/>
  <outline>
    <contour>
      <point x="233" y="19" type="curve"/>
      <point x="230" y="9"/>
      <point x="226" y="-12"/>
      <point x="224" y="-23" type="curve"/>
      <point x="200" y="-19"/>
      <point x="178" y="-13"/>
      <point x="158" y="-5" type="curve"/>
      <point x="144" y="-38" type="line"/>
      <point x="164" y="-50"/>
      <point x="180" y="-68"/>
      <point x="180" y="-94" type="curve" smooth="yes"/>
      <point x="180" y="-145"/>
      <point x="150" y="-174"/>
      <point x="104" y="-185" type="curve"/>
      <point x="95" y="-147" type="line"/>
      <point x="121" y="-142"/>
      <point x="138" y="-125"/>
      <point x="138" y="-103" type="curve" smooth="yes"/>
      <point x="138" y="-73"/>
      <point x="114" y="-63"/>
      <point x="93" y="-54" type="curve"/>
      <point x="121" y="14" type="line"/>
      <point x="56" y="55"/>
      <point x="22" y="126"/>
      <point x="22" y="234" type="curve" smooth="yes"/>
      <point x="22" y="295"/>
      <point x="34" y="355"/>
      <point x="59" y="390" type="curve" smooth="yes"/>
      <point x="98" y="445"/>
      <point x="136" y="463"/>
      <point x="223" y="475" type="curve"/>
      <point x="228" y="429" type="line"/>
      <point x="216" y="428"/>
      <point x="185" y="419"/>
      <point x="180" y="417" type="curve" smooth="yes"/>
      <point x="115" y="397"/>
      <point x="77" y="349"/>
      <point x="77" y="245" type="curve" smooth="yes"/>
      <point x="77" y="158"/>
      <point x="98" y="61"/>
      <point x="194" y="33" type="curve" smooth="yes"/>
      <point x="208" y="29"/>
      <point x="224" y="22"/>
    </contour>
  </outline>
</glyph>
<glyph name="eth" format="1">
  <advance width="354"/>
  <unicode hex="00F0"/>
  <outline>
    <contour>
      <point x="320" y="265" type="curve" smooth="yes"/>
      <point x="320" y="97"/>
      <point x="253" y="6"/>
      <point x="173" y="6" type="curve" smooth="yes"/>
      <point x="92" y="6"/>
      <point x="32" y="73"/>
      <point x="32" y="190" type="curve" smooth="yes"/>
      <point x="32" y="354"/>
      <point x="65" y="435"/>
      <point x="155" y="435" type="curve" smooth="yes"/>
      <point x="193" y="435"/>
      <point x="235" y="419"/>
      <point x="257" y="395" type="curve"/>
      <point x="243" y="452"/>
      <point x="209" y="513"/>
      <point x="166" y="562" type="curve"/>
      <point x="138" y="535"/>
      <point x="116" y="512"/>
      <point x="111" y="506" type="curve"/>
      <point x="109" y="510"/>
      <point x="89" y="533"/>
      <point x="86" y="536" type="curve"/>
      <point x="90" y="541"/>
      <point x="116" y="569"/>
      <point x="141" y="596" type="curve"/>
      <point x="115" y="621"/>
      <point x="84" y="641"/>
      <point x="66" y="647" type="curve"/>
      <point x="76" y="657"/>
      <point x="87" y="674"/>
      <point x="92" y="683" type="curve"/>
      <point x="111" y="675"/>
      <point x="145" y="655"/>
      <point x="171" y="631" type="curve"/>
      <point x="193" y="658"/>
      <point x="207" y="672"/>
      <point x="212" y="678" type="curve"/>
      <point x="215" y="674"/>
      <point x="245" y="642"/>
      <point x="246" y="640" type="curve"/>
      <point x="243" y="637"/>
      <point x="225" y="619"/>
      <point x="201" y="597" type="curve"/>
      <point x="272" y="513"/>
      <point x="320" y="396"/>
    </contour>
    <contour>
      <point x="269" y="235" type="curve" smooth="yes"/>
      <point x="269" y="370"/>
      <point x="209" y="385"/>
      <point x="162" y="385" type="curve" smooth="yes"/>
      <point x="116" y="385"/>
      <point x="84" y="339"/>
      <point x="84" y="210" type="curve" smooth="yes"/>
      <point x="84" y="76"/>
      <point x="132" y="59"/>
      <point x="180" y="59" type="curve" smooth="yes"/>
      <point x="226" y="59"/>
      <point x="269" y="112"/>
    </contour>
  </outline>
</glyph>
<glyph name="oslash" format="1">
  <advance width="354"/>
  <unicode hex="00F8"/>
  <outline>
    <contour>
      <point x="319" y="269" type="curve" smooth="yes"/>
      <point x="319" y="111"/>
      <point x="252" y="8"/>
      <point x="171" y="8" type="curve" smooth="yes"/>
      <point x="146" y="8"/>
      <point x="124" y="14"/>
      <point x="105" y="28" type="curve"/>
      <point x="97" y="10"/>
      <point x="90" y="-8"/>
      <point x="82" y="-26" type="curve"/>
      <point x="70" y="-20"/>
      <point x="49" y="-11"/>
      <point x="39" y="-7" type="curve"/>
      <point x="50" y="16"/>
      <point x="61" y="40"/>
      <point x="72" y="66" type="curve"/>
      <point x="69" y="72"/>
      <point x="65" y="78"/>
      <point x="62" y="85" type="curve" smooth="yes"/>
      <point x="45" y="126"/>
      <point x="31" y="165"/>
      <point x="31" y="228" type="curve" smooth="yes"/>
      <point x="31" y="392"/>
      <point x="90" y="461"/>
      <point x="172" y="461" type="curve" smooth="yes"/>
      <point x="193" y="461"/>
      <point x="216" y="456"/>
      <point x="236" y="446" type="curve"/>
      <point x="248" y="473"/>
      <point x="258" y="498"/>
      <point x="267" y="521" type="curve"/>
      <point x="278" y="515"/>
      <point x="303" y="508"/>
      <point x="315" y="501" type="curve"/>
      <point x="302" y="475"/>
      <point x="289" y="446"/>
      <point x="275" y="415" type="curve"/>
      <point x="301" y="385"/>
      <point x="319" y="338"/>
    </contour>
    <contour>
      <point x="215" y="394" type="curve"/>
      <point x="200" y="406"/>
      <point x="184" y="410"/>
      <point x="166" y="410" type="curve" smooth="yes"/>
      <point x="122" y="410"/>
      <point x="85" y="357"/>
      <point x="85" y="247" type="curve" smooth="yes"/>
      <point x="85" y="202"/>
      <point x="91" y="162"/>
      <point x="102" y="132" type="curve"/>
      <point x="140" y="219"/>
      <point x="180" y="312"/>
    </contour>
    <contour>
      <point x="266" y="237" type="curve" smooth="yes"/>
      <point x="266" y="289"/>
      <point x="259" y="326"/>
      <point x="247" y="353" type="curve"/>
      <point x="208" y="267"/>
      <point x="167" y="173"/>
      <point x="128" y="83" type="curve"/>
      <point x="141" y="67"/>
      <point x="156" y="59"/>
      <point x="173" y="59" type="curve" smooth="yes"/>
      <point x="218" y="59"/>
      <point x="266" y="133"/>
    </contour>
  </outline>
</glyph>
<glyph name="thorn" format="1">
  <advance width="333"/>
  <unicode hex="00FE"/>
  <outline>
    <contour>
      <point x="297" y="203" type="curve" smooth="yes"/>
      <point x="297" y="127"/>
      <point x="287" y="73"/>
      <point x="261" y="34" type="curve" smooth="yes"/>
      <point x="238" y="-2"/>
      <point x="216" y="-9"/>
      <point x="193" y="-9" type="curve" smooth="yes"/>
      <point x="175" y="-9"/>
      <point x="116" y="16"/>
      <point x="100" y="27" type="curve"/>
      <point x="101" y="-6"/>
      <point x="101" y="-48"/>
      <point x="101" y="-117" type="curve" smooth="yes"/>
      <point x="101" y="-150"/>
      <point x="102" y="-182"/>
      <point x="102" y="-189" type="curve"/>
      <point x="92" y="-189"/>
      <point x="51" y="-195"/>
      <point x="51" y="-195" type="curve"/>
      <point x="51" y="-175"/>
      <point x="53" y="21"/>
      <point x="52" y="200" type="curve" smooth="yes"/>
      <point x="52" y="316"/>
      <point x="51" y="668"/>
      <point x="51" y="668" type="curve"/>
      <point x="64" y="667"/>
      <point x="91" y="663"/>
      <point x="106" y="663" type="curve"/>
      <point x="102" y="645"/>
      <point x="102" y="433"/>
      <point x="102" y="419" type="curve"/>
      <point x="121" y="429"/>
      <point x="169" y="446"/>
      <point x="198" y="446" type="curve" smooth="yes"/>
      <point x="210" y="446"/>
      <point x="224" y="443"/>
      <point x="238" y="435" type="curve" smooth="yes"/>
      <point x="252" y="427"/>
      <point x="262" y="416"/>
      <point x="268" y="406" type="curve" smooth="yes"/>
      <point x="287" y="378"/>
      <point x="297" y="256"/>
    </contour>
    <contour>
      <point x="242" y="201" type="curve" smooth="yes"/>
      <point x="242" y="338"/>
      <point x="230" y="395"/>
      <point x="174" y="395" type="curve" smooth="yes"/>
      <point x="146" y="395"/>
      <point x="118" y="381"/>
      <point x="104" y="371" type="curve"/>
      <point x="103" y="358"/>
      <point x="102" y="296"/>
      <point x="102" y="263" type="curve" smooth="yes"/>
      <point x="102" y="195"/>
      <point x="101" y="111"/>
      <point x="104" y="79" type="curve"/>
      <point x="124" y="65"/>
      <point x="164" y="45"/>
      <point x="181" y="45" type="curve" smooth="yes"/>
      <point x="206" y="45"/>
      <point x="242" y="49"/>
    </contour>
  </outline>
</glyph>
<glyph name="dotlessi" format="1">
  <advance width="153"/>
  <unicode hex="0131"/>
  <outline>
    <contour>
      <point x="108" y="3" type="curve"/>
      <point x="102" y="0"/>
      <point x="61" y="-13"/>
      <point x="51" y="-16" type="curve"/>
      <point x="52" y="11"/>
      <point x="50" y="198"/>
      <point x="49" y="218" type="curve" smooth="yes"/>
      <point x="48" y="254"/>
      <point x="52" y="434"/>
      <point x="52" y="442" type="curve"/>
      <point x="68" y="439"/>
      <point x="89" y="436"/>
      <point x="104" y="436" type="curve"/>
      <point x="104" y="413"/>
      <point x="102" y="391"/>
      <point x="101" y="386" type="curve" smooth="yes"/>
      <point x="99" y="370"/>
      <point x="100" y="275"/>
      <point x="100" y="257" type="curve" smooth="yes"/>
      <point x="100" y="232"/>
      <point x="102" y="99"/>
      <point x="104" y="82" type="curve" smooth="yes"/>
      <point x="105" y="72"/>
      <point x="108" y="25"/>
    </contour>
  </outline>
</glyph>
<glyph name="Lslash" format="1">
  <advance width="349"/>
  <unicode hex="0141"/>
  <outline>
    <contour>
      <point x="338" y="47" type="curve"/>
      <point x="338" y="39"/>
      <point x="334" y="12"/>
      <point x="330" y="-8" type="curve"/>
      <point x="330" y="-8"/>
      <point x="286" y="-6"/>
      <point x="251" y="-4" type="curve" smooth="yes"/>
      <point x="187" y="0"/>
      <point x="78" y="1"/>
      <point x="67" y="3" type="curve"/>
      <point x="70" y="45"/>
      <point x="74" y="173"/>
      <point x="75" y="316" type="curve"/>
      <point x="33" y="301" type="line"/>
      <point x="11" y="337" type="line"/>
      <point x="75" y="367" type="line"/>
      <point x="74" y="417"/>
      <point x="73" y="467"/>
      <point x="72" y="515" type="curve" smooth="yes"/>
      <point x="70" y="578"/>
      <point x="72" y="646"/>
      <point x="71" y="664" type="curve"/>
      <point x="81" y="664"/>
      <point x="124" y="672"/>
      <point x="132" y="673" type="curve"/>
      <point x="133" y="650"/>
      <point x="133" y="526"/>
      <point x="132" y="395" type="curve"/>
      <point x="226" y="441" type="line"/>
      <point x="248" y="381" type="line"/>
      <point x="132" y="337" type="line"/>
      <point x="132" y="203"/>
      <point x="131" y="71"/>
      <point x="131" y="45" type="curve"/>
      <point x="148" y="48"/>
      <point x="307" y="44"/>
    </contour>
  </outline>
</glyph>
<glyph name="lslash" format="1">
  <advance width="186"/>
  <unicode hex="0142"/>
  <outline>
    <contour>
      <point x="180" y="353" type="line"/>
      <point x="110" y="325" type="line"/>
      <point x="110" y="260"/>
      <point x="109" y="184"/>
      <point x="106" y="176" type="curve"/>
      <point x="104" y="164"/>
      <point x="100" y="6"/>
      <point x="100" y="-22" type="curve"/>
      <point x="101" y="-22"/>
      <point x="60" y="-16"/>
      <point x="58" y="-15" type="curve"/>
      <point x="58" y="1"/>
      <point x="58" y="204"/>
      <point x="59" y="309" type="curve"/>
      <point x="31" y="299" type="line"/>
      <point x="9" y="337" type="line"/>
      <point x="59" y="363" type="line"/>
      <point x="59" y="394"/>
      <point x="58" y="520"/>
      <point x="58" y="533" type="curve" smooth="yes"/>
      <point x="58" y="540"/>
      <point x="57" y="617"/>
      <point x="62" y="630" type="curve"/>
      <point x="65" y="651"/>
      <point x="66" y="695"/>
      <point x="66" y="700" type="curve"/>
      <point x="63" y="699"/>
      <point x="100" y="694"/>
      <point x="110" y="685" type="curve"/>
      <point x="110" y="654"/>
      <point x="108" y="452"/>
      <point x="108" y="416" type="curve"/>
      <point x="108" y="418"/>
      <point x="110" y="409"/>
      <point x="110" y="393" type="curve"/>
      <point x="158" y="417" type="line"/>
    </contour>
  </outline>
</glyph>
<glyph name="OE" format="1">
  <advance width="588"/>
  <unicode hex="0152"/>
  <outline>
    <contour>
      <point x="553" y="47" type="curve"/>
      <point x="549" y="28"/>
      <point x="547" y="9"/>
      <point x="544" y="-6" type="curve"/>
      <point x="547" y="-6"/>
      <point x="493" y="-6"/>
      <point x="452" y="-4" type="curve" smooth="yes"/>
      <point x="385" y="-1"/>
      <point x="325" y="0"/>
      <point x="303" y="0" type="curve"/>
      <point x="303" y="24"/>
      <point x="302" y="69"/>
      <point x="303" y="87" type="curve"/>
      <point x="280" y="25"/>
      <point x="229" y="-6"/>
      <point x="187" y="-6" type="curve" smooth="yes"/>
      <point x="106" y="-6"/>
      <point x="37" y="107"/>
      <point x="37" y="344" type="curve" smooth="yes"/>
      <point x="37" y="554"/>
      <point x="64" y="670"/>
      <point x="190" y="670" type="curve" smooth="yes"/>
      <point x="254" y="670"/>
      <point x="288" y="637"/>
      <point x="309" y="594" type="curve"/>
      <point x="309" y="609"/>
      <point x="309" y="653"/>
      <point x="309" y="661" type="curve"/>
      <point x="319" y="663"/>
      <point x="373" y="666"/>
      <point x="396" y="666" type="curve" smooth="yes"/>
      <point x="429" y="666"/>
      <point x="540" y="662"/>
      <point x="545" y="662" type="curve"/>
      <point x="545" y="658"/>
      <point x="541" y="616"/>
      <point x="540" y="604" type="curve"/>
      <point x="535" y="605"/>
      <point x="465" y="612"/>
      <point x="429" y="615" type="curve" smooth="yes"/>
      <point x="401" y="618"/>
      <point x="375" y="613"/>
      <point x="363" y="615" type="curve"/>
      <point x="360" y="533"/>
      <point x="363" y="462"/>
      <point x="363" y="381" type="curve"/>
      <point x="378" y="380"/>
      <point x="404" y="379"/>
      <point x="419" y="379" type="curve" smooth="yes"/>
      <point x="432" y="379"/>
      <point x="509" y="384"/>
      <point x="521" y="386" type="curve"/>
      <point x="521" y="381"/>
      <point x="519" y="339"/>
      <point x="519" y="326" type="curve"/>
      <point x="507" y="324"/>
      <point x="449" y="326"/>
      <point x="426" y="326" type="curve" smooth="yes"/>
      <point x="402" y="326"/>
      <point x="374" y="325"/>
      <point x="364" y="328" type="curve"/>
      <point x="360" y="259"/>
      <point x="364" y="132"/>
      <point x="364" y="58" type="curve"/>
      <point x="382" y="51"/>
      <point x="419" y="53"/>
      <point x="428" y="52" type="curve" smooth="yes"/>
      <point x="437" y="51"/>
      <point x="539" y="47"/>
    </contour>
    <contour>
      <point x="309" y="344" type="curve" smooth="yes"/>
      <point x="309" y="551"/>
      <point x="258" y="615"/>
      <point x="194" y="615" type="curve" smooth="yes"/>
      <point x="121" y="615"/>
      <point x="94" y="557"/>
      <point x="94" y="351" type="curve" smooth="yes"/>
      <point x="94" y="152"/>
      <point x="132" y="50"/>
      <point x="196" y="50" type="curve" smooth="yes"/>
      <point x="265" y="50"/>
      <point x="309" y="207"/>
    </contour>
  </outline>
</glyph>
<glyph name="oe" format="1">
  <advance width="567"/>
  <unicode hex="0153"/>
  <outline>
    <contour>
      <point x="539" y="36" type="curve"/>
      <point x="531" y="19"/>
      <point x="461" y="0"/>
      <point x="424" y="0" type="curve" smooth="yes"/>
      <point x="363" y="0"/>
      <point x="307" y="54"/>
      <point x="292" y="118" type="curve"/>
      <point x="273" y="53"/>
      <point x="218" y="6"/>
      <point x="172" y="6" type="curve" smooth="yes"/>
      <point x="124" y="6"/>
      <point x="84" y="40"/>
      <point x="64" y="83" type="curve" smooth="yes"/>
      <point x="53" y="108"/>
      <point x="32" y="162"/>
      <point x="32" y="225" type="curve" smooth="yes"/>
      <point x="32" y="389"/>
      <point x="91" y="459"/>
      <point x="174" y="459" type="curve" smooth="yes"/>
      <point x="228" y="459"/>
      <point x="273" y="428"/>
      <point x="297" y="369" type="curve"/>
      <point x="313" y="413"/>
      <point x="360" y="453"/>
      <point x="420" y="453" type="curve" smooth="yes"/>
      <point x="498" y="453"/>
      <point x="528" y="348"/>
      <point x="532" y="232" type="curve"/>
      <point x="447" y="225"/>
      <point x="344" y="222"/>
      <point x="325" y="222" type="curve"/>
      <point x="322" y="147"/>
      <point x="356" y="51"/>
      <point x="431" y="51" type="curve" smooth="yes"/>
      <point x="456" y="51"/>
      <point x="508" y="60"/>
      <point x="524" y="71" type="curve"/>
      <point x="527" y="62"/>
      <point x="533" y="48"/>
    </contour>
    <contour>
      <point x="477" y="276" type="curve"/>
      <point x="467" y="350"/>
      <point x="453" y="407"/>
      <point x="405" y="407" type="curve" smooth="yes"/>
      <point x="372" y="407"/>
      <point x="318" y="363"/>
      <point x="326" y="268" type="curve"/>
      <point x="338" y="266"/>
      <point x="375" y="265"/>
      <point x="395" y="267" type="curve" smooth="yes"/>
      <point x="426" y="270"/>
      <point x="465" y="274"/>
    </contour>
    <contour>
      <point x="267" y="235" type="curve" smooth="yes"/>
      <point x="267" y="368"/>
      <point x="219" y="408"/>
      <point x="171" y="408" type="curve" smooth="yes"/>
      <point x="125" y="408"/>
      <point x="83" y="372"/>
      <point x="83" y="246" type="curve" smooth="yes"/>
      <point x="83" y="120"/>
      <point x="122" y="58"/>
      <point x="173" y="58" type="curve" smooth="yes"/>
      <point x="219" y="58"/>
      <point x="267" y="112"/>
    </contour>
  </outline>
</glyph>
<glyph name="florin" format="1">
  <advance width="204"/>
  <unicode hex="0192"/>
  <outline>
    <contour>
      <point x="185" y="637" type="curve"/>
      <point x="140" y="630"/>
      <point x="126" y="622"/>
      <point x="112" y="601" type="curve" smooth="yes"/>
      <point x="106" y="592"/>
      <point x="106" y="541"/>
      <point x="107" y="524" type="curve" smooth="yes"/>
      <point x="108" y="511"/>
      <point x="108" y="475"/>
      <point x="108" y="447" type="curve"/>
      <point x="125" y="444"/>
      <point x="158" y="440"/>
      <point x="172" y="438" type="curve"/>
      <point x="173" y="399" type="line"/>
      <point x="173" y="399"/>
      <point x="138" y="396"/>
      <point x="113" y="396" type="curve"/>
      <point x="111" y="236" type="line" smooth="yes"/>
      <point x="110" y="169"/>
      <point x="108" y="83"/>
      <point x="108" y="62" type="curve" smooth="yes"/>
      <point x="108" y="-92"/>
      <point x="60" y="-149"/>
      <point x="24" y="-178" type="curve"/>
      <point x="18" y="-168"/>
      <point x="1" y="-151"/>
      <point x="-9" y="-143" type="curve"/>
      <point x="32" y="-108"/>
      <point x="61" y="-43"/>
      <point x="58" y="29" type="curve" smooth="yes"/>
      <point x="57" y="49"/>
      <point x="59" y="87"/>
      <point x="59" y="123" type="curve" smooth="yes"/>
      <point x="59" y="160"/>
      <point x="61" y="205"/>
      <point x="61" y="216" type="curve" smooth="yes"/>
      <point x="61" y="402" type="line"/>
      <point x="45" y="406"/>
      <point x="9" y="412"/>
      <point x="9" y="412" type="curve"/>
      <point x="5" y="457" type="line"/>
      <point x="61" y="456" type="line"/>
      <point x="62" y="498"/>
      <point x="58" y="567"/>
      <point x="58" y="584" type="curve" smooth="yes"/>
      <point x="58" y="617"/>
      <point x="73" y="669"/>
      <point x="176" y="684" type="curve"/>
      <point x="178" y="676"/>
      <point x="181" y="651"/>
    </contour>
  </outline>
</glyph>
<glyph name="circumflex" format="1">
  <advance width="252"/>
  <unicode hex="02C6"/>
  <outline>
    <contour>
      <point x="229" y="548" type="line"/>
      <point x="201" y="512" type="line"/>
      <point x="122" y="584" type="line"/>
      <point x="53" y="486" type="line"/>
      <point x="21" y="512" type="line"/>
      <point x="97" y="625" type="line"/>
      <point x="142" y="629" type="line"/>
    </contour>
  </outline>
</glyph>
<glyph name="caron" format="1">
  <advance width="252"/>
  <unicode hex="02C7"/>
  <outline>
    <contour>
      <point x="220" y="615" type="line"/>
      <point x="144" y="502" type="line"/>
      <point x="99" y="498" type="line"/>
      <point x="12" y="579" type="line"/>
      <point x="40" y="615" type="line"/>
      <point x="119" y="543" type="line"/>
      <point x="188" y="641" type="line"/>
    </contour>
  </outline>
</glyph>
<glyph name="breve" format="1">
  <advance width="252"/>
  <unicode hex="02D8"/>
  <outline>
    <contour>
      <point x="230" y="612" type="line"/>
      <point x="224" y="554"/>
      <point x="167" y="507"/>
      <point x="112" y="507" type="curve" smooth="yes"/>
      <point x="69" y="507"/>
      <point x="19" y="532"/>
      <point x="8" y="582" type="curve"/>
      <point x="42" y="600" type="line"/>
      <point x="49" y="574"/>
      <point x="81" y="549"/>
      <point x="106" y="549" type="curve" smooth="yes"/>
      <point x="164" y="549"/>
      <point x="185" y="595"/>
      <point x="190" y="621" type="curve"/>
    </contour>
  </outline>
</glyph>
<glyph name="dotaccent" format="1">
  <advance width="252"/>
  <unicode hex="02D9"/>
  <outline>
    <contour>
      <point x="149" y="572" type="curve" smooth="yes"/>
      <point x="149" y="545"/>
      <point x="129" y="527"/>
      <point x="116" y="527" type="curve" smooth="yes"/>
      <point x="95" y="527"/>
      <point x="76" y="541"/>
      <point x="76" y="562" type="curve" smooth="yes"/>
      <point x="76" y="586"/>
      <point x="94" y="606"/>
      <point x="121" y="606" type="curve" smooth="yes"/>
      <point x="138" y="606"/>
      <point x="149" y="594"/>
    </contour>
  </outline>
</glyph>
